<mxfile host="app.diagrams.net" modified="2021-08-27T07:44:01.036Z" agent="5.0 (Windows NT 10.0; Win64; x64) AppleWebKit/537.36 (KHTML, like Gecko) Chrome/92.0.4515.159 Safari/537.36" etag="oZMgwwR-Mnv3eu7GOyfe" version="14.9.8" type="github">
  <diagram id="UVlC2ruxBO7gQxABfJrQ" name="Page-1">
    <mxGraphModel dx="7110" dy="3970" grid="1" gridSize="10" guides="1" tooltips="1" connect="1" arrows="1" fold="1" page="1" pageScale="1" pageWidth="4681" pageHeight="3300" math="0" shadow="0">
      <root>
        <mxCell id="0" />
        <mxCell id="1" parent="0" />
        <mxCell id="xrZwqs1FHnrnFmQd6Qyd-1" style="edgeStyle=none;rounded=0;orthogonalLoop=1;jettySize=auto;html=1;entryX=0.5;entryY=0;entryDx=0;entryDy=0;exitX=0.5;exitY=1;exitDx=0;exitDy=0;" edge="1" parent="1" source="xrZwqs1FHnrnFmQd6Qyd-2" target="xrZwqs1FHnrnFmQd6Qyd-228">
          <mxGeometry relative="1" as="geometry" />
        </mxCell>
        <mxCell id="xrZwqs1FHnrnFmQd6Qyd-2" value="" style="rounded=1;whiteSpace=wrap;html=1;fillColor=#fff2cc;strokeColor=#d6b656;" vertex="1" parent="1">
          <mxGeometry x="1980" y="330" width="320" height="120" as="geometry" />
        </mxCell>
        <mxCell id="xrZwqs1FHnrnFmQd6Qyd-3" value="Gerätehauptgruppe" style="rhombus;whiteSpace=wrap;html=1;" vertex="1" parent="1">
          <mxGeometry x="1341" y="1393" width="169" height="170" as="geometry" />
        </mxCell>
        <mxCell id="xrZwqs1FHnrnFmQd6Qyd-4" style="edgeStyle=none;rounded=0;orthogonalLoop=1;jettySize=auto;html=1;exitX=0.5;exitY=0;exitDx=0;exitDy=0;" edge="1" parent="1" source="xrZwqs1FHnrnFmQd6Qyd-5" target="xrZwqs1FHnrnFmQd6Qyd-7">
          <mxGeometry relative="1" as="geometry" />
        </mxCell>
        <mxCell id="xrZwqs1FHnrnFmQd6Qyd-5" value="" style="rounded=1;whiteSpace=wrap;html=1;align=center;fillColor=#fff2cc;strokeColor=#d6b656;" vertex="1" parent="1">
          <mxGeometry x="2401" y="2610" width="460" height="250" as="geometry" />
        </mxCell>
        <mxCell id="xrZwqs1FHnrnFmQd6Qyd-6" style="edgeStyle=none;rounded=0;orthogonalLoop=1;jettySize=auto;html=1;entryX=1;entryY=1;entryDx=0;entryDy=0;" edge="1" parent="1" source="xrZwqs1FHnrnFmQd6Qyd-7" target="xrZwqs1FHnrnFmQd6Qyd-3">
          <mxGeometry relative="1" as="geometry" />
        </mxCell>
        <mxCell id="xrZwqs1FHnrnFmQd6Qyd-7" value="&lt;table border=&quot;0&quot; cellpadding=&quot;0&quot; cellspacing=&quot;0&quot; width=&quot;545&quot; style=&quot;border-collapse: collapse ; width: 409pt&quot;&gt;&lt;tbody&gt;&lt;tr style=&quot;height: 15.9pt&quot;&gt;&lt;td height=&quot;21&quot; width=&quot;545&quot; style=&quot;height: 15.9pt ; width: 409pt&quot;&gt;Geräte für&lt;br&gt;  Erdbewegung und&lt;br&gt;Bodenverdichtung&lt;br&gt;&lt;b&gt;D&lt;/b&gt;&lt;/td&gt;&lt;/tr&gt;&lt;/tbody&gt;&lt;/table&gt;" style="shape=hexagon;perimeter=hexagonPerimeter2;whiteSpace=wrap;html=1;fixedSize=1;verticalAlign=middle;align=center;" vertex="1" parent="1">
          <mxGeometry x="2161" y="2100" width="150" height="80" as="geometry" />
        </mxCell>
        <mxCell id="xrZwqs1FHnrnFmQd6Qyd-8" style="edgeStyle=none;rounded=0;orthogonalLoop=1;jettySize=auto;html=1;entryX=0.375;entryY=0;entryDx=0;entryDy=0;exitX=0.5;exitY=1;exitDx=0;exitDy=0;" edge="1" parent="1" source="xrZwqs1FHnrnFmQd6Qyd-173" target="xrZwqs1FHnrnFmQd6Qyd-7">
          <mxGeometry relative="1" as="geometry" />
        </mxCell>
        <mxCell id="xrZwqs1FHnrnFmQd6Qyd-9" value="Planierraupe/&lt;br&gt;Raddozer&lt;br&gt;&lt;b&gt;D.4&lt;/b&gt;" style="rounded=1;whiteSpace=wrap;html=1;" vertex="1" parent="1">
          <mxGeometry x="2261" y="1745" width="120" height="60" as="geometry" />
        </mxCell>
        <mxCell id="xrZwqs1FHnrnFmQd6Qyd-10" style="edgeStyle=none;rounded=0;orthogonalLoop=1;jettySize=auto;html=1;entryX=1;entryY=0.25;entryDx=0;entryDy=0;" edge="1" parent="1" source="xrZwqs1FHnrnFmQd6Qyd-11" target="xrZwqs1FHnrnFmQd6Qyd-7">
          <mxGeometry relative="1" as="geometry" />
        </mxCell>
        <mxCell id="xrZwqs1FHnrnFmQd6Qyd-11" value="Flächenrüttler/&lt;br&gt;Vibrationsstampfer&lt;br&gt;&lt;b&gt;D.8.6 - D.8.7&lt;/b&gt;" style="rounded=1;whiteSpace=wrap;html=1;fillColor=#fff2cc;strokeColor=#d6b656;" vertex="1" parent="1">
          <mxGeometry x="2691" y="1765" width="120" height="60" as="geometry" />
        </mxCell>
        <mxCell id="xrZwqs1FHnrnFmQd6Qyd-12" value="Minibagger&lt;br&gt;(Ketten, &amp;lt; 36 kW)&lt;br&gt;&lt;b&gt;D.1.02&lt;/b&gt;" style="rounded=1;whiteSpace=wrap;html=1;fillColor=#fff2cc;strokeColor=#d6b656;" vertex="1" parent="1">
          <mxGeometry x="2711" y="2640" width="120" height="60" as="geometry" />
        </mxCell>
        <mxCell id="xrZwqs1FHnrnFmQd6Qyd-13" style="edgeStyle=none;rounded=0;orthogonalLoop=1;jettySize=auto;html=1;entryX=0;entryY=0.75;entryDx=0;entryDy=0;exitX=1;exitY=0.5;exitDx=0;exitDy=0;" edge="1" parent="1" source="xrZwqs1FHnrnFmQd6Qyd-170" target="xrZwqs1FHnrnFmQd6Qyd-7">
          <mxGeometry relative="1" as="geometry" />
        </mxCell>
        <mxCell id="xrZwqs1FHnrnFmQd6Qyd-14" value="Kompaktlader&lt;br&gt;(&amp;lt; 4,0t)&lt;br&gt;&lt;b&gt;D.3.3&lt;/b&gt;" style="rounded=1;whiteSpace=wrap;html=1;" vertex="1" parent="1">
          <mxGeometry x="1331" y="2550" width="120" height="60" as="geometry" />
        </mxCell>
        <mxCell id="xrZwqs1FHnrnFmQd6Qyd-15" value="Radlader&lt;br&gt;(&amp;gt; 3,4t)&lt;br&gt;&lt;b&gt;D.3.10&lt;/b&gt;" style="rounded=1;whiteSpace=wrap;html=1;" vertex="1" parent="1">
          <mxGeometry x="1530" y="2090" width="120" height="60" as="geometry" />
        </mxCell>
        <mxCell id="xrZwqs1FHnrnFmQd6Qyd-16" style="edgeStyle=none;rounded=0;orthogonalLoop=1;jettySize=auto;html=1;entryX=0.625;entryY=0;entryDx=0;entryDy=0;exitX=0.5;exitY=1;exitDx=0;exitDy=0;" edge="1" parent="1" source="xrZwqs1FHnrnFmQd6Qyd-17" target="xrZwqs1FHnrnFmQd6Qyd-7">
          <mxGeometry relative="1" as="geometry" />
        </mxCell>
        <mxCell id="xrZwqs1FHnrnFmQd6Qyd-17" value="Walzen&lt;br&gt;&lt;b&gt;D.8.0 - D.8.3&lt;/b&gt;" style="rounded=1;whiteSpace=wrap;html=1;fillColor=#fff2cc;strokeColor=#d6b656;" vertex="1" parent="1">
          <mxGeometry x="2701" y="1520" width="120" height="60" as="geometry" />
        </mxCell>
        <mxCell id="xrZwqs1FHnrnFmQd6Qyd-18" value="Hydraulikbagger mit Raupenfahrwerk&lt;br&gt;(&amp;gt; 36kW)&lt;br&gt;&lt;b&gt;D.1.03 - D.1.04&lt;/b&gt;" style="rounded=1;whiteSpace=wrap;html=1;fillColor=#fff2cc;strokeColor=#d6b656;" vertex="1" parent="1">
          <mxGeometry x="2571" y="2640" width="120" height="60" as="geometry" />
        </mxCell>
        <mxCell id="xrZwqs1FHnrnFmQd6Qyd-19" value="Hydraulikbagger auf Rädern&lt;br&gt;&lt;b&gt;D.1.05 - D.1.06&lt;/b&gt;" style="rounded=1;whiteSpace=wrap;html=1;fillColor=#fff2cc;strokeColor=#d6b656;" vertex="1" parent="1">
          <mxGeometry x="2431" y="2640" width="120" height="60" as="geometry" />
        </mxCell>
        <mxCell id="xrZwqs1FHnrnFmQd6Qyd-20" style="edgeStyle=none;rounded=0;orthogonalLoop=1;jettySize=auto;html=1;entryX=0;entryY=0.5;entryDx=0;entryDy=0;exitX=1;exitY=0.5;exitDx=0;exitDy=0;" edge="1" parent="1" source="xrZwqs1FHnrnFmQd6Qyd-21" target="xrZwqs1FHnrnFmQd6Qyd-15">
          <mxGeometry relative="1" as="geometry" />
        </mxCell>
        <mxCell id="xrZwqs1FHnrnFmQd6Qyd-21" value="Seitenschwenk-/kipp-&lt;br&gt;schaufel" style="rounded=0;whiteSpace=wrap;html=1;align=center;" vertex="1" parent="1">
          <mxGeometry x="1290" y="1910" width="130" height="70" as="geometry" />
        </mxCell>
        <mxCell id="xrZwqs1FHnrnFmQd6Qyd-22" style="edgeStyle=none;rounded=0;orthogonalLoop=1;jettySize=auto;html=1;entryX=0;entryY=0.5;entryDx=0;entryDy=0;" edge="1" parent="1" source="xrZwqs1FHnrnFmQd6Qyd-23" target="xrZwqs1FHnrnFmQd6Qyd-15">
          <mxGeometry relative="1" as="geometry" />
        </mxCell>
        <mxCell id="xrZwqs1FHnrnFmQd6Qyd-23" value="Ladegabel" style="rounded=0;whiteSpace=wrap;html=1;align=center;" vertex="1" parent="1">
          <mxGeometry x="1295" y="2000" width="120" height="60" as="geometry" />
        </mxCell>
        <mxCell id="xrZwqs1FHnrnFmQd6Qyd-24" style="edgeStyle=none;rounded=0;orthogonalLoop=1;jettySize=auto;html=1;entryX=0;entryY=0.5;entryDx=0;entryDy=0;" edge="1" parent="1" source="xrZwqs1FHnrnFmQd6Qyd-25" target="xrZwqs1FHnrnFmQd6Qyd-15">
          <mxGeometry relative="1" as="geometry" />
        </mxCell>
        <mxCell id="xrZwqs1FHnrnFmQd6Qyd-25" value="Standardschaufel" style="rounded=0;whiteSpace=wrap;html=1;align=center;" vertex="1" parent="1">
          <mxGeometry x="1290" y="2090" width="120" height="60" as="geometry" />
        </mxCell>
        <mxCell id="xrZwqs1FHnrnFmQd6Qyd-26" style="edgeStyle=none;rounded=0;orthogonalLoop=1;jettySize=auto;html=1;entryX=0;entryY=0.5;entryDx=0;entryDy=0;" edge="1" parent="1" source="xrZwqs1FHnrnFmQd6Qyd-27" target="xrZwqs1FHnrnFmQd6Qyd-15">
          <mxGeometry relative="1" as="geometry" />
        </mxCell>
        <mxCell id="xrZwqs1FHnrnFmQd6Qyd-27" value="4-in-1-Schaufel" style="rounded=0;whiteSpace=wrap;html=1;align=center;" vertex="1" parent="1">
          <mxGeometry x="1290" y="2180" width="120" height="60" as="geometry" />
        </mxCell>
        <mxCell id="xrZwqs1FHnrnFmQd6Qyd-28" style="edgeStyle=none;rounded=0;orthogonalLoop=1;jettySize=auto;html=1;entryX=0;entryY=0.5;entryDx=0;entryDy=0;exitX=1;exitY=0.5;exitDx=0;exitDy=0;" edge="1" parent="1" source="xrZwqs1FHnrnFmQd6Qyd-29" target="xrZwqs1FHnrnFmQd6Qyd-15">
          <mxGeometry relative="1" as="geometry">
            <mxPoint x="1420" y="2230" as="sourcePoint" />
          </mxGeometry>
        </mxCell>
        <mxCell id="xrZwqs1FHnrnFmQd6Qyd-29" value="Steinschaufel" style="rounded=0;whiteSpace=wrap;html=1;align=center;" vertex="1" parent="1">
          <mxGeometry x="1290" y="2270" width="120" height="60" as="geometry" />
        </mxCell>
        <mxCell id="xrZwqs1FHnrnFmQd6Qyd-30" style="edgeStyle=none;rounded=0;orthogonalLoop=1;jettySize=auto;html=1;entryX=0;entryY=0.5;entryDx=0;entryDy=0;" edge="1" parent="1" source="xrZwqs1FHnrnFmQd6Qyd-31" target="xrZwqs1FHnrnFmQd6Qyd-21">
          <mxGeometry relative="1" as="geometry" />
        </mxCell>
        <mxCell id="xrZwqs1FHnrnFmQd6Qyd-31" value="1, 2, 3, 4, 5, 6, 9" style="ellipse;whiteSpace=wrap;html=1;aspect=fixed;align=center;" vertex="1" parent="1">
          <mxGeometry x="1100" y="1915" width="60" height="60" as="geometry" />
        </mxCell>
        <mxCell id="xrZwqs1FHnrnFmQd6Qyd-32" style="edgeStyle=none;rounded=0;orthogonalLoop=1;jettySize=auto;html=1;entryX=0;entryY=0.5;entryDx=0;entryDy=0;" edge="1" parent="1" source="xrZwqs1FHnrnFmQd6Qyd-33" target="xrZwqs1FHnrnFmQd6Qyd-23">
          <mxGeometry relative="1" as="geometry" />
        </mxCell>
        <mxCell id="xrZwqs1FHnrnFmQd6Qyd-33" value="3, 4, 5, 7, 8" style="ellipse;whiteSpace=wrap;html=1;aspect=fixed;align=center;" vertex="1" parent="1">
          <mxGeometry x="1100" y="2000" width="60" height="60" as="geometry" />
        </mxCell>
        <mxCell id="xrZwqs1FHnrnFmQd6Qyd-34" style="edgeStyle=none;rounded=0;orthogonalLoop=1;jettySize=auto;html=1;entryX=0;entryY=0.5;entryDx=0;entryDy=0;" edge="1" parent="1" source="xrZwqs1FHnrnFmQd6Qyd-35" target="xrZwqs1FHnrnFmQd6Qyd-25">
          <mxGeometry relative="1" as="geometry" />
        </mxCell>
        <mxCell id="xrZwqs1FHnrnFmQd6Qyd-35" value="1, 2, 3, 4, 5, 6, 9" style="ellipse;whiteSpace=wrap;html=1;aspect=fixed;align=center;" vertex="1" parent="1">
          <mxGeometry x="1100" y="2090" width="60" height="60" as="geometry" />
        </mxCell>
        <mxCell id="xrZwqs1FHnrnFmQd6Qyd-36" style="edgeStyle=none;rounded=0;orthogonalLoop=1;jettySize=auto;html=1;entryX=0;entryY=0.5;entryDx=0;entryDy=0;" edge="1" parent="1" source="xrZwqs1FHnrnFmQd6Qyd-37" target="xrZwqs1FHnrnFmQd6Qyd-27">
          <mxGeometry relative="1" as="geometry" />
        </mxCell>
        <mxCell id="xrZwqs1FHnrnFmQd6Qyd-37" value="1, 2, 3, 4, 5, 6, 9" style="ellipse;whiteSpace=wrap;html=1;aspect=fixed;align=center;" vertex="1" parent="1">
          <mxGeometry x="1100" y="2180" width="60" height="60" as="geometry" />
        </mxCell>
        <mxCell id="xrZwqs1FHnrnFmQd6Qyd-38" style="edgeStyle=none;rounded=0;orthogonalLoop=1;jettySize=auto;html=1;entryX=0;entryY=0.5;entryDx=0;entryDy=0;" edge="1" parent="1" source="xrZwqs1FHnrnFmQd6Qyd-39" target="xrZwqs1FHnrnFmQd6Qyd-29">
          <mxGeometry relative="1" as="geometry" />
        </mxCell>
        <mxCell id="xrZwqs1FHnrnFmQd6Qyd-39" value="2, 3, 4, 5, 9" style="ellipse;whiteSpace=wrap;html=1;aspect=fixed;align=center;" vertex="1" parent="1">
          <mxGeometry x="1100" y="2270" width="60" height="60" as="geometry" />
        </mxCell>
        <mxCell id="xrZwqs1FHnrnFmQd6Qyd-40" style="edgeStyle=none;rounded=0;orthogonalLoop=1;jettySize=auto;html=1;entryX=0;entryY=0.5;entryDx=0;entryDy=0;" edge="1" parent="1" source="xrZwqs1FHnrnFmQd6Qyd-41" target="xrZwqs1FHnrnFmQd6Qyd-14">
          <mxGeometry relative="1" as="geometry" />
        </mxCell>
        <mxCell id="xrZwqs1FHnrnFmQd6Qyd-41" value="Standardschaufel" style="rounded=0;whiteSpace=wrap;html=1;align=center;" vertex="1" parent="1">
          <mxGeometry x="1111" y="2420" width="120" height="60" as="geometry" />
        </mxCell>
        <mxCell id="xrZwqs1FHnrnFmQd6Qyd-42" style="edgeStyle=none;rounded=0;orthogonalLoop=1;jettySize=auto;html=1;entryX=0;entryY=0.5;entryDx=0;entryDy=0;" edge="1" parent="1" source="xrZwqs1FHnrnFmQd6Qyd-43" target="xrZwqs1FHnrnFmQd6Qyd-14">
          <mxGeometry relative="1" as="geometry" />
        </mxCell>
        <mxCell id="xrZwqs1FHnrnFmQd6Qyd-43" value="Hydrl. Klappschaufel" style="rounded=0;whiteSpace=wrap;html=1;align=center;" vertex="1" parent="1">
          <mxGeometry x="1111" y="2500" width="120" height="60" as="geometry" />
        </mxCell>
        <mxCell id="xrZwqs1FHnrnFmQd6Qyd-44" style="edgeStyle=none;rounded=0;orthogonalLoop=1;jettySize=auto;html=1;entryX=0;entryY=0.5;entryDx=0;entryDy=0;" edge="1" parent="1" source="xrZwqs1FHnrnFmQd6Qyd-45" target="xrZwqs1FHnrnFmQd6Qyd-14">
          <mxGeometry relative="1" as="geometry" />
        </mxCell>
        <mxCell id="xrZwqs1FHnrnFmQd6Qyd-45" value="Hubstaplereinrichtung" style="rounded=0;whiteSpace=wrap;html=1;align=center;" vertex="1" parent="1">
          <mxGeometry x="1111" y="2580" width="120" height="60" as="geometry" />
        </mxCell>
        <mxCell id="xrZwqs1FHnrnFmQd6Qyd-46" style="edgeStyle=none;rounded=0;orthogonalLoop=1;jettySize=auto;html=1;entryX=0;entryY=0.5;entryDx=0;entryDy=0;" edge="1" parent="1" source="xrZwqs1FHnrnFmQd6Qyd-47" target="xrZwqs1FHnrnFmQd6Qyd-14">
          <mxGeometry relative="1" as="geometry">
            <mxPoint x="1331" y="2610" as="targetPoint" />
          </mxGeometry>
        </mxCell>
        <mxCell id="xrZwqs1FHnrnFmQd6Qyd-47" value="Grabenfräse" style="rounded=0;whiteSpace=wrap;html=1;align=center;" vertex="1" parent="1">
          <mxGeometry x="1111" y="2660" width="120" height="60" as="geometry" />
        </mxCell>
        <mxCell id="xrZwqs1FHnrnFmQd6Qyd-48" style="edgeStyle=none;rounded=0;orthogonalLoop=1;jettySize=auto;html=1;entryX=0.5;entryY=1;entryDx=0;entryDy=0;exitX=1;exitY=0;exitDx=0;exitDy=0;" edge="1" parent="1" source="xrZwqs1FHnrnFmQd6Qyd-49" target="xrZwqs1FHnrnFmQd6Qyd-14">
          <mxGeometry relative="1" as="geometry" />
        </mxCell>
        <mxCell id="xrZwqs1FHnrnFmQd6Qyd-49" value="Hobeleinrichtung" style="rounded=0;whiteSpace=wrap;html=1;align=center;" vertex="1" parent="1">
          <mxGeometry x="1111" y="2740" width="120" height="60" as="geometry" />
        </mxCell>
        <mxCell id="xrZwqs1FHnrnFmQd6Qyd-50" style="edgeStyle=none;rounded=0;orthogonalLoop=1;jettySize=auto;html=1;entryX=0.5;entryY=1;entryDx=0;entryDy=0;" edge="1" parent="1" source="xrZwqs1FHnrnFmQd6Qyd-51" target="xrZwqs1FHnrnFmQd6Qyd-14">
          <mxGeometry relative="1" as="geometry" />
        </mxCell>
        <mxCell id="xrZwqs1FHnrnFmQd6Qyd-51" value="Vorbaukehreinrichtung" style="rounded=0;whiteSpace=wrap;html=1;align=center;" vertex="1" parent="1">
          <mxGeometry x="1251" y="2740" width="120" height="60" as="geometry" />
        </mxCell>
        <mxCell id="xrZwqs1FHnrnFmQd6Qyd-52" style="edgeStyle=none;rounded=0;orthogonalLoop=1;jettySize=auto;html=1;entryX=0.5;entryY=1;entryDx=0;entryDy=0;" edge="1" parent="1" source="xrZwqs1FHnrnFmQd6Qyd-53" target="xrZwqs1FHnrnFmQd6Qyd-14">
          <mxGeometry relative="1" as="geometry" />
        </mxCell>
        <mxCell id="xrZwqs1FHnrnFmQd6Qyd-53" value="Erdbohreinrichtung" style="rounded=0;whiteSpace=wrap;html=1;align=center;fillColor=#dae8fc;strokeColor=#6c8ebf;" vertex="1" parent="1">
          <mxGeometry x="1381" y="2740" width="120" height="60" as="geometry" />
        </mxCell>
        <mxCell id="xrZwqs1FHnrnFmQd6Qyd-54" style="edgeStyle=none;rounded=0;orthogonalLoop=1;jettySize=auto;html=1;entryX=0;entryY=0.5;entryDx=0;entryDy=0;" edge="1" parent="1" source="xrZwqs1FHnrnFmQd6Qyd-55" target="xrZwqs1FHnrnFmQd6Qyd-41">
          <mxGeometry relative="1" as="geometry" />
        </mxCell>
        <mxCell id="xrZwqs1FHnrnFmQd6Qyd-55" value="1, 2, 3, 4, 5, 6, 9" style="ellipse;whiteSpace=wrap;html=1;aspect=fixed;align=center;" vertex="1" parent="1">
          <mxGeometry x="931" y="2420" width="60" height="60" as="geometry" />
        </mxCell>
        <mxCell id="xrZwqs1FHnrnFmQd6Qyd-56" style="edgeStyle=none;rounded=0;orthogonalLoop=1;jettySize=auto;html=1;entryX=0;entryY=0.5;entryDx=0;entryDy=0;" edge="1" parent="1" source="xrZwqs1FHnrnFmQd6Qyd-57" target="xrZwqs1FHnrnFmQd6Qyd-43">
          <mxGeometry relative="1" as="geometry" />
        </mxCell>
        <mxCell id="xrZwqs1FHnrnFmQd6Qyd-57" value="1, 2, 3, 4, 5, 6, 9" style="ellipse;whiteSpace=wrap;html=1;aspect=fixed;align=center;" vertex="1" parent="1">
          <mxGeometry x="931" y="2500" width="60" height="60" as="geometry" />
        </mxCell>
        <mxCell id="xrZwqs1FHnrnFmQd6Qyd-58" style="edgeStyle=none;rounded=0;orthogonalLoop=1;jettySize=auto;html=1;entryX=0;entryY=0.5;entryDx=0;entryDy=0;" edge="1" parent="1" source="xrZwqs1FHnrnFmQd6Qyd-59" target="xrZwqs1FHnrnFmQd6Qyd-45">
          <mxGeometry relative="1" as="geometry" />
        </mxCell>
        <mxCell id="xrZwqs1FHnrnFmQd6Qyd-59" value="3, 4, 5, 7, 8" style="ellipse;whiteSpace=wrap;html=1;aspect=fixed;align=center;" vertex="1" parent="1">
          <mxGeometry x="931" y="2580" width="60" height="60" as="geometry" />
        </mxCell>
        <mxCell id="xrZwqs1FHnrnFmQd6Qyd-60" style="edgeStyle=none;rounded=0;orthogonalLoop=1;jettySize=auto;html=1;entryX=0;entryY=0.5;entryDx=0;entryDy=0;" edge="1" parent="1" source="xrZwqs1FHnrnFmQd6Qyd-61" target="xrZwqs1FHnrnFmQd6Qyd-47">
          <mxGeometry relative="1" as="geometry" />
        </mxCell>
        <mxCell id="xrZwqs1FHnrnFmQd6Qyd-61" value="1, 5, 6, 9" style="ellipse;whiteSpace=wrap;html=1;aspect=fixed;align=center;" vertex="1" parent="1">
          <mxGeometry x="931" y="2660" width="60" height="60" as="geometry" />
        </mxCell>
        <mxCell id="xrZwqs1FHnrnFmQd6Qyd-62" style="edgeStyle=none;rounded=0;orthogonalLoop=1;jettySize=auto;html=1;entryX=0.5;entryY=1;entryDx=0;entryDy=0;" edge="1" parent="1" source="xrZwqs1FHnrnFmQd6Qyd-63" target="xrZwqs1FHnrnFmQd6Qyd-49">
          <mxGeometry relative="1" as="geometry" />
        </mxCell>
        <mxCell id="xrZwqs1FHnrnFmQd6Qyd-63" value="1, 5, 6, 9" style="ellipse;whiteSpace=wrap;html=1;aspect=fixed;align=center;" vertex="1" parent="1">
          <mxGeometry x="1141" y="2870" width="60" height="60" as="geometry" />
        </mxCell>
        <mxCell id="xrZwqs1FHnrnFmQd6Qyd-64" style="edgeStyle=none;rounded=0;orthogonalLoop=1;jettySize=auto;html=1;entryX=0.5;entryY=1;entryDx=0;entryDy=0;" edge="1" parent="1" source="xrZwqs1FHnrnFmQd6Qyd-65" target="xrZwqs1FHnrnFmQd6Qyd-51">
          <mxGeometry relative="1" as="geometry" />
        </mxCell>
        <mxCell id="xrZwqs1FHnrnFmQd6Qyd-65" value="5, 6" style="ellipse;whiteSpace=wrap;html=1;aspect=fixed;align=center;" vertex="1" parent="1">
          <mxGeometry x="1281" y="2870" width="60" height="60" as="geometry" />
        </mxCell>
        <mxCell id="xrZwqs1FHnrnFmQd6Qyd-66" style="edgeStyle=none;rounded=0;orthogonalLoop=1;jettySize=auto;html=1;entryX=0.5;entryY=1;entryDx=0;entryDy=0;" edge="1" parent="1" source="xrZwqs1FHnrnFmQd6Qyd-67" target="xrZwqs1FHnrnFmQd6Qyd-53">
          <mxGeometry relative="1" as="geometry" />
        </mxCell>
        <mxCell id="xrZwqs1FHnrnFmQd6Qyd-67" value="1, 5, 6, 9" style="ellipse;whiteSpace=wrap;html=1;aspect=fixed;align=center;" vertex="1" parent="1">
          <mxGeometry x="1411" y="2870" width="60" height="60" as="geometry" />
        </mxCell>
        <mxCell id="xrZwqs1FHnrnFmQd6Qyd-68" style="edgeStyle=none;rounded=0;orthogonalLoop=1;jettySize=auto;html=1;entryX=0.5;entryY=0;entryDx=0;entryDy=0;" edge="1" parent="1" source="xrZwqs1FHnrnFmQd6Qyd-69" target="xrZwqs1FHnrnFmQd6Qyd-9">
          <mxGeometry relative="1" as="geometry" />
        </mxCell>
        <mxCell id="xrZwqs1FHnrnFmQd6Qyd-69" value="Schild" style="rounded=0;whiteSpace=wrap;html=1;align=center;" vertex="1" parent="1">
          <mxGeometry x="2171" y="1615" width="120" height="60" as="geometry" />
        </mxCell>
        <mxCell id="xrZwqs1FHnrnFmQd6Qyd-70" style="edgeStyle=none;rounded=0;orthogonalLoop=1;jettySize=auto;html=1;entryX=0.5;entryY=0;entryDx=0;entryDy=0;" edge="1" parent="1" source="xrZwqs1FHnrnFmQd6Qyd-71" target="xrZwqs1FHnrnFmQd6Qyd-9">
          <mxGeometry relative="1" as="geometry" />
        </mxCell>
        <mxCell id="xrZwqs1FHnrnFmQd6Qyd-71" value="Heckaufreißer" style="rounded=0;whiteSpace=wrap;html=1;align=center;" vertex="1" parent="1">
          <mxGeometry x="2331" y="1615" width="120" height="60" as="geometry" />
        </mxCell>
        <mxCell id="xrZwqs1FHnrnFmQd6Qyd-72" style="edgeStyle=none;rounded=0;orthogonalLoop=1;jettySize=auto;html=1;entryX=0.5;entryY=0;entryDx=0;entryDy=0;" edge="1" parent="1" source="xrZwqs1FHnrnFmQd6Qyd-73" target="xrZwqs1FHnrnFmQd6Qyd-69">
          <mxGeometry relative="1" as="geometry" />
        </mxCell>
        <mxCell id="xrZwqs1FHnrnFmQd6Qyd-73" value="1, 2, 5, 6, 9" style="ellipse;whiteSpace=wrap;html=1;aspect=fixed;align=center;" vertex="1" parent="1">
          <mxGeometry x="2201" y="1495" width="60" height="60" as="geometry" />
        </mxCell>
        <mxCell id="xrZwqs1FHnrnFmQd6Qyd-74" style="edgeStyle=none;rounded=0;orthogonalLoop=1;jettySize=auto;html=1;entryX=0;entryY=0.5;entryDx=0;entryDy=0;" edge="1" parent="1" source="xrZwqs1FHnrnFmQd6Qyd-75" target="xrZwqs1FHnrnFmQd6Qyd-17">
          <mxGeometry relative="1" as="geometry" />
        </mxCell>
        <mxCell id="xrZwqs1FHnrnFmQd6Qyd-75" value="5, 6, 9, 10" style="ellipse;whiteSpace=wrap;html=1;aspect=fixed;align=center;" vertex="1" parent="1">
          <mxGeometry x="2561" y="1510" width="80" height="80" as="geometry" />
        </mxCell>
        <mxCell id="xrZwqs1FHnrnFmQd6Qyd-76" style="edgeStyle=none;rounded=0;orthogonalLoop=1;jettySize=auto;html=1;entryX=0.5;entryY=0;entryDx=0;entryDy=0;" edge="1" parent="1" source="xrZwqs1FHnrnFmQd6Qyd-77" target="xrZwqs1FHnrnFmQd6Qyd-17">
          <mxGeometry relative="1" as="geometry" />
        </mxCell>
        <mxCell id="xrZwqs1FHnrnFmQd6Qyd-77" value="Polygonbandage" style="rounded=0;whiteSpace=wrap;html=1;align=center;" vertex="1" parent="1">
          <mxGeometry x="2571" y="1360" width="120" height="60" as="geometry" />
        </mxCell>
        <mxCell id="xrZwqs1FHnrnFmQd6Qyd-78" style="edgeStyle=none;rounded=0;orthogonalLoop=1;jettySize=auto;html=1;" edge="1" parent="1" source="xrZwqs1FHnrnFmQd6Qyd-79">
          <mxGeometry relative="1" as="geometry">
            <mxPoint x="2761" y="1520.000000000001" as="targetPoint" />
          </mxGeometry>
        </mxCell>
        <mxCell id="xrZwqs1FHnrnFmQd6Qyd-79" value="Planierschild" style="rounded=0;whiteSpace=wrap;html=1;align=center;" vertex="1" parent="1">
          <mxGeometry x="2731" y="1360" width="120" height="60" as="geometry" />
        </mxCell>
        <mxCell id="xrZwqs1FHnrnFmQd6Qyd-80" style="edgeStyle=none;rounded=0;orthogonalLoop=1;jettySize=auto;html=1;entryX=1;entryY=0.5;entryDx=0;entryDy=0;exitX=0;exitY=0.5;exitDx=0;exitDy=0;" edge="1" parent="1" source="xrZwqs1FHnrnFmQd6Qyd-81" target="xrZwqs1FHnrnFmQd6Qyd-17">
          <mxGeometry relative="1" as="geometry" />
        </mxCell>
        <mxCell id="xrZwqs1FHnrnFmQd6Qyd-81" value="Anbauplatten" style="rounded=0;whiteSpace=wrap;html=1;align=center;" vertex="1" parent="1">
          <mxGeometry x="2881" y="1670" width="120" height="60" as="geometry" />
        </mxCell>
        <mxCell id="xrZwqs1FHnrnFmQd6Qyd-82" style="edgeStyle=none;rounded=0;orthogonalLoop=1;jettySize=auto;html=1;entryX=1;entryY=0.5;entryDx=0;entryDy=0;exitX=0;exitY=0.5;exitDx=0;exitDy=0;" edge="1" parent="1" source="xrZwqs1FHnrnFmQd6Qyd-83" target="xrZwqs1FHnrnFmQd6Qyd-17">
          <mxGeometry relative="1" as="geometry">
            <mxPoint x="2821" y="1520" as="targetPoint" />
          </mxGeometry>
        </mxCell>
        <mxCell id="xrZwqs1FHnrnFmQd6Qyd-83" value="Stampffuß-/&lt;br&gt;Schaffußwalze" style="rounded=0;whiteSpace=wrap;html=1;align=center;" vertex="1" parent="1">
          <mxGeometry x="2881" y="1440" width="120" height="60" as="geometry" />
        </mxCell>
        <mxCell id="xrZwqs1FHnrnFmQd6Qyd-84" style="edgeStyle=none;rounded=0;orthogonalLoop=1;jettySize=auto;html=1;entryX=0.5;entryY=0;entryDx=0;entryDy=0;exitX=0;exitY=1;exitDx=0;exitDy=0;" edge="1" parent="1" source="xrZwqs1FHnrnFmQd6Qyd-85" target="xrZwqs1FHnrnFmQd6Qyd-17">
          <mxGeometry relative="1" as="geometry" />
        </mxCell>
        <mxCell id="xrZwqs1FHnrnFmQd6Qyd-85" value="Kantenandruckgerät" style="rounded=0;whiteSpace=wrap;html=1;align=center;" vertex="1" parent="1">
          <mxGeometry x="2881" y="1360" width="120" height="60" as="geometry" />
        </mxCell>
        <mxCell id="xrZwqs1FHnrnFmQd6Qyd-86" style="edgeStyle=none;rounded=0;orthogonalLoop=1;jettySize=auto;html=1;entryX=1;entryY=0.5;entryDx=0;entryDy=0;" edge="1" parent="1" source="xrZwqs1FHnrnFmQd6Qyd-87" target="xrZwqs1FHnrnFmQd6Qyd-17">
          <mxGeometry relative="1" as="geometry" />
        </mxCell>
        <mxCell id="xrZwqs1FHnrnFmQd6Qyd-87" value="Splitstreuer" style="rounded=0;whiteSpace=wrap;html=1;align=center;" vertex="1" parent="1">
          <mxGeometry x="2881" y="1510" width="120" height="60" as="geometry" />
        </mxCell>
        <mxCell id="xrZwqs1FHnrnFmQd6Qyd-88" style="edgeStyle=none;rounded=0;orthogonalLoop=1;jettySize=auto;html=1;entryX=1;entryY=0.5;entryDx=0;entryDy=0;exitX=0;exitY=0.5;exitDx=0;exitDy=0;" edge="1" parent="1" source="xrZwqs1FHnrnFmQd6Qyd-89" target="xrZwqs1FHnrnFmQd6Qyd-17">
          <mxGeometry relative="1" as="geometry">
            <mxPoint x="2831" y="1550" as="targetPoint" />
          </mxGeometry>
        </mxCell>
        <mxCell id="xrZwqs1FHnrnFmQd6Qyd-89" value="Felsbrecherbandage" style="rounded=0;whiteSpace=wrap;html=1;align=center;" vertex="1" parent="1">
          <mxGeometry x="2881" y="1590" width="120" height="60" as="geometry" />
        </mxCell>
        <mxCell id="xrZwqs1FHnrnFmQd6Qyd-90" style="edgeStyle=none;rounded=0;orthogonalLoop=1;jettySize=auto;html=1;entryX=0.5;entryY=0;entryDx=0;entryDy=0;" edge="1" parent="1" source="xrZwqs1FHnrnFmQd6Qyd-91" target="xrZwqs1FHnrnFmQd6Qyd-79">
          <mxGeometry relative="1" as="geometry" />
        </mxCell>
        <mxCell id="xrZwqs1FHnrnFmQd6Qyd-91" value="1, 5, 6, 9, 10" style="ellipse;whiteSpace=wrap;html=1;aspect=fixed;align=center;" vertex="1" parent="1">
          <mxGeometry x="2761" y="1260" width="60" height="60" as="geometry" />
        </mxCell>
        <mxCell id="xrZwqs1FHnrnFmQd6Qyd-92" style="edgeStyle=none;rounded=0;orthogonalLoop=1;jettySize=auto;html=1;entryX=0.5;entryY=0;entryDx=0;entryDy=0;" edge="1" parent="1" source="xrZwqs1FHnrnFmQd6Qyd-93" target="xrZwqs1FHnrnFmQd6Qyd-85">
          <mxGeometry relative="1" as="geometry">
            <mxPoint x="3021" y="1400" as="targetPoint" />
          </mxGeometry>
        </mxCell>
        <mxCell id="xrZwqs1FHnrnFmQd6Qyd-93" value="1, 5, 6, 9, 10" style="ellipse;whiteSpace=wrap;html=1;aspect=fixed;align=center;" vertex="1" parent="1">
          <mxGeometry x="2911" y="1260" width="60" height="60" as="geometry" />
        </mxCell>
        <mxCell id="xrZwqs1FHnrnFmQd6Qyd-94" style="edgeStyle=none;rounded=0;orthogonalLoop=1;jettySize=auto;html=1;entryX=1;entryY=0.5;entryDx=0;entryDy=0;" edge="1" parent="1" source="xrZwqs1FHnrnFmQd6Qyd-95" target="xrZwqs1FHnrnFmQd6Qyd-87">
          <mxGeometry relative="1" as="geometry" />
        </mxCell>
        <mxCell id="xrZwqs1FHnrnFmQd6Qyd-95" value="2, 3, 4, 5, 6, 9, 10" style="ellipse;whiteSpace=wrap;html=1;aspect=fixed;align=center;" vertex="1" parent="1">
          <mxGeometry x="3071" y="1510" width="60" height="60" as="geometry" />
        </mxCell>
        <mxCell id="xrZwqs1FHnrnFmQd6Qyd-96" style="edgeStyle=none;rounded=0;orthogonalLoop=1;jettySize=auto;html=1;" edge="1" parent="1" source="xrZwqs1FHnrnFmQd6Qyd-97" target="xrZwqs1FHnrnFmQd6Qyd-11">
          <mxGeometry relative="1" as="geometry" />
        </mxCell>
        <mxCell id="xrZwqs1FHnrnFmQd6Qyd-97" value="5, 6, 9, 10" style="ellipse;whiteSpace=wrap;html=1;aspect=fixed;align=center;" vertex="1" parent="1">
          <mxGeometry x="2911" y="1755" width="80" height="80" as="geometry" />
        </mxCell>
        <mxCell id="xrZwqs1FHnrnFmQd6Qyd-98" style="edgeStyle=none;rounded=0;orthogonalLoop=1;jettySize=auto;html=1;entryX=0.5;entryY=1;entryDx=0;entryDy=0;" edge="1" parent="1" source="xrZwqs1FHnrnFmQd6Qyd-99" target="xrZwqs1FHnrnFmQd6Qyd-12">
          <mxGeometry relative="1" as="geometry" />
        </mxCell>
        <mxCell id="xrZwqs1FHnrnFmQd6Qyd-99" value="1, 2, 5, 9" style="ellipse;whiteSpace=wrap;html=1;aspect=fixed;align=center;" vertex="1" parent="1">
          <mxGeometry x="2731" y="2750" width="80" height="80" as="geometry" />
        </mxCell>
        <mxCell id="xrZwqs1FHnrnFmQd6Qyd-100" style="edgeStyle=none;rounded=0;orthogonalLoop=1;jettySize=auto;html=1;entryX=0.5;entryY=1;entryDx=0;entryDy=0;" edge="1" parent="1" source="xrZwqs1FHnrnFmQd6Qyd-101" target="xrZwqs1FHnrnFmQd6Qyd-18">
          <mxGeometry relative="1" as="geometry" />
        </mxCell>
        <mxCell id="xrZwqs1FHnrnFmQd6Qyd-101" value="1, 2, 5, 9" style="ellipse;whiteSpace=wrap;html=1;aspect=fixed;align=center;" vertex="1" parent="1">
          <mxGeometry x="2591" y="2750" width="80" height="80" as="geometry" />
        </mxCell>
        <mxCell id="xrZwqs1FHnrnFmQd6Qyd-102" style="edgeStyle=none;rounded=0;orthogonalLoop=1;jettySize=auto;html=1;fontSize=17;entryX=0.5;entryY=1;entryDx=0;entryDy=0;exitX=0.5;exitY=0;exitDx=0;exitDy=0;" edge="1" parent="1" source="xrZwqs1FHnrnFmQd6Qyd-103" target="xrZwqs1FHnrnFmQd6Qyd-5">
          <mxGeometry relative="1" as="geometry">
            <mxPoint x="2411" y="2860" as="targetPoint" />
          </mxGeometry>
        </mxCell>
        <mxCell id="xrZwqs1FHnrnFmQd6Qyd-103" value="Brecherlöffel&lt;br&gt;&lt;b&gt;D.1.88&lt;/b&gt;" style="rounded=0;whiteSpace=wrap;html=1;fontSize=17;align=center;fillColor=#dae8fc;strokeColor=#6c8ebf;" vertex="1" parent="1">
          <mxGeometry x="1991" y="3090" width="120" height="60" as="geometry" />
        </mxCell>
        <mxCell id="xrZwqs1FHnrnFmQd6Qyd-104" style="edgeStyle=none;rounded=0;orthogonalLoop=1;jettySize=auto;html=1;fontSize=17;entryX=0.5;entryY=1;entryDx=0;entryDy=0;exitX=0.5;exitY=0;exitDx=0;exitDy=0;" edge="1" parent="1" source="xrZwqs1FHnrnFmQd6Qyd-105" target="xrZwqs1FHnrnFmQd6Qyd-5">
          <mxGeometry relative="1" as="geometry">
            <mxPoint x="2411" y="2850" as="targetPoint" />
          </mxGeometry>
        </mxCell>
        <mxCell id="xrZwqs1FHnrnFmQd6Qyd-105" value="Lasthaken&lt;br&gt;&lt;b&gt;D.1.80&lt;/b&gt;" style="rounded=0;whiteSpace=wrap;html=1;fontSize=17;align=center;fillColor=#dae8fc;strokeColor=#6c8ebf;" vertex="1" parent="1">
          <mxGeometry x="2271" y="3090" width="120" height="60" as="geometry" />
        </mxCell>
        <mxCell id="xrZwqs1FHnrnFmQd6Qyd-106" style="edgeStyle=none;rounded=0;orthogonalLoop=1;jettySize=auto;html=1;fontSize=17;exitX=0.5;exitY=0;exitDx=0;exitDy=0;" edge="1" parent="1" source="xrZwqs1FHnrnFmQd6Qyd-107">
          <mxGeometry relative="1" as="geometry">
            <mxPoint x="2631" y="2860" as="targetPoint" />
          </mxGeometry>
        </mxCell>
        <mxCell id="xrZwqs1FHnrnFmQd6Qyd-107" value="Greifzange&lt;br&gt;&lt;b&gt;D.1.82&lt;/b&gt;" style="rounded=0;whiteSpace=wrap;html=1;fontSize=17;align=center;fillColor=#dae8fc;strokeColor=#6c8ebf;" vertex="1" parent="1">
          <mxGeometry x="2131" y="3090" width="120" height="60" as="geometry" />
        </mxCell>
        <mxCell id="xrZwqs1FHnrnFmQd6Qyd-108" style="edgeStyle=none;rounded=0;orthogonalLoop=1;jettySize=auto;html=1;entryX=0.5;entryY=1;entryDx=0;entryDy=0;fontSize=17;exitX=0.5;exitY=0;exitDx=0;exitDy=0;" edge="1" parent="1" source="xrZwqs1FHnrnFmQd6Qyd-109" target="xrZwqs1FHnrnFmQd6Qyd-5">
          <mxGeometry relative="1" as="geometry" />
        </mxCell>
        <mxCell id="xrZwqs1FHnrnFmQd6Qyd-109" value="Betonknacker, Betonbeißer&lt;br&gt;&lt;b&gt;D.1.85&lt;/b&gt;" style="rounded=0;whiteSpace=wrap;html=1;fontSize=17;align=center;fillColor=#dae8fc;strokeColor=#6c8ebf;" vertex="1" parent="1">
          <mxGeometry x="2411" y="3090" width="120" height="60" as="geometry" />
        </mxCell>
        <mxCell id="xrZwqs1FHnrnFmQd6Qyd-110" style="edgeStyle=none;rounded=0;orthogonalLoop=1;jettySize=auto;html=1;fontSize=17;exitX=0.5;exitY=0;exitDx=0;exitDy=0;" edge="1" parent="1" source="xrZwqs1FHnrnFmQd6Qyd-111">
          <mxGeometry relative="1" as="geometry">
            <mxPoint x="2631" y="2860" as="targetPoint" />
          </mxGeometry>
        </mxCell>
        <mxCell id="xrZwqs1FHnrnFmQd6Qyd-111" value="Kombi-abbruchschere&lt;br&gt;&lt;b&gt;D.1.87&lt;/b&gt;" style="rounded=0;whiteSpace=wrap;html=1;fontSize=17;align=center;fillColor=#dae8fc;strokeColor=#6c8ebf;" vertex="1" parent="1">
          <mxGeometry x="2551" y="3090" width="120" height="60" as="geometry" />
        </mxCell>
        <mxCell id="xrZwqs1FHnrnFmQd6Qyd-112" style="edgeStyle=none;rounded=0;orthogonalLoop=1;jettySize=auto;html=1;fontSize=17;entryX=0.5;entryY=1;entryDx=0;entryDy=0;exitX=0.5;exitY=0;exitDx=0;exitDy=0;" edge="1" parent="1" source="xrZwqs1FHnrnFmQd6Qyd-113" target="xrZwqs1FHnrnFmQd6Qyd-5">
          <mxGeometry relative="1" as="geometry">
            <mxPoint x="2631" y="2870" as="targetPoint" />
          </mxGeometry>
        </mxCell>
        <mxCell id="xrZwqs1FHnrnFmQd6Qyd-113" value="Schrottschere&lt;br&gt;&lt;b&gt;D.1.86&lt;/b&gt;" style="rounded=0;whiteSpace=wrap;html=1;fontSize=17;align=center;fillColor=#dae8fc;strokeColor=#6c8ebf;" vertex="1" parent="1">
          <mxGeometry x="2691" y="3090" width="120" height="60" as="geometry" />
        </mxCell>
        <mxCell id="xrZwqs1FHnrnFmQd6Qyd-114" style="edgeStyle=none;rounded=0;orthogonalLoop=1;jettySize=auto;html=1;entryX=0.5;entryY=1;entryDx=0;entryDy=0;fontSize=17;exitX=0.5;exitY=0;exitDx=0;exitDy=0;" edge="1" parent="1" source="xrZwqs1FHnrnFmQd6Qyd-115" target="xrZwqs1FHnrnFmQd6Qyd-5">
          <mxGeometry relative="1" as="geometry" />
        </mxCell>
        <mxCell id="xrZwqs1FHnrnFmQd6Qyd-115" value="Aufreißzahn&lt;br&gt;&lt;b&gt;D.1.83&lt;/b&gt;" style="rounded=0;whiteSpace=wrap;html=1;fontSize=17;align=center;fillColor=#dae8fc;strokeColor=#6c8ebf;" vertex="1" parent="1">
          <mxGeometry x="2831" y="3090" width="120" height="60" as="geometry" />
        </mxCell>
        <mxCell id="xrZwqs1FHnrnFmQd6Qyd-116" style="edgeStyle=none;rounded=0;orthogonalLoop=1;jettySize=auto;html=1;entryX=1;entryY=0.75;entryDx=0;entryDy=0;fontSize=17;exitX=0.5;exitY=0;exitDx=0;exitDy=0;" edge="1" parent="1" source="xrZwqs1FHnrnFmQd6Qyd-117" target="xrZwqs1FHnrnFmQd6Qyd-5">
          <mxGeometry relative="1" as="geometry" />
        </mxCell>
        <mxCell id="xrZwqs1FHnrnFmQd6Qyd-117" value="Spezialgreifer/&lt;br&gt;Mehrschalen-greifer&lt;br&gt;&lt;b&gt;D.1.64&lt;/b&gt;" style="rounded=0;whiteSpace=wrap;html=1;fontSize=17;align=center;fillColor=#dae8fc;strokeColor=#6c8ebf;" vertex="1" parent="1">
          <mxGeometry x="2971" y="3090" width="120" height="90" as="geometry" />
        </mxCell>
        <mxCell id="xrZwqs1FHnrnFmQd6Qyd-118" style="edgeStyle=none;rounded=0;orthogonalLoop=1;jettySize=auto;html=1;entryX=1;entryY=0.75;entryDx=0;entryDy=0;fontSize=17;exitX=0;exitY=0;exitDx=0;exitDy=0;" edge="1" parent="1" source="xrZwqs1FHnrnFmQd6Qyd-119" target="xrZwqs1FHnrnFmQd6Qyd-5">
          <mxGeometry relative="1" as="geometry" />
        </mxCell>
        <mxCell id="xrZwqs1FHnrnFmQd6Qyd-119" value="Anbau-vibrationsplatte&lt;br&gt;&lt;b&gt;D.8.80&lt;/b&gt;" style="rounded=0;whiteSpace=wrap;html=1;fontSize=17;align=center;fillColor=#dae8fc;strokeColor=#6c8ebf;" vertex="1" parent="1">
          <mxGeometry x="3121" y="3090" width="120" height="60" as="geometry" />
        </mxCell>
        <mxCell id="xrZwqs1FHnrnFmQd6Qyd-120" style="edgeStyle=none;rounded=0;orthogonalLoop=1;jettySize=auto;html=1;fontSize=17;entryX=1;entryY=0.75;entryDx=0;entryDy=0;exitX=0;exitY=0.5;exitDx=0;exitDy=0;" edge="1" parent="1" source="xrZwqs1FHnrnFmQd6Qyd-121" target="xrZwqs1FHnrnFmQd6Qyd-5">
          <mxGeometry relative="1" as="geometry">
            <mxPoint x="2921" y="2760" as="targetPoint" />
          </mxGeometry>
        </mxCell>
        <mxCell id="xrZwqs1FHnrnFmQd6Qyd-121" value="Sortier- und abbruchgreifer&lt;br&gt;&lt;b&gt;D.1.84&lt;/b&gt;" style="rounded=0;whiteSpace=wrap;html=1;fontSize=17;align=center;fillColor=#dae8fc;strokeColor=#6c8ebf;" vertex="1" parent="1">
          <mxGeometry x="3121" y="3010" width="120" height="60" as="geometry" />
        </mxCell>
        <mxCell id="xrZwqs1FHnrnFmQd6Qyd-122" style="edgeStyle=none;rounded=0;orthogonalLoop=1;jettySize=auto;html=1;entryX=1;entryY=0.5;entryDx=0;entryDy=0;fontSize=17;exitX=0;exitY=0.5;exitDx=0;exitDy=0;" edge="1" parent="1" source="xrZwqs1FHnrnFmQd6Qyd-123" target="xrZwqs1FHnrnFmQd6Qyd-5">
          <mxGeometry relative="1" as="geometry" />
        </mxCell>
        <mxCell id="xrZwqs1FHnrnFmQd6Qyd-123" value="Ladeschaufel&lt;br&gt;&lt;b&gt;D.1.66&lt;/b&gt;" style="rounded=0;whiteSpace=wrap;html=1;fontSize=17;align=center;fillColor=#dae8fc;strokeColor=#6c8ebf;" vertex="1" parent="1">
          <mxGeometry x="3121" y="2930" width="120" height="60" as="geometry" />
        </mxCell>
        <mxCell id="xrZwqs1FHnrnFmQd6Qyd-124" style="edgeStyle=none;rounded=0;orthogonalLoop=1;jettySize=auto;html=1;entryX=1;entryY=0.5;entryDx=0;entryDy=0;fontSize=17;exitX=0;exitY=0.5;exitDx=0;exitDy=0;" edge="1" parent="1" source="xrZwqs1FHnrnFmQd6Qyd-125" target="xrZwqs1FHnrnFmQd6Qyd-5">
          <mxGeometry relative="1" as="geometry" />
        </mxCell>
        <mxCell id="xrZwqs1FHnrnFmQd6Qyd-125" value="Abbruch-ausrüstung" style="rounded=0;whiteSpace=wrap;html=1;fontSize=17;align=center;fillColor=#dae8fc;strokeColor=#6c8ebf;" vertex="1" parent="1">
          <mxGeometry x="3121" y="2850" width="120" height="60" as="geometry" />
        </mxCell>
        <mxCell id="xrZwqs1FHnrnFmQd6Qyd-126" style="edgeStyle=none;rounded=0;orthogonalLoop=1;jettySize=auto;html=1;entryX=1;entryY=0.5;entryDx=0;entryDy=0;fontSize=17;exitX=0;exitY=0.5;exitDx=0;exitDy=0;" edge="1" parent="1" source="xrZwqs1FHnrnFmQd6Qyd-127" target="xrZwqs1FHnrnFmQd6Qyd-5">
          <mxGeometry relative="1" as="geometry" />
        </mxCell>
        <mxCell id="xrZwqs1FHnrnFmQd6Qyd-127" value="Klappschaufel&lt;br&gt;&lt;b&gt;D.1.65&lt;/b&gt;" style="rounded=0;whiteSpace=wrap;html=1;fontSize=17;align=center;fillColor=#dae8fc;strokeColor=#6c8ebf;" vertex="1" parent="1">
          <mxGeometry x="3121" y="2770" width="120" height="60" as="geometry" />
        </mxCell>
        <mxCell id="xrZwqs1FHnrnFmQd6Qyd-128" style="edgeStyle=none;rounded=0;orthogonalLoop=1;jettySize=auto;html=1;entryX=1;entryY=0.5;entryDx=0;entryDy=0;fontSize=17;exitX=0;exitY=0.5;exitDx=0;exitDy=0;" edge="1" parent="1" source="xrZwqs1FHnrnFmQd6Qyd-129" target="xrZwqs1FHnrnFmQd6Qyd-5">
          <mxGeometry relative="1" as="geometry" />
        </mxCell>
        <mxCell id="xrZwqs1FHnrnFmQd6Qyd-129" value="Grabgreifer&lt;br&gt;&lt;b&gt;D.1.63&lt;/b&gt;" style="rounded=0;whiteSpace=wrap;html=1;fontSize=17;align=center;fillColor=#dae8fc;strokeColor=#6c8ebf;" vertex="1" parent="1">
          <mxGeometry x="3121" y="2690" width="120" height="60" as="geometry" />
        </mxCell>
        <mxCell id="xrZwqs1FHnrnFmQd6Qyd-130" style="edgeStyle=none;rounded=0;orthogonalLoop=1;jettySize=auto;html=1;entryX=1;entryY=0.25;entryDx=0;entryDy=0;fontSize=17;exitX=0;exitY=0.5;exitDx=0;exitDy=0;" edge="1" parent="1" source="xrZwqs1FHnrnFmQd6Qyd-131" target="xrZwqs1FHnrnFmQd6Qyd-5">
          <mxGeometry relative="1" as="geometry" />
        </mxCell>
        <mxCell id="xrZwqs1FHnrnFmQd6Qyd-131" value="Profillöffel&lt;br&gt;&lt;b&gt;D.1.62&lt;/b&gt;" style="rounded=0;whiteSpace=wrap;html=1;fontSize=17;align=center;fillColor=#dae8fc;strokeColor=#6c8ebf;" vertex="1" parent="1">
          <mxGeometry x="3121" y="2610" width="120" height="60" as="geometry" />
        </mxCell>
        <mxCell id="xrZwqs1FHnrnFmQd6Qyd-132" style="edgeStyle=none;rounded=0;orthogonalLoop=1;jettySize=auto;html=1;entryX=1;entryY=0.25;entryDx=0;entryDy=0;fontSize=17;exitX=0;exitY=0.5;exitDx=0;exitDy=0;" edge="1" parent="1" source="xrZwqs1FHnrnFmQd6Qyd-133" target="xrZwqs1FHnrnFmQd6Qyd-5">
          <mxGeometry relative="1" as="geometry" />
        </mxCell>
        <mxCell id="xrZwqs1FHnrnFmQd6Qyd-133" value="Grabenräum-löffel&lt;br&gt;&lt;b&gt;D.1.61&lt;/b&gt;" style="rounded=0;whiteSpace=wrap;html=1;fontSize=17;align=center;fillColor=#dae8fc;strokeColor=#6c8ebf;" vertex="1" parent="1">
          <mxGeometry x="3121" y="2530" width="120" height="60" as="geometry" />
        </mxCell>
        <mxCell id="xrZwqs1FHnrnFmQd6Qyd-134" style="edgeStyle=none;rounded=0;orthogonalLoop=1;jettySize=auto;html=1;entryX=1;entryY=0.25;entryDx=0;entryDy=0;fontSize=17;exitX=0;exitY=0.5;exitDx=0;exitDy=0;" edge="1" parent="1" source="xrZwqs1FHnrnFmQd6Qyd-135" target="xrZwqs1FHnrnFmQd6Qyd-5">
          <mxGeometry relative="1" as="geometry" />
        </mxCell>
        <mxCell id="xrZwqs1FHnrnFmQd6Qyd-135" value="Tieflöffel&lt;br&gt;&lt;b&gt;D.1.60&lt;/b&gt;" style="rounded=0;whiteSpace=wrap;html=1;fontSize=17;align=center;fillColor=#dae8fc;strokeColor=#6c8ebf;" vertex="1" parent="1">
          <mxGeometry x="3121" y="2450" width="120" height="60" as="geometry" />
        </mxCell>
        <mxCell id="xrZwqs1FHnrnFmQd6Qyd-136" style="edgeStyle=none;rounded=0;orthogonalLoop=1;jettySize=auto;html=1;entryX=1;entryY=0.5;entryDx=0;entryDy=0;fontSize=17;" edge="1" parent="1" source="xrZwqs1FHnrnFmQd6Qyd-137" target="xrZwqs1FHnrnFmQd6Qyd-135">
          <mxGeometry relative="1" as="geometry" />
        </mxCell>
        <mxCell id="xrZwqs1FHnrnFmQd6Qyd-137" value="1, 2, 3, 4, 5, 6, 9" style="ellipse;whiteSpace=wrap;html=1;aspect=fixed;align=center;" vertex="1" parent="1">
          <mxGeometry x="3331" y="2450" width="60" height="60" as="geometry" />
        </mxCell>
        <mxCell id="xrZwqs1FHnrnFmQd6Qyd-138" style="edgeStyle=none;rounded=0;orthogonalLoop=1;jettySize=auto;html=1;entryX=1;entryY=0.5;entryDx=0;entryDy=0;fontSize=17;" edge="1" parent="1" source="xrZwqs1FHnrnFmQd6Qyd-139" target="xrZwqs1FHnrnFmQd6Qyd-133">
          <mxGeometry relative="1" as="geometry" />
        </mxCell>
        <mxCell id="xrZwqs1FHnrnFmQd6Qyd-139" value="1, 2, 3, 4, 5, 6, 9" style="ellipse;whiteSpace=wrap;html=1;aspect=fixed;align=center;" vertex="1" parent="1">
          <mxGeometry x="3331" y="2530" width="60" height="60" as="geometry" />
        </mxCell>
        <mxCell id="xrZwqs1FHnrnFmQd6Qyd-140" style="edgeStyle=none;rounded=0;orthogonalLoop=1;jettySize=auto;html=1;entryX=1;entryY=0.5;entryDx=0;entryDy=0;fontSize=17;" edge="1" parent="1" source="xrZwqs1FHnrnFmQd6Qyd-141" target="xrZwqs1FHnrnFmQd6Qyd-131">
          <mxGeometry relative="1" as="geometry" />
        </mxCell>
        <mxCell id="xrZwqs1FHnrnFmQd6Qyd-141" value="1, 2, 3, 4, 5, 6, 9" style="ellipse;whiteSpace=wrap;html=1;aspect=fixed;align=center;" vertex="1" parent="1">
          <mxGeometry x="3331" y="2610" width="60" height="60" as="geometry" />
        </mxCell>
        <mxCell id="xrZwqs1FHnrnFmQd6Qyd-142" style="edgeStyle=none;rounded=0;orthogonalLoop=1;jettySize=auto;html=1;entryX=0.5;entryY=1;entryDx=0;entryDy=0;fontSize=17;" edge="1" parent="1" source="xrZwqs1FHnrnFmQd6Qyd-143" target="xrZwqs1FHnrnFmQd6Qyd-103">
          <mxGeometry relative="1" as="geometry" />
        </mxCell>
        <mxCell id="xrZwqs1FHnrnFmQd6Qyd-143" value="2, 3, 4, 5" style="ellipse;whiteSpace=wrap;html=1;aspect=fixed;align=center;" vertex="1" parent="1">
          <mxGeometry x="2021" y="3200" width="60" height="60" as="geometry" />
        </mxCell>
        <mxCell id="xrZwqs1FHnrnFmQd6Qyd-144" style="edgeStyle=none;rounded=0;orthogonalLoop=1;jettySize=auto;html=1;entryX=0.5;entryY=1;entryDx=0;entryDy=0;fontSize=17;" edge="1" parent="1" source="xrZwqs1FHnrnFmQd6Qyd-145" target="xrZwqs1FHnrnFmQd6Qyd-107">
          <mxGeometry relative="1" as="geometry" />
        </mxCell>
        <mxCell id="xrZwqs1FHnrnFmQd6Qyd-145" value="3, 4, 5, 7" style="ellipse;whiteSpace=wrap;html=1;aspect=fixed;align=center;" vertex="1" parent="1">
          <mxGeometry x="2161" y="3200" width="60" height="60" as="geometry" />
        </mxCell>
        <mxCell id="xrZwqs1FHnrnFmQd6Qyd-146" style="edgeStyle=none;rounded=0;orthogonalLoop=1;jettySize=auto;html=1;entryX=0.5;entryY=1;entryDx=0;entryDy=0;fontSize=17;" edge="1" parent="1" source="xrZwqs1FHnrnFmQd6Qyd-147" target="xrZwqs1FHnrnFmQd6Qyd-105">
          <mxGeometry relative="1" as="geometry" />
        </mxCell>
        <mxCell id="xrZwqs1FHnrnFmQd6Qyd-147" value="3, 4, 5, 7, 11" style="ellipse;whiteSpace=wrap;html=1;aspect=fixed;align=center;" vertex="1" parent="1">
          <mxGeometry x="2301" y="3200" width="60" height="60" as="geometry" />
        </mxCell>
        <mxCell id="xrZwqs1FHnrnFmQd6Qyd-148" style="edgeStyle=none;rounded=0;orthogonalLoop=1;jettySize=auto;html=1;entryX=0.5;entryY=1;entryDx=0;entryDy=0;fontSize=17;" edge="1" parent="1" source="xrZwqs1FHnrnFmQd6Qyd-149" target="xrZwqs1FHnrnFmQd6Qyd-109">
          <mxGeometry relative="1" as="geometry" />
        </mxCell>
        <mxCell id="xrZwqs1FHnrnFmQd6Qyd-149" value="5, 12" style="ellipse;whiteSpace=wrap;html=1;aspect=fixed;align=center;" vertex="1" parent="1">
          <mxGeometry x="2441" y="3200" width="60" height="60" as="geometry" />
        </mxCell>
        <mxCell id="xrZwqs1FHnrnFmQd6Qyd-150" style="edgeStyle=none;rounded=0;orthogonalLoop=1;jettySize=auto;html=1;entryX=0.5;entryY=1;entryDx=0;entryDy=0;fontSize=17;" edge="1" parent="1" source="xrZwqs1FHnrnFmQd6Qyd-151" target="xrZwqs1FHnrnFmQd6Qyd-111">
          <mxGeometry relative="1" as="geometry" />
        </mxCell>
        <mxCell id="xrZwqs1FHnrnFmQd6Qyd-151" value="5, 12" style="ellipse;whiteSpace=wrap;html=1;aspect=fixed;align=center;" vertex="1" parent="1">
          <mxGeometry x="2581" y="3200" width="60" height="60" as="geometry" />
        </mxCell>
        <mxCell id="xrZwqs1FHnrnFmQd6Qyd-152" style="edgeStyle=none;rounded=0;orthogonalLoop=1;jettySize=auto;html=1;entryX=1;entryY=0.5;entryDx=0;entryDy=0;fontSize=17;" edge="1" parent="1" source="xrZwqs1FHnrnFmQd6Qyd-153" target="xrZwqs1FHnrnFmQd6Qyd-129">
          <mxGeometry relative="1" as="geometry" />
        </mxCell>
        <mxCell id="xrZwqs1FHnrnFmQd6Qyd-153" value="1, 2, 3, 4, 5, 6, 9" style="ellipse;whiteSpace=wrap;html=1;aspect=fixed;align=center;" vertex="1" parent="1">
          <mxGeometry x="3331" y="2690" width="60" height="60" as="geometry" />
        </mxCell>
        <mxCell id="xrZwqs1FHnrnFmQd6Qyd-154" style="edgeStyle=none;rounded=0;orthogonalLoop=1;jettySize=auto;html=1;entryX=1;entryY=0.5;entryDx=0;entryDy=0;fontSize=17;" edge="1" parent="1" source="xrZwqs1FHnrnFmQd6Qyd-155" target="xrZwqs1FHnrnFmQd6Qyd-127">
          <mxGeometry relative="1" as="geometry" />
        </mxCell>
        <mxCell id="xrZwqs1FHnrnFmQd6Qyd-155" value="1, 2, 3, 4, 5, 6, 9" style="ellipse;whiteSpace=wrap;html=1;aspect=fixed;align=center;" vertex="1" parent="1">
          <mxGeometry x="3331" y="2770" width="60" height="60" as="geometry" />
        </mxCell>
        <mxCell id="xrZwqs1FHnrnFmQd6Qyd-156" style="edgeStyle=none;rounded=0;orthogonalLoop=1;jettySize=auto;html=1;entryX=1;entryY=0.5;entryDx=0;entryDy=0;fontSize=17;" edge="1" parent="1" source="xrZwqs1FHnrnFmQd6Qyd-157" target="xrZwqs1FHnrnFmQd6Qyd-125">
          <mxGeometry relative="1" as="geometry" />
        </mxCell>
        <mxCell id="xrZwqs1FHnrnFmQd6Qyd-157" value="1, 2, 3, 4, 5, 6, 9" style="ellipse;whiteSpace=wrap;html=1;aspect=fixed;align=center;" vertex="1" parent="1">
          <mxGeometry x="3331" y="2850" width="60" height="60" as="geometry" />
        </mxCell>
        <mxCell id="xrZwqs1FHnrnFmQd6Qyd-158" style="edgeStyle=none;rounded=0;orthogonalLoop=1;jettySize=auto;html=1;entryX=1;entryY=0.5;entryDx=0;entryDy=0;fontSize=17;" edge="1" parent="1" source="xrZwqs1FHnrnFmQd6Qyd-159" target="xrZwqs1FHnrnFmQd6Qyd-123">
          <mxGeometry relative="1" as="geometry" />
        </mxCell>
        <mxCell id="xrZwqs1FHnrnFmQd6Qyd-159" value="1, 2, 3, 4, 5, 6, 9" style="ellipse;whiteSpace=wrap;html=1;aspect=fixed;align=center;" vertex="1" parent="1">
          <mxGeometry x="3331" y="2930" width="60" height="60" as="geometry" />
        </mxCell>
        <mxCell id="xrZwqs1FHnrnFmQd6Qyd-160" style="edgeStyle=none;rounded=0;orthogonalLoop=1;jettySize=auto;html=1;entryX=1;entryY=0.5;entryDx=0;entryDy=0;fontSize=17;" edge="1" parent="1" source="xrZwqs1FHnrnFmQd6Qyd-161" target="xrZwqs1FHnrnFmQd6Qyd-121">
          <mxGeometry relative="1" as="geometry" />
        </mxCell>
        <mxCell id="xrZwqs1FHnrnFmQd6Qyd-161" value="&lt;span&gt;3, 4, 5, 7, 12&lt;/span&gt;" style="ellipse;whiteSpace=wrap;html=1;aspect=fixed;align=center;" vertex="1" parent="1">
          <mxGeometry x="3331" y="3010" width="60" height="60" as="geometry" />
        </mxCell>
        <mxCell id="xrZwqs1FHnrnFmQd6Qyd-162" style="edgeStyle=none;rounded=0;orthogonalLoop=1;jettySize=auto;html=1;entryX=0.5;entryY=1;entryDx=0;entryDy=0;fontSize=17;" edge="1" parent="1" source="xrZwqs1FHnrnFmQd6Qyd-163" target="xrZwqs1FHnrnFmQd6Qyd-119">
          <mxGeometry relative="1" as="geometry" />
        </mxCell>
        <mxCell id="xrZwqs1FHnrnFmQd6Qyd-163" value="5, 6, 9, 10" style="ellipse;whiteSpace=wrap;html=1;aspect=fixed;align=center;" vertex="1" parent="1">
          <mxGeometry x="3151" y="3200" width="60" height="60" as="geometry" />
        </mxCell>
        <mxCell id="xrZwqs1FHnrnFmQd6Qyd-164" style="edgeStyle=none;rounded=0;orthogonalLoop=1;jettySize=auto;html=1;fontSize=17;" edge="1" parent="1" source="xrZwqs1FHnrnFmQd6Qyd-165" target="xrZwqs1FHnrnFmQd6Qyd-117">
          <mxGeometry relative="1" as="geometry" />
        </mxCell>
        <mxCell id="xrZwqs1FHnrnFmQd6Qyd-165" value="2, 3, 4, 5, 7" style="ellipse;whiteSpace=wrap;html=1;aspect=fixed;align=center;" vertex="1" parent="1">
          <mxGeometry x="3001" y="3200" width="60" height="60" as="geometry" />
        </mxCell>
        <mxCell id="xrZwqs1FHnrnFmQd6Qyd-166" style="edgeStyle=none;rounded=0;orthogonalLoop=1;jettySize=auto;html=1;entryX=0.5;entryY=1;entryDx=0;entryDy=0;fontSize=17;" edge="1" parent="1" source="xrZwqs1FHnrnFmQd6Qyd-167" target="xrZwqs1FHnrnFmQd6Qyd-115">
          <mxGeometry relative="1" as="geometry" />
        </mxCell>
        <mxCell id="xrZwqs1FHnrnFmQd6Qyd-167" value="5, 9" style="ellipse;whiteSpace=wrap;html=1;aspect=fixed;align=center;" vertex="1" parent="1">
          <mxGeometry x="2861" y="3200" width="60" height="60" as="geometry" />
        </mxCell>
        <mxCell id="xrZwqs1FHnrnFmQd6Qyd-168" style="edgeStyle=none;rounded=0;orthogonalLoop=1;jettySize=auto;html=1;entryX=0.5;entryY=1;entryDx=0;entryDy=0;fontSize=17;" edge="1" parent="1" source="xrZwqs1FHnrnFmQd6Qyd-169" target="xrZwqs1FHnrnFmQd6Qyd-113">
          <mxGeometry relative="1" as="geometry" />
        </mxCell>
        <mxCell id="xrZwqs1FHnrnFmQd6Qyd-169" value="5, 12" style="ellipse;whiteSpace=wrap;html=1;aspect=fixed;align=center;" vertex="1" parent="1">
          <mxGeometry x="2721" y="3200" width="60" height="60" as="geometry" />
        </mxCell>
        <mxCell id="xrZwqs1FHnrnFmQd6Qyd-170" value="Kompaktlader&lt;br&gt;(&amp;lt; 4,0t)&lt;br&gt;&lt;b&gt;D.3.3&lt;/b&gt;" style="rounded=1;whiteSpace=wrap;html=1;fillColor=#fff2cc;strokeColor=#d6b656;" vertex="1" parent="1">
          <mxGeometry x="1331" y="2550" width="120" height="60" as="geometry" />
        </mxCell>
        <mxCell id="xrZwqs1FHnrnFmQd6Qyd-171" style="edgeStyle=none;rounded=0;orthogonalLoop=1;jettySize=auto;html=1;entryX=0;entryY=0.25;entryDx=0;entryDy=0;exitX=1;exitY=0.5;exitDx=0;exitDy=0;" edge="1" parent="1" source="xrZwqs1FHnrnFmQd6Qyd-172" target="xrZwqs1FHnrnFmQd6Qyd-7">
          <mxGeometry relative="1" as="geometry" />
        </mxCell>
        <mxCell id="xrZwqs1FHnrnFmQd6Qyd-172" value="Radlader&lt;br&gt;(&amp;gt; 3,4t)&lt;br&gt;&lt;b&gt;D.3.10&lt;/b&gt;" style="rounded=1;whiteSpace=wrap;html=1;fillColor=#fff2cc;strokeColor=#d6b656;" vertex="1" parent="1">
          <mxGeometry x="1530" y="2090" width="120" height="60" as="geometry" />
        </mxCell>
        <mxCell id="xrZwqs1FHnrnFmQd6Qyd-173" value="Planierraupe/&lt;br&gt;Raddozer&lt;br&gt;&lt;b&gt;D.4&lt;/b&gt;" style="rounded=1;whiteSpace=wrap;html=1;fillColor=#fff2cc;strokeColor=#d6b656;" vertex="1" parent="1">
          <mxGeometry x="2261" y="1745" width="120" height="60" as="geometry" />
        </mxCell>
        <mxCell id="xrZwqs1FHnrnFmQd6Qyd-174" value="Seitenschwenk-/kipp-&lt;br&gt;schaufel" style="rounded=0;whiteSpace=wrap;html=1;align=center;" vertex="1" parent="1">
          <mxGeometry x="1290" y="1910" width="130" height="70" as="geometry" />
        </mxCell>
        <mxCell id="xrZwqs1FHnrnFmQd6Qyd-175" value="Ladegabel" style="rounded=0;whiteSpace=wrap;html=1;align=center;" vertex="1" parent="1">
          <mxGeometry x="1295" y="2000" width="120" height="60" as="geometry" />
        </mxCell>
        <mxCell id="xrZwqs1FHnrnFmQd6Qyd-176" value="Standardschaufel" style="rounded=0;whiteSpace=wrap;html=1;align=center;" vertex="1" parent="1">
          <mxGeometry x="1290" y="2090" width="120" height="60" as="geometry" />
        </mxCell>
        <mxCell id="xrZwqs1FHnrnFmQd6Qyd-177" value="4-in-1-Schaufel" style="rounded=0;whiteSpace=wrap;html=1;align=center;" vertex="1" parent="1">
          <mxGeometry x="1290" y="2180" width="120" height="60" as="geometry" />
        </mxCell>
        <mxCell id="xrZwqs1FHnrnFmQd6Qyd-178" value="Steinschaufel" style="rounded=0;whiteSpace=wrap;html=1;align=center;" vertex="1" parent="1">
          <mxGeometry x="1290" y="2270" width="120" height="60" as="geometry" />
        </mxCell>
        <mxCell id="xrZwqs1FHnrnFmQd6Qyd-179" value="Standardschaufel" style="rounded=0;whiteSpace=wrap;html=1;align=center;" vertex="1" parent="1">
          <mxGeometry x="1111" y="2420" width="120" height="60" as="geometry" />
        </mxCell>
        <mxCell id="xrZwqs1FHnrnFmQd6Qyd-180" value="Hydrl. Klappschaufel" style="rounded=0;whiteSpace=wrap;html=1;align=center;" vertex="1" parent="1">
          <mxGeometry x="1111" y="2500" width="120" height="60" as="geometry" />
        </mxCell>
        <mxCell id="xrZwqs1FHnrnFmQd6Qyd-181" value="Hubstaplereinrichtung" style="rounded=0;whiteSpace=wrap;html=1;align=center;" vertex="1" parent="1">
          <mxGeometry x="1111" y="2580" width="120" height="60" as="geometry" />
        </mxCell>
        <mxCell id="xrZwqs1FHnrnFmQd6Qyd-182" value="Grabenfräse" style="rounded=0;whiteSpace=wrap;html=1;align=center;" vertex="1" parent="1">
          <mxGeometry x="1111" y="2660" width="120" height="60" as="geometry" />
        </mxCell>
        <mxCell id="xrZwqs1FHnrnFmQd6Qyd-183" value="Hobeleinrichtung" style="rounded=0;whiteSpace=wrap;html=1;align=center;" vertex="1" parent="1">
          <mxGeometry x="1111" y="2740" width="120" height="60" as="geometry" />
        </mxCell>
        <mxCell id="xrZwqs1FHnrnFmQd6Qyd-184" value="Vorbaukehreinrichtung" style="rounded=0;whiteSpace=wrap;html=1;align=center;" vertex="1" parent="1">
          <mxGeometry x="1251" y="2740" width="120" height="60" as="geometry" />
        </mxCell>
        <mxCell id="xrZwqs1FHnrnFmQd6Qyd-185" value="Seitenschwenk-/kipp-&lt;br&gt;schaufel" style="rounded=0;whiteSpace=wrap;html=1;align=center;fillColor=#dae8fc;strokeColor=#6c8ebf;" vertex="1" parent="1">
          <mxGeometry x="1290" y="1910" width="130" height="70" as="geometry" />
        </mxCell>
        <mxCell id="xrZwqs1FHnrnFmQd6Qyd-186" value="Ladegabel" style="rounded=0;whiteSpace=wrap;html=1;align=center;fillColor=#dae8fc;strokeColor=#6c8ebf;" vertex="1" parent="1">
          <mxGeometry x="1295" y="2000" width="120" height="60" as="geometry" />
        </mxCell>
        <mxCell id="xrZwqs1FHnrnFmQd6Qyd-187" value="Standardschaufel" style="rounded=0;whiteSpace=wrap;html=1;align=center;fillColor=#dae8fc;strokeColor=#6c8ebf;" vertex="1" parent="1">
          <mxGeometry x="1290" y="2090" width="120" height="60" as="geometry" />
        </mxCell>
        <mxCell id="xrZwqs1FHnrnFmQd6Qyd-188" value="4-in-1-Schaufel" style="rounded=0;whiteSpace=wrap;html=1;align=center;fillColor=#dae8fc;strokeColor=#6c8ebf;" vertex="1" parent="1">
          <mxGeometry x="1290" y="2180" width="120" height="60" as="geometry" />
        </mxCell>
        <mxCell id="xrZwqs1FHnrnFmQd6Qyd-189" value="Steinschaufel" style="rounded=0;whiteSpace=wrap;html=1;align=center;fillColor=#dae8fc;strokeColor=#6c8ebf;" vertex="1" parent="1">
          <mxGeometry x="1290" y="2270" width="120" height="60" as="geometry" />
        </mxCell>
        <mxCell id="xrZwqs1FHnrnFmQd6Qyd-190" value="Standardschaufel" style="rounded=0;whiteSpace=wrap;html=1;align=center;fillColor=#dae8fc;strokeColor=#6c8ebf;" vertex="1" parent="1">
          <mxGeometry x="1111" y="2420" width="120" height="60" as="geometry" />
        </mxCell>
        <mxCell id="xrZwqs1FHnrnFmQd6Qyd-191" value="Hydrl. Klappschaufel" style="rounded=0;whiteSpace=wrap;html=1;align=center;fillColor=#dae8fc;strokeColor=#6c8ebf;" vertex="1" parent="1">
          <mxGeometry x="1111" y="2500" width="120" height="60" as="geometry" />
        </mxCell>
        <mxCell id="xrZwqs1FHnrnFmQd6Qyd-192" value="Hubstaplereinrichtung" style="rounded=0;whiteSpace=wrap;html=1;align=center;fillColor=#dae8fc;strokeColor=#6c8ebf;" vertex="1" parent="1">
          <mxGeometry x="1111" y="2580" width="120" height="60" as="geometry" />
        </mxCell>
        <mxCell id="xrZwqs1FHnrnFmQd6Qyd-193" value="Grabenfräse" style="rounded=0;whiteSpace=wrap;html=1;align=center;fillColor=#dae8fc;strokeColor=#6c8ebf;" vertex="1" parent="1">
          <mxGeometry x="1111" y="2660" width="120" height="60" as="geometry" />
        </mxCell>
        <mxCell id="xrZwqs1FHnrnFmQd6Qyd-194" value="Hobeleinrichtung" style="rounded=0;whiteSpace=wrap;html=1;align=center;fillColor=#dae8fc;strokeColor=#6c8ebf;" vertex="1" parent="1">
          <mxGeometry x="1111" y="2740" width="120" height="60" as="geometry" />
        </mxCell>
        <mxCell id="xrZwqs1FHnrnFmQd6Qyd-195" value="Vorbaukehreinrichtung" style="rounded=0;whiteSpace=wrap;html=1;align=center;fillColor=#dae8fc;strokeColor=#6c8ebf;" vertex="1" parent="1">
          <mxGeometry x="1251" y="2740" width="120" height="60" as="geometry" />
        </mxCell>
        <mxCell id="xrZwqs1FHnrnFmQd6Qyd-196" value="Schild" style="rounded=0;whiteSpace=wrap;html=1;align=center;fillColor=#dae8fc;strokeColor=#6c8ebf;" vertex="1" parent="1">
          <mxGeometry x="2171" y="1615" width="120" height="60" as="geometry" />
        </mxCell>
        <mxCell id="xrZwqs1FHnrnFmQd6Qyd-197" value="Heckaufreißer" style="rounded=0;whiteSpace=wrap;html=1;align=center;fillColor=#dae8fc;strokeColor=#6c8ebf;" vertex="1" parent="1">
          <mxGeometry x="2331" y="1615" width="120" height="60" as="geometry" />
        </mxCell>
        <mxCell id="xrZwqs1FHnrnFmQd6Qyd-198" value="Polygonbandage" style="rounded=0;whiteSpace=wrap;html=1;align=center;fillColor=#dae8fc;strokeColor=#6c8ebf;" vertex="1" parent="1">
          <mxGeometry x="2571" y="1360" width="120" height="60" as="geometry" />
        </mxCell>
        <mxCell id="xrZwqs1FHnrnFmQd6Qyd-199" value="Planierschild" style="rounded=0;whiteSpace=wrap;html=1;align=center;fillColor=#dae8fc;strokeColor=#6c8ebf;" vertex="1" parent="1">
          <mxGeometry x="2731" y="1360" width="120" height="60" as="geometry" />
        </mxCell>
        <mxCell id="xrZwqs1FHnrnFmQd6Qyd-200" value="Kantenandruckgerät" style="rounded=0;whiteSpace=wrap;html=1;align=center;fillColor=#dae8fc;strokeColor=#6c8ebf;" vertex="1" parent="1">
          <mxGeometry x="2881" y="1360" width="120" height="60" as="geometry" />
        </mxCell>
        <mxCell id="xrZwqs1FHnrnFmQd6Qyd-201" value="Stampffuß-/&lt;br&gt;Schaffußwalze" style="rounded=0;whiteSpace=wrap;html=1;align=center;fillColor=#dae8fc;strokeColor=#6c8ebf;" vertex="1" parent="1">
          <mxGeometry x="2881" y="1440" width="120" height="60" as="geometry" />
        </mxCell>
        <mxCell id="xrZwqs1FHnrnFmQd6Qyd-202" value="Splitstreuer" style="rounded=0;whiteSpace=wrap;html=1;align=center;fillColor=#dae8fc;strokeColor=#6c8ebf;" vertex="1" parent="1">
          <mxGeometry x="2881" y="1510" width="120" height="60" as="geometry" />
        </mxCell>
        <mxCell id="xrZwqs1FHnrnFmQd6Qyd-203" value="Felsbrecherbandage" style="rounded=0;whiteSpace=wrap;html=1;align=center;fillColor=#dae8fc;strokeColor=#6c8ebf;" vertex="1" parent="1">
          <mxGeometry x="2881" y="1590" width="120" height="60" as="geometry" />
        </mxCell>
        <mxCell id="xrZwqs1FHnrnFmQd6Qyd-204" value="Anbauplatten" style="rounded=0;whiteSpace=wrap;html=1;align=center;fillColor=#dae8fc;strokeColor=#6c8ebf;" vertex="1" parent="1">
          <mxGeometry x="2881" y="1670" width="120" height="60" as="geometry" />
        </mxCell>
        <mxCell id="xrZwqs1FHnrnFmQd6Qyd-205" style="edgeStyle=none;rounded=0;orthogonalLoop=1;jettySize=auto;html=1;entryX=0.5;entryY=0;entryDx=0;entryDy=0;fontSize=17;" edge="1" parent="1" source="xrZwqs1FHnrnFmQd6Qyd-206" target="xrZwqs1FHnrnFmQd6Qyd-197">
          <mxGeometry relative="1" as="geometry" />
        </mxCell>
        <mxCell id="xrZwqs1FHnrnFmQd6Qyd-206" value="5, 9" style="ellipse;whiteSpace=wrap;html=1;aspect=fixed;align=center;" vertex="1" parent="1">
          <mxGeometry x="2361" y="1495" width="60" height="60" as="geometry" />
        </mxCell>
        <mxCell id="xrZwqs1FHnrnFmQd6Qyd-207" style="edgeStyle=none;rounded=0;orthogonalLoop=1;jettySize=auto;html=1;entryX=0.5;entryY=0;entryDx=0;entryDy=0;fontSize=17;" edge="1" parent="1" source="xrZwqs1FHnrnFmQd6Qyd-208" target="xrZwqs1FHnrnFmQd6Qyd-198">
          <mxGeometry relative="1" as="geometry" />
        </mxCell>
        <mxCell id="xrZwqs1FHnrnFmQd6Qyd-208" value="5, 6, 9, 10" style="ellipse;whiteSpace=wrap;html=1;aspect=fixed;align=center;" vertex="1" parent="1">
          <mxGeometry x="2601" y="1260" width="60" height="60" as="geometry" />
        </mxCell>
        <mxCell id="xrZwqs1FHnrnFmQd6Qyd-209" style="edgeStyle=none;rounded=0;orthogonalLoop=1;jettySize=auto;html=1;fontSize=17;" edge="1" parent="1" source="xrZwqs1FHnrnFmQd6Qyd-210">
          <mxGeometry relative="1" as="geometry">
            <mxPoint x="3001" y="1470.000000000001" as="targetPoint" />
          </mxGeometry>
        </mxCell>
        <mxCell id="xrZwqs1FHnrnFmQd6Qyd-210" value="5, 6, 9, 10" style="ellipse;whiteSpace=wrap;html=1;aspect=fixed;align=center;" vertex="1" parent="1">
          <mxGeometry x="3071" y="1440" width="60" height="60" as="geometry" />
        </mxCell>
        <mxCell id="xrZwqs1FHnrnFmQd6Qyd-211" style="edgeStyle=none;rounded=0;orthogonalLoop=1;jettySize=auto;html=1;entryX=1;entryY=0.5;entryDx=0;entryDy=0;fontSize=17;" edge="1" parent="1" source="xrZwqs1FHnrnFmQd6Qyd-212" target="xrZwqs1FHnrnFmQd6Qyd-203">
          <mxGeometry relative="1" as="geometry" />
        </mxCell>
        <mxCell id="xrZwqs1FHnrnFmQd6Qyd-212" value="5, 6, 9, 10" style="ellipse;whiteSpace=wrap;html=1;aspect=fixed;align=center;" vertex="1" parent="1">
          <mxGeometry x="3071" y="1590" width="60" height="60" as="geometry" />
        </mxCell>
        <mxCell id="xrZwqs1FHnrnFmQd6Qyd-213" style="edgeStyle=none;rounded=0;orthogonalLoop=1;jettySize=auto;html=1;entryX=1;entryY=0.5;entryDx=0;entryDy=0;fontSize=17;" edge="1" parent="1" source="xrZwqs1FHnrnFmQd6Qyd-214" target="xrZwqs1FHnrnFmQd6Qyd-204">
          <mxGeometry relative="1" as="geometry" />
        </mxCell>
        <mxCell id="xrZwqs1FHnrnFmQd6Qyd-214" value="5, 6, 9, 10" style="ellipse;whiteSpace=wrap;html=1;aspect=fixed;align=center;" vertex="1" parent="1">
          <mxGeometry x="3071" y="1670" width="60" height="60" as="geometry" />
        </mxCell>
        <mxCell id="xrZwqs1FHnrnFmQd6Qyd-215" style="edgeStyle=none;rounded=0;orthogonalLoop=1;jettySize=auto;html=1;fontSize=17;exitX=0.5;exitY=1;exitDx=0;exitDy=0;" edge="1" parent="1" source="xrZwqs1FHnrnFmQd6Qyd-216" target="xrZwqs1FHnrnFmQd6Qyd-7">
          <mxGeometry relative="1" as="geometry" />
        </mxCell>
        <mxCell id="xrZwqs1FHnrnFmQd6Qyd-216" value="Baggerlader&lt;br&gt;&lt;b&gt;D.2&lt;/b&gt;" style="rounded=1;whiteSpace=wrap;html=1;fontSize=17;align=center;fillColor=#fff2cc;strokeColor=#d6b656;" vertex="1" parent="1">
          <mxGeometry x="1966" y="1515" width="120" height="60" as="geometry" />
        </mxCell>
        <mxCell id="xrZwqs1FHnrnFmQd6Qyd-217" style="edgeStyle=none;rounded=0;orthogonalLoop=1;jettySize=auto;html=1;entryX=1;entryY=0.25;entryDx=0;entryDy=0;fontSize=17;exitX=0;exitY=0.5;exitDx=0;exitDy=0;" edge="1" parent="1" source="xrZwqs1FHnrnFmQd6Qyd-218" target="xrZwqs1FHnrnFmQd6Qyd-7">
          <mxGeometry relative="1" as="geometry" />
        </mxCell>
        <mxCell id="xrZwqs1FHnrnFmQd6Qyd-218" value="Muldenhinterkipper und Vorderkipper (Dumper)&lt;br&gt;&lt;b&gt;D.6&lt;/b&gt;" style="rounded=1;whiteSpace=wrap;html=1;fontSize=17;align=center;fillColor=#fff2cc;strokeColor=#d6b656;" vertex="1" parent="1">
          <mxGeometry x="2750" y="1980" width="170" height="90" as="geometry" />
        </mxCell>
        <mxCell id="xrZwqs1FHnrnFmQd6Qyd-219" style="edgeStyle=none;rounded=0;orthogonalLoop=1;jettySize=auto;html=1;entryX=0.375;entryY=1;entryDx=0;entryDy=0;fontSize=17;" edge="1" parent="1" source="xrZwqs1FHnrnFmQd6Qyd-220" target="xrZwqs1FHnrnFmQd6Qyd-7">
          <mxGeometry relative="1" as="geometry" />
        </mxCell>
        <mxCell id="xrZwqs1FHnrnFmQd6Qyd-220" value="Grader&lt;br&gt;&lt;b&gt;D.7.0&lt;/b&gt;" style="rounded=1;whiteSpace=wrap;html=1;fontSize=17;align=center;fillColor=#fff2cc;strokeColor=#d6b656;" vertex="1" parent="1">
          <mxGeometry x="1831" y="2615" width="120" height="60" as="geometry" />
        </mxCell>
        <mxCell id="xrZwqs1FHnrnFmQd6Qyd-221" style="edgeStyle=none;rounded=0;orthogonalLoop=1;jettySize=auto;html=1;entryX=1;entryY=0.75;entryDx=0;entryDy=0;exitX=0;exitY=0.5;exitDx=0;exitDy=0;" edge="1" parent="1" source="xrZwqs1FHnrnFmQd6Qyd-222" target="xrZwqs1FHnrnFmQd6Qyd-7">
          <mxGeometry relative="1" as="geometry" />
        </mxCell>
        <mxCell id="xrZwqs1FHnrnFmQd6Qyd-222" value="Frontlader mit Raupenfahrwerk (Laderaupen)&lt;br&gt;&lt;b&gt;D.3.0&lt;/b&gt;" style="rounded=1;whiteSpace=wrap;html=1;fontSize=17;align=center;fillColor=#fff2cc;strokeColor=#d6b656;" vertex="1" parent="1">
          <mxGeometry x="2771" y="2230" width="160" height="90" as="geometry" />
        </mxCell>
        <mxCell id="xrZwqs1FHnrnFmQd6Qyd-223" style="edgeStyle=none;rounded=0;orthogonalLoop=1;jettySize=auto;html=1;entryX=1;entryY=0.5;entryDx=0;entryDy=0;exitX=0;exitY=0.5;exitDx=0;exitDy=0;" edge="1" parent="1" source="xrZwqs1FHnrnFmQd6Qyd-295" target="xrZwqs1FHnrnFmQd6Qyd-222">
          <mxGeometry relative="1" as="geometry">
            <mxPoint x="3031.000000000001" y="2275" as="sourcePoint" />
          </mxGeometry>
        </mxCell>
        <mxCell id="xrZwqs1FHnrnFmQd6Qyd-224" style="edgeStyle=none;rounded=0;orthogonalLoop=1;jettySize=auto;html=1;entryX=1;entryY=0.5;entryDx=0;entryDy=0;exitX=0;exitY=0.5;exitDx=0;exitDy=0;" edge="1" parent="1" source="xrZwqs1FHnrnFmQd6Qyd-225" target="xrZwqs1FHnrnFmQd6Qyd-218">
          <mxGeometry relative="1" as="geometry" />
        </mxCell>
        <mxCell id="xrZwqs1FHnrnFmQd6Qyd-225" value="2, 3, 4, 5" style="ellipse;whiteSpace=wrap;html=1;aspect=fixed;align=center;" vertex="1" parent="1">
          <mxGeometry x="3051" y="1985" width="80" height="80" as="geometry" />
        </mxCell>
        <mxCell id="xrZwqs1FHnrnFmQd6Qyd-226" style="edgeStyle=none;rounded=0;orthogonalLoop=1;jettySize=auto;html=1;entryX=0.5;entryY=1;entryDx=0;entryDy=0;exitX=0.5;exitY=0;exitDx=0;exitDy=0;" edge="1" parent="1" source="xrZwqs1FHnrnFmQd6Qyd-280" target="xrZwqs1FHnrnFmQd6Qyd-220">
          <mxGeometry relative="1" as="geometry">
            <mxPoint x="1891" y="2725" as="sourcePoint" />
          </mxGeometry>
        </mxCell>
        <mxCell id="xrZwqs1FHnrnFmQd6Qyd-227" style="edgeStyle=none;rounded=0;orthogonalLoop=1;jettySize=auto;html=1;entryX=1;entryY=0;entryDx=0;entryDy=0;" edge="1" parent="1" source="xrZwqs1FHnrnFmQd6Qyd-228" target="xrZwqs1FHnrnFmQd6Qyd-3">
          <mxGeometry relative="1" as="geometry" />
        </mxCell>
        <mxCell id="xrZwqs1FHnrnFmQd6Qyd-228" value="Hebezeuge&lt;br&gt;&lt;b&gt;C&lt;/b&gt;" style="shape=hexagon;perimeter=hexagonPerimeter2;whiteSpace=wrap;html=1;fixedSize=1;" vertex="1" parent="1">
          <mxGeometry x="2081" y="560" width="120" height="80" as="geometry" />
        </mxCell>
        <mxCell id="xrZwqs1FHnrnFmQd6Qyd-229" value="Turmdrehkräne&lt;br&gt;&lt;b&gt;C.0&lt;/b&gt;" style="rounded=1;whiteSpace=wrap;html=1;" vertex="1" parent="1">
          <mxGeometry x="2001" y="360" width="120" height="60" as="geometry" />
        </mxCell>
        <mxCell id="xrZwqs1FHnrnFmQd6Qyd-230" value="Mobil-, Auto- und Raupenkrane&lt;br&gt;&lt;b&gt;C.2&lt;/b&gt;" style="rounded=1;whiteSpace=wrap;html=1;" vertex="1" parent="1">
          <mxGeometry x="2156" y="360" width="120" height="60" as="geometry" />
        </mxCell>
        <mxCell id="xrZwqs1FHnrnFmQd6Qyd-231" style="edgeStyle=none;rounded=0;orthogonalLoop=1;jettySize=auto;html=1;entryX=0.5;entryY=1;entryDx=0;entryDy=0;" edge="1" parent="1" source="xrZwqs1FHnrnFmQd6Qyd-232" target="xrZwqs1FHnrnFmQd6Qyd-228">
          <mxGeometry relative="1" as="geometry" />
        </mxCell>
        <mxCell id="xrZwqs1FHnrnFmQd6Qyd-232" value="Teleskoparmstapler&lt;br&gt;&lt;b&gt;C.8.2&lt;/b&gt;" style="rounded=1;whiteSpace=wrap;html=1;fillColor=#fff2cc;strokeColor=#d6b656;" vertex="1" parent="1">
          <mxGeometry x="2201" y="880" width="120" height="60" as="geometry" />
        </mxCell>
        <mxCell id="xrZwqs1FHnrnFmQd6Qyd-233" style="edgeStyle=none;rounded=0;orthogonalLoop=1;jettySize=auto;html=1;entryX=0;entryY=0.5;entryDx=0;entryDy=0;exitX=1;exitY=0.5;exitDx=0;exitDy=0;" edge="1" parent="1" source="xrZwqs1FHnrnFmQd6Qyd-234" target="xrZwqs1FHnrnFmQd6Qyd-232">
          <mxGeometry relative="1" as="geometry" />
        </mxCell>
        <mxCell id="xrZwqs1FHnrnFmQd6Qyd-234" value="3, 4, 5, 7, 8" style="ellipse;whiteSpace=wrap;html=1;aspect=fixed;align=center;" vertex="1" parent="1">
          <mxGeometry x="2031" y="870" width="80" height="80" as="geometry" />
        </mxCell>
        <mxCell id="xrZwqs1FHnrnFmQd6Qyd-235" value="Annahme das Kran zuallererst immer mit Hakenflasche ausgestattet, da manche Hakenflasche besitzen manche nicht und manche keine Angabe dazu haben" style="shape=internalStorage;whiteSpace=wrap;html=1;backgroundOutline=1;" vertex="1" parent="1">
          <mxGeometry x="2653" y="130" width="320" height="180" as="geometry" />
        </mxCell>
        <mxCell id="xrZwqs1FHnrnFmQd6Qyd-236" style="edgeStyle=none;rounded=0;orthogonalLoop=1;jettySize=auto;html=1;entryX=0;entryY=0.5;entryDx=0;entryDy=0;" edge="1" parent="1" source="xrZwqs1FHnrnFmQd6Qyd-237" target="xrZwqs1FHnrnFmQd6Qyd-2">
          <mxGeometry relative="1" as="geometry" />
        </mxCell>
        <mxCell id="xrZwqs1FHnrnFmQd6Qyd-237" value="3, 4, 5, 7, 8, 9, 11, 12" style="ellipse;whiteSpace=wrap;html=1;aspect=fixed;align=center;" vertex="1" parent="1">
          <mxGeometry x="1780" y="350" width="80" height="80" as="geometry" />
        </mxCell>
        <mxCell id="xrZwqs1FHnrnFmQd6Qyd-238" style="edgeStyle=none;rounded=0;orthogonalLoop=1;jettySize=auto;html=1;entryX=0.5;entryY=0;entryDx=0;entryDy=0;exitX=0.5;exitY=1;exitDx=0;exitDy=0;" edge="1" parent="1" source="xrZwqs1FHnrnFmQd6Qyd-239" target="xrZwqs1FHnrnFmQd6Qyd-2">
          <mxGeometry relative="1" as="geometry" />
        </mxCell>
        <mxCell id="xrZwqs1FHnrnFmQd6Qyd-239" value="Steinpritsche&lt;br&gt;&lt;b&gt;C.3.10&lt;/b&gt;" style="rounded=0;whiteSpace=wrap;html=1;fillColor=#dae8fc;strokeColor=#6c8ebf;" vertex="1" parent="1">
          <mxGeometry x="1900" y="130" width="120" height="60" as="geometry" />
        </mxCell>
        <mxCell id="xrZwqs1FHnrnFmQd6Qyd-240" style="edgeStyle=none;rounded=0;orthogonalLoop=1;jettySize=auto;html=1;entryX=0.5;entryY=0;entryDx=0;entryDy=0;exitX=0.5;exitY=1;exitDx=0;exitDy=0;" edge="1" parent="1" source="xrZwqs1FHnrnFmQd6Qyd-241" target="xrZwqs1FHnrnFmQd6Qyd-2">
          <mxGeometry relative="1" as="geometry" />
        </mxCell>
        <mxCell id="xrZwqs1FHnrnFmQd6Qyd-241" value="Palettengabel&lt;br&gt;&lt;b&gt;C.3.11&lt;/b&gt;" style="rounded=0;whiteSpace=wrap;html=1;fillColor=#dae8fc;strokeColor=#6c8ebf;" vertex="1" parent="1">
          <mxGeometry x="2060" y="130" width="120" height="60" as="geometry" />
        </mxCell>
        <mxCell id="xrZwqs1FHnrnFmQd6Qyd-242" style="edgeStyle=none;rounded=0;orthogonalLoop=1;jettySize=auto;html=1;entryX=0.5;entryY=0;entryDx=0;entryDy=0;exitX=0.5;exitY=1;exitDx=0;exitDy=0;" edge="1" parent="1" source="xrZwqs1FHnrnFmQd6Qyd-243" target="xrZwqs1FHnrnFmQd6Qyd-2">
          <mxGeometry relative="1" as="geometry" />
        </mxCell>
        <mxCell id="xrZwqs1FHnrnFmQd6Qyd-243" value="Krantraverse&lt;br&gt;&lt;b&gt;C.3.12&lt;/b&gt;" style="rounded=0;whiteSpace=wrap;html=1;fillColor=#dae8fc;strokeColor=#6c8ebf;" vertex="1" parent="1">
          <mxGeometry x="2211" y="130" width="120" height="60" as="geometry" />
        </mxCell>
        <mxCell id="xrZwqs1FHnrnFmQd6Qyd-244" style="edgeStyle=none;rounded=0;orthogonalLoop=1;jettySize=auto;html=1;entryX=0.5;entryY=0;entryDx=0;entryDy=0;exitX=0.5;exitY=1;exitDx=0;exitDy=0;" edge="1" parent="1" source="xrZwqs1FHnrnFmQd6Qyd-245" target="xrZwqs1FHnrnFmQd6Qyd-2">
          <mxGeometry relative="1" as="geometry" />
        </mxCell>
        <mxCell id="xrZwqs1FHnrnFmQd6Qyd-245" value="Lastaufnahmemittel für Rohre und Fertigteile&lt;br&gt;&lt;b&gt;C.3.14&lt;/b&gt;" style="rounded=0;whiteSpace=wrap;html=1;fillColor=#dae8fc;strokeColor=#6c8ebf;" vertex="1" parent="1">
          <mxGeometry x="2353" y="130" width="120" height="60" as="geometry" />
        </mxCell>
        <mxCell id="xrZwqs1FHnrnFmQd6Qyd-246" style="edgeStyle=none;rounded=0;orthogonalLoop=1;jettySize=auto;html=1;entryX=0.5;entryY=0;entryDx=0;entryDy=0;" edge="1" parent="1" source="xrZwqs1FHnrnFmQd6Qyd-247" target="xrZwqs1FHnrnFmQd6Qyd-278">
          <mxGeometry relative="1" as="geometry" />
        </mxCell>
        <mxCell id="xrZwqs1FHnrnFmQd6Qyd-247" value="2, 3, 4, 5, 9, 11, 12" style="ellipse;whiteSpace=wrap;html=1;aspect=fixed;align=center;" vertex="1" parent="1">
          <mxGeometry x="1761" width="60" height="60" as="geometry" />
        </mxCell>
        <mxCell id="xrZwqs1FHnrnFmQd6Qyd-248" value="3, 4, 5, 7, 9, 12" style="ellipse;whiteSpace=wrap;html=1;aspect=fixed;align=center;" vertex="1" parent="1">
          <mxGeometry x="1930" width="60" height="60" as="geometry" />
        </mxCell>
        <mxCell id="xrZwqs1FHnrnFmQd6Qyd-249" style="edgeStyle=none;rounded=0;orthogonalLoop=1;jettySize=auto;html=1;" edge="1" parent="1" source="xrZwqs1FHnrnFmQd6Qyd-250" target="xrZwqs1FHnrnFmQd6Qyd-241">
          <mxGeometry relative="1" as="geometry" />
        </mxCell>
        <mxCell id="xrZwqs1FHnrnFmQd6Qyd-250" value="3, 4, 5, 7, 8, 12" style="ellipse;whiteSpace=wrap;html=1;aspect=fixed;align=center;" vertex="1" parent="1">
          <mxGeometry x="2090" width="60" height="60" as="geometry" />
        </mxCell>
        <mxCell id="xrZwqs1FHnrnFmQd6Qyd-251" style="edgeStyle=none;rounded=0;orthogonalLoop=1;jettySize=auto;html=1;entryX=0.5;entryY=0;entryDx=0;entryDy=0;" edge="1" parent="1" source="xrZwqs1FHnrnFmQd6Qyd-252" target="xrZwqs1FHnrnFmQd6Qyd-243">
          <mxGeometry relative="1" as="geometry" />
        </mxCell>
        <mxCell id="xrZwqs1FHnrnFmQd6Qyd-252" value="3, 4, 5, 7, 9, 11, 12" style="ellipse;whiteSpace=wrap;html=1;aspect=fixed;align=center;" vertex="1" parent="1">
          <mxGeometry x="2241" width="60" height="60" as="geometry" />
        </mxCell>
        <mxCell id="xrZwqs1FHnrnFmQd6Qyd-253" style="edgeStyle=none;rounded=0;orthogonalLoop=1;jettySize=auto;html=1;entryX=0.5;entryY=0;entryDx=0;entryDy=0;" edge="1" parent="1" source="xrZwqs1FHnrnFmQd6Qyd-254" target="xrZwqs1FHnrnFmQd6Qyd-245">
          <mxGeometry relative="1" as="geometry" />
        </mxCell>
        <mxCell id="xrZwqs1FHnrnFmQd6Qyd-254" value="3, 4, 5, 7, 9, 11, 12" style="ellipse;whiteSpace=wrap;html=1;aspect=fixed;align=center;" vertex="1" parent="1">
          <mxGeometry x="2383" width="60" height="60" as="geometry" />
        </mxCell>
        <mxCell id="xrZwqs1FHnrnFmQd6Qyd-255" style="rounded=0;orthogonalLoop=1;jettySize=auto;html=1;entryX=1;entryY=0.75;entryDx=0;entryDy=0;exitX=0;exitY=0.5;exitDx=0;exitDy=0;" edge="1" parent="1" source="xrZwqs1FHnrnFmQd6Qyd-256" target="xrZwqs1FHnrnFmQd6Qyd-228">
          <mxGeometry relative="1" as="geometry" />
        </mxCell>
        <mxCell id="xrZwqs1FHnrnFmQd6Qyd-256" value="Bauaufzüge&lt;br&gt;&lt;b&gt;C.5&lt;/b&gt;" style="rounded=1;whiteSpace=wrap;html=1;fillColor=#fff2cc;strokeColor=#d6b656;" vertex="1" parent="1">
          <mxGeometry x="2491" y="710" width="120" height="60" as="geometry" />
        </mxCell>
        <mxCell id="xrZwqs1FHnrnFmQd6Qyd-257" style="edgeStyle=none;rounded=0;orthogonalLoop=1;jettySize=auto;html=1;entryX=0.5;entryY=0;entryDx=0;entryDy=0;" edge="1" parent="1" source="xrZwqs1FHnrnFmQd6Qyd-258" target="xrZwqs1FHnrnFmQd6Qyd-3">
          <mxGeometry relative="1" as="geometry" />
        </mxCell>
        <mxCell id="xrZwqs1FHnrnFmQd6Qyd-258" value="Geräte zur Herstellung, Transport und Verteilung von Beton, Mörtel und Putz&lt;br&gt;&lt;b&gt;B&lt;/b&gt;" style="shape=hexagon;perimeter=hexagonPerimeter2;whiteSpace=wrap;html=1;fixedSize=1;" vertex="1" parent="1">
          <mxGeometry x="1370" y="1012.5" width="180" height="90" as="geometry" />
        </mxCell>
        <mxCell id="xrZwqs1FHnrnFmQd6Qyd-259" style="edgeStyle=none;rounded=0;orthogonalLoop=1;jettySize=auto;html=1;entryX=0.5;entryY=0;entryDx=0;entryDy=0;exitX=0.5;exitY=1;exitDx=0;exitDy=0;" edge="1" parent="1" source="xrZwqs1FHnrnFmQd6Qyd-260" target="xrZwqs1FHnrnFmQd6Qyd-258">
          <mxGeometry relative="1" as="geometry" />
        </mxCell>
        <mxCell id="xrZwqs1FHnrnFmQd6Qyd-260" value="Transportmischer&lt;br&gt;&lt;b&gt;B.4.6&lt;/b&gt;" style="rounded=1;whiteSpace=wrap;html=1;fillColor=#fff2cc;strokeColor=#d6b656;" vertex="1" parent="1">
          <mxGeometry x="1399.5" y="900" width="120" height="60" as="geometry" />
        </mxCell>
        <mxCell id="xrZwqs1FHnrnFmQd6Qyd-261" style="edgeStyle=none;rounded=0;orthogonalLoop=1;jettySize=auto;html=1;entryX=1;entryY=0.5;entryDx=0;entryDy=0;exitX=0;exitY=0.5;exitDx=0;exitDy=0;" edge="1" parent="1" source="xrZwqs1FHnrnFmQd6Qyd-262" target="xrZwqs1FHnrnFmQd6Qyd-258">
          <mxGeometry relative="1" as="geometry">
            <mxPoint x="1584" y="1130" as="sourcePoint" />
            <mxPoint x="1908.9999999999995" y="855" as="targetPoint" />
          </mxGeometry>
        </mxCell>
        <mxCell id="xrZwqs1FHnrnFmQd6Qyd-262" value="Autobetonpumpen&lt;br&gt;&lt;b&gt;B.7.6&lt;/b&gt;" style="rounded=1;whiteSpace=wrap;html=1;fillColor=#fff2cc;strokeColor=#d6b656;" vertex="1" parent="1">
          <mxGeometry x="1599" y="1027.5" width="120" height="60" as="geometry" />
        </mxCell>
        <mxCell id="xrZwqs1FHnrnFmQd6Qyd-263" style="edgeStyle=none;rounded=0;orthogonalLoop=1;jettySize=auto;html=1;entryX=0;entryY=0;entryDx=0;entryDy=0;" edge="1" parent="1" source="xrZwqs1FHnrnFmQd6Qyd-264" target="xrZwqs1FHnrnFmQd6Qyd-3">
          <mxGeometry relative="1" as="geometry" />
        </mxCell>
        <mxCell id="xrZwqs1FHnrnFmQd6Qyd-264" value="Ramm- und Ziehgeräte,&lt;br&gt;Geräte für Injektionsarbeiten&lt;br&gt;&lt;b&gt;J&lt;/b&gt;" style="shape=hexagon;perimeter=hexagonPerimeter2;whiteSpace=wrap;html=1;fixedSize=1;" vertex="1" parent="1">
          <mxGeometry x="1086" y="1040" width="200" height="95" as="geometry" />
        </mxCell>
        <mxCell id="xrZwqs1FHnrnFmQd6Qyd-265" style="edgeStyle=none;rounded=0;orthogonalLoop=1;jettySize=auto;html=1;entryX=0.5;entryY=0;entryDx=0;entryDy=0;" edge="1" parent="1" source="xrZwqs1FHnrnFmQd6Qyd-266" target="xrZwqs1FHnrnFmQd6Qyd-264">
          <mxGeometry relative="1" as="geometry" />
        </mxCell>
        <mxCell id="xrZwqs1FHnrnFmQd6Qyd-266" value="Rammen&lt;br&gt;&lt;b&gt;J.0.0&lt;/b&gt;" style="rounded=1;whiteSpace=wrap;html=1;fillColor=#fff2cc;strokeColor=#d6b656;" vertex="1" parent="1">
          <mxGeometry x="1126" y="920" width="120" height="60" as="geometry" />
        </mxCell>
        <mxCell id="xrZwqs1FHnrnFmQd6Qyd-267" style="edgeStyle=none;rounded=0;orthogonalLoop=1;jettySize=auto;html=1;entryX=0.5;entryY=0;entryDx=0;entryDy=0;" edge="1" parent="1" source="xrZwqs1FHnrnFmQd6Qyd-268" target="xrZwqs1FHnrnFmQd6Qyd-262">
          <mxGeometry relative="1" as="geometry">
            <mxPoint x="1714" y="990" as="targetPoint" />
          </mxGeometry>
        </mxCell>
        <mxCell id="xrZwqs1FHnrnFmQd6Qyd-268" value="2, 3, 4, 5, 12, 13" style="ellipse;whiteSpace=wrap;html=1;aspect=fixed;align=center;" vertex="1" parent="1">
          <mxGeometry x="1614" y="890" width="90" height="90" as="geometry" />
        </mxCell>
        <mxCell id="xrZwqs1FHnrnFmQd6Qyd-269" style="rounded=0;orthogonalLoop=1;jettySize=auto;html=1;entryX=0.5;entryY=0;entryDx=0;entryDy=0;" edge="1" parent="1" source="xrZwqs1FHnrnFmQd6Qyd-270" target="xrZwqs1FHnrnFmQd6Qyd-260">
          <mxGeometry relative="1" as="geometry" />
        </mxCell>
        <mxCell id="xrZwqs1FHnrnFmQd6Qyd-270" value="2, 3, 4, 5, 13" style="ellipse;whiteSpace=wrap;html=1;aspect=fixed;align=center;" vertex="1" parent="1">
          <mxGeometry x="1414.5" y="770" width="90" height="90" as="geometry" />
        </mxCell>
        <mxCell id="xrZwqs1FHnrnFmQd6Qyd-271" style="edgeStyle=none;rounded=0;orthogonalLoop=1;jettySize=auto;html=1;entryX=1;entryY=0.5;entryDx=0;entryDy=0;" edge="1" parent="1" source="xrZwqs1FHnrnFmQd6Qyd-272" target="xrZwqs1FHnrnFmQd6Qyd-220">
          <mxGeometry relative="1" as="geometry" />
        </mxCell>
        <mxCell id="xrZwqs1FHnrnFmQd6Qyd-272" value="1, 2, 5, 6, 9" style="ellipse;whiteSpace=wrap;html=1;aspect=fixed;align=center;" vertex="1" parent="1">
          <mxGeometry x="2031" y="2605" width="80" height="80" as="geometry" />
        </mxCell>
        <mxCell id="xrZwqs1FHnrnFmQd6Qyd-273" style="edgeStyle=none;rounded=0;orthogonalLoop=1;jettySize=auto;html=1;entryX=0.5;entryY=1;entryDx=0;entryDy=0;" edge="1" parent="1" source="xrZwqs1FHnrnFmQd6Qyd-274" target="xrZwqs1FHnrnFmQd6Qyd-222">
          <mxGeometry relative="1" as="geometry" />
        </mxCell>
        <mxCell id="xrZwqs1FHnrnFmQd6Qyd-274" value="1, 2, 3, 4, 5, 6, 9" style="ellipse;whiteSpace=wrap;html=1;aspect=fixed;align=center;" vertex="1" parent="1">
          <mxGeometry x="2811" y="2360" width="80" height="80" as="geometry" />
        </mxCell>
        <mxCell id="xrZwqs1FHnrnFmQd6Qyd-275" style="edgeStyle=none;rounded=0;orthogonalLoop=1;jettySize=auto;html=1;entryX=1;entryY=0.5;entryDx=0;entryDy=0;exitX=0;exitY=0.5;exitDx=0;exitDy=0;" edge="1" parent="1" source="xrZwqs1FHnrnFmQd6Qyd-276" target="xrZwqs1FHnrnFmQd6Qyd-256">
          <mxGeometry relative="1" as="geometry" />
        </mxCell>
        <mxCell id="xrZwqs1FHnrnFmQd6Qyd-276" value="3, 4, 5, 7, 8, 12" style="ellipse;whiteSpace=wrap;html=1;aspect=fixed;align=center;" vertex="1" parent="1">
          <mxGeometry x="2691" y="700" width="80" height="80" as="geometry" />
        </mxCell>
        <mxCell id="xrZwqs1FHnrnFmQd6Qyd-277" style="edgeStyle=none;rounded=0;orthogonalLoop=1;jettySize=auto;html=1;entryX=0.5;entryY=0;entryDx=0;entryDy=0;exitX=0.5;exitY=1;exitDx=0;exitDy=0;" edge="1" parent="1" source="xrZwqs1FHnrnFmQd6Qyd-278" target="xrZwqs1FHnrnFmQd6Qyd-2">
          <mxGeometry relative="1" as="geometry" />
        </mxCell>
        <mxCell id="xrZwqs1FHnrnFmQd6Qyd-278" value="Material-Förderkübel&lt;br&gt;&lt;b&gt;C.3.0&lt;/b&gt;" style="rounded=0;whiteSpace=wrap;html=1;fillColor=#dae8fc;strokeColor=#6c8ebf;" vertex="1" parent="1">
          <mxGeometry x="1731" y="130" width="120" height="60" as="geometry" />
        </mxCell>
        <mxCell id="xrZwqs1FHnrnFmQd6Qyd-279" style="edgeStyle=none;rounded=0;orthogonalLoop=1;jettySize=auto;html=1;entryX=0.5;entryY=0;entryDx=0;entryDy=0;" edge="1" parent="1" source="xrZwqs1FHnrnFmQd6Qyd-248" target="xrZwqs1FHnrnFmQd6Qyd-239">
          <mxGeometry relative="1" as="geometry">
            <mxPoint x="1270.745834714956" y="196.103165757866" as="sourcePoint" />
            <mxPoint x="1700" y="140" as="targetPoint" />
          </mxGeometry>
        </mxCell>
        <mxCell id="xrZwqs1FHnrnFmQd6Qyd-280" value="Aufreißer am Scharr" style="rounded=0;whiteSpace=wrap;html=1;fillColor=#dae8fc;strokeColor=#6c8ebf;" vertex="1" parent="1">
          <mxGeometry x="1701" y="2775" width="120" height="60" as="geometry" />
        </mxCell>
        <mxCell id="xrZwqs1FHnrnFmQd6Qyd-281" style="rounded=0;orthogonalLoop=1;jettySize=auto;html=1;entryX=0.5;entryY=1;entryDx=0;entryDy=0;exitX=0.5;exitY=0;exitDx=0;exitDy=0;" edge="1" parent="1" source="xrZwqs1FHnrnFmQd6Qyd-282" target="xrZwqs1FHnrnFmQd6Qyd-220">
          <mxGeometry relative="1" as="geometry" />
        </mxCell>
        <mxCell id="xrZwqs1FHnrnFmQd6Qyd-282" value="Aufreißer hinten" style="rounded=0;whiteSpace=wrap;html=1;fillColor=#dae8fc;strokeColor=#6c8ebf;" vertex="1" parent="1">
          <mxGeometry x="1830" y="2775" width="120" height="60" as="geometry" />
        </mxCell>
        <mxCell id="xrZwqs1FHnrnFmQd6Qyd-283" style="edgeStyle=none;rounded=0;orthogonalLoop=1;jettySize=auto;html=1;entryX=0.5;entryY=1;entryDx=0;entryDy=0;exitX=0.5;exitY=0;exitDx=0;exitDy=0;" edge="1" parent="1" source="xrZwqs1FHnrnFmQd6Qyd-284" target="xrZwqs1FHnrnFmQd6Qyd-220">
          <mxGeometry relative="1" as="geometry" />
        </mxCell>
        <mxCell id="xrZwqs1FHnrnFmQd6Qyd-284" value="Vorbauplanierschild beweglich" style="rounded=0;whiteSpace=wrap;html=1;fillColor=#dae8fc;strokeColor=#6c8ebf;" vertex="1" parent="1">
          <mxGeometry x="1961" y="2775" width="120" height="60" as="geometry" />
        </mxCell>
        <mxCell id="xrZwqs1FHnrnFmQd6Qyd-285" style="edgeStyle=none;rounded=0;orthogonalLoop=1;jettySize=auto;html=1;entryX=0.5;entryY=1;entryDx=0;entryDy=0;" edge="1" parent="1" source="xrZwqs1FHnrnFmQd6Qyd-286" target="xrZwqs1FHnrnFmQd6Qyd-280">
          <mxGeometry relative="1" as="geometry" />
        </mxCell>
        <mxCell id="xrZwqs1FHnrnFmQd6Qyd-286" value="1, 2, 5, 6, 9" style="ellipse;whiteSpace=wrap;html=1;aspect=fixed;align=center;" vertex="1" parent="1">
          <mxGeometry x="1731" y="2880" width="60" height="60" as="geometry" />
        </mxCell>
        <mxCell id="xrZwqs1FHnrnFmQd6Qyd-287" style="edgeStyle=none;rounded=0;orthogonalLoop=1;jettySize=auto;html=1;entryX=0.5;entryY=1;entryDx=0;entryDy=0;" edge="1" parent="1" source="xrZwqs1FHnrnFmQd6Qyd-288" target="xrZwqs1FHnrnFmQd6Qyd-282">
          <mxGeometry relative="1" as="geometry" />
        </mxCell>
        <mxCell id="xrZwqs1FHnrnFmQd6Qyd-288" value="1, 2, 5, 6, 9" style="ellipse;whiteSpace=wrap;html=1;aspect=fixed;align=center;" vertex="1" parent="1">
          <mxGeometry x="1861" y="2880" width="60" height="60" as="geometry" />
        </mxCell>
        <mxCell id="xrZwqs1FHnrnFmQd6Qyd-289" style="edgeStyle=none;rounded=0;orthogonalLoop=1;jettySize=auto;html=1;entryX=0.5;entryY=1;entryDx=0;entryDy=0;" edge="1" parent="1" source="xrZwqs1FHnrnFmQd6Qyd-290" target="xrZwqs1FHnrnFmQd6Qyd-284">
          <mxGeometry relative="1" as="geometry" />
        </mxCell>
        <mxCell id="xrZwqs1FHnrnFmQd6Qyd-290" value="1, 2, 5, 6, 9" style="ellipse;whiteSpace=wrap;html=1;aspect=fixed;align=center;" vertex="1" parent="1">
          <mxGeometry x="1991" y="2880" width="60" height="60" as="geometry" />
        </mxCell>
        <mxCell id="xrZwqs1FHnrnFmQd6Qyd-291" style="edgeStyle=none;rounded=0;orthogonalLoop=1;jettySize=auto;html=1;entryX=1;entryY=0.5;entryDx=0;entryDy=0;exitX=0;exitY=0.5;exitDx=0;exitDy=0;" edge="1" parent="1" source="xrZwqs1FHnrnFmQd6Qyd-293" target="xrZwqs1FHnrnFmQd6Qyd-222">
          <mxGeometry relative="1" as="geometry" />
        </mxCell>
        <mxCell id="xrZwqs1FHnrnFmQd6Qyd-292" style="edgeStyle=orthogonalEdgeStyle;rounded=0;orthogonalLoop=1;jettySize=auto;html=1;entryX=0;entryY=0.5;entryDx=0;entryDy=0;" edge="1" parent="1" source="xrZwqs1FHnrnFmQd6Qyd-293" target="xrZwqs1FHnrnFmQd6Qyd-392">
          <mxGeometry relative="1" as="geometry" />
        </mxCell>
        <mxCell id="xrZwqs1FHnrnFmQd6Qyd-293" value="Heckbagger mit Tieflöffel" style="rounded=0;whiteSpace=wrap;html=1;" vertex="1" parent="1">
          <mxGeometry x="3041" y="2170" width="120" height="60" as="geometry" />
        </mxCell>
        <mxCell id="xrZwqs1FHnrnFmQd6Qyd-294" style="edgeStyle=none;rounded=0;orthogonalLoop=1;jettySize=auto;html=1;entryX=0;entryY=0.5;entryDx=0;entryDy=0;" edge="1" parent="1" source="xrZwqs1FHnrnFmQd6Qyd-295" target="xrZwqs1FHnrnFmQd6Qyd-299">
          <mxGeometry relative="1" as="geometry" />
        </mxCell>
        <mxCell id="xrZwqs1FHnrnFmQd6Qyd-295" value="4 in 1 Schaufel" style="rounded=0;whiteSpace=wrap;html=1;" vertex="1" parent="1">
          <mxGeometry x="3041" y="2245" width="120" height="60" as="geometry" />
        </mxCell>
        <mxCell id="xrZwqs1FHnrnFmQd6Qyd-296" style="edgeStyle=none;rounded=0;orthogonalLoop=1;jettySize=auto;html=1;entryX=1;entryY=0.5;entryDx=0;entryDy=0;exitX=0;exitY=0.5;exitDx=0;exitDy=0;" edge="1" parent="1" source="xrZwqs1FHnrnFmQd6Qyd-298" target="xrZwqs1FHnrnFmQd6Qyd-222">
          <mxGeometry relative="1" as="geometry" />
        </mxCell>
        <mxCell id="xrZwqs1FHnrnFmQd6Qyd-297" style="edgeStyle=orthogonalEdgeStyle;rounded=0;orthogonalLoop=1;jettySize=auto;html=1;entryX=0;entryY=0.5;entryDx=0;entryDy=0;" edge="1" parent="1" source="xrZwqs1FHnrnFmQd6Qyd-298" target="xrZwqs1FHnrnFmQd6Qyd-393">
          <mxGeometry relative="1" as="geometry" />
        </mxCell>
        <mxCell id="xrZwqs1FHnrnFmQd6Qyd-298" value="Heckaufreißer" style="rounded=0;whiteSpace=wrap;html=1;fillColor=#dae8fc;strokeColor=#6c8ebf;" vertex="1" parent="1">
          <mxGeometry x="3041" y="2320" width="120" height="60" as="geometry" />
        </mxCell>
        <mxCell id="xrZwqs1FHnrnFmQd6Qyd-299" value="1, 2, 3, 4, 5, 6, 9" style="ellipse;whiteSpace=wrap;html=1;aspect=fixed;align=center;" vertex="1" parent="1">
          <mxGeometry x="3211" y="2245" width="60" height="60" as="geometry" />
        </mxCell>
        <mxCell id="xrZwqs1FHnrnFmQd6Qyd-300" value="1. DGM&lt;br style=&quot;font-size: 17px&quot;&gt;2. Schüttgut&lt;br style=&quot;font-size: 17px&quot;&gt;3. Masse&lt;br style=&quot;font-size: 17px&quot;&gt;4. Volumen&lt;br style=&quot;font-size: 17px&quot;&gt;5. Position&lt;br style=&quot;font-size: 17px&quot;&gt;6. Oberflächengüte&lt;br style=&quot;font-size: 17px&quot;&gt;7. Stückgut&lt;br style=&quot;font-size: 17px&quot;&gt;8. Ladungsträger&lt;br style=&quot;font-size: 17px&quot;&gt;9. Bodenwerte&lt;br style=&quot;font-size: 17px&quot;&gt;10. Verdichtungsgrad&lt;br style=&quot;font-size: 17px&quot;&gt;11. Anschlagmittel&lt;br style=&quot;font-size: 17px&quot;&gt;12. IFC-Modell&lt;br&gt;13. Temperatur" style="shape=process;whiteSpace=wrap;html=1;backgroundOutline=1;align=left;fontSize=17;spacingLeft=16;" vertex="1" parent="1">
          <mxGeometry x="2821" y="620" width="230" height="280" as="geometry" />
        </mxCell>
        <mxCell id="xrZwqs1FHnrnFmQd6Qyd-301" style="rounded=0;orthogonalLoop=1;jettySize=auto;html=1;entryX=0.5;entryY=0;entryDx=0;entryDy=0;exitX=0.5;exitY=1;exitDx=0;exitDy=0;" edge="1" parent="1" source="xrZwqs1FHnrnFmQd6Qyd-309" target="xrZwqs1FHnrnFmQd6Qyd-216">
          <mxGeometry relative="1" as="geometry">
            <mxPoint x="1896" y="1423" as="sourcePoint" />
          </mxGeometry>
        </mxCell>
        <mxCell id="xrZwqs1FHnrnFmQd6Qyd-302" style="edgeStyle=none;rounded=0;orthogonalLoop=1;jettySize=auto;html=1;entryX=0;entryY=0.5;entryDx=0;entryDy=0;exitX=1;exitY=0.5;exitDx=0;exitDy=0;" edge="1" parent="1" source="xrZwqs1FHnrnFmQd6Qyd-303" target="xrZwqs1FHnrnFmQd6Qyd-216">
          <mxGeometry relative="1" as="geometry" />
        </mxCell>
        <mxCell id="xrZwqs1FHnrnFmQd6Qyd-303" value="Staplereinrichtung&lt;span style=&quot;color: rgba(0 , 0 , 0 , 0) ; font-family: monospace ; font-size: 0px&quot;&gt;%3CmxGraphModel%3E%3Croot%3E%3CmxCell%20id%3D%220%22%2F%3E%3CmxCell%20id%3D%221%22%20parent%3D%220%22%2F%3E%3CmxCell%20id%3D%222%22%20value%3D%224%20in%201%20Klappschaufel%22%20style%3D%22rounded%3D0%3BwhiteSpace%3Dwrap%3Bhtml%3D1%3B%22%20vertex%3D%221%22%20parent%3D%221%22%3E%3CmxGeometry%20x%3D%221911%22%20y%3D%221380%22%20width%3D%22120%22%20height%3D%2260%22%20as%3D%22geometry%22%2F%3E%3C%2FmxCell%3E%3C%2Froot%3E%3C%2FmxGraphModel%3E&lt;/span&gt;" style="rounded=0;whiteSpace=wrap;html=1;" vertex="1" parent="1">
          <mxGeometry x="1786" y="1388.5" width="120" height="60" as="geometry" />
        </mxCell>
        <mxCell id="xrZwqs1FHnrnFmQd6Qyd-304" style="edgeStyle=none;rounded=0;orthogonalLoop=1;jettySize=auto;html=1;entryX=0.5;entryY=0;entryDx=0;entryDy=0;exitX=0.5;exitY=1;exitDx=0;exitDy=0;" edge="1" parent="1" source="xrZwqs1FHnrnFmQd6Qyd-310" target="xrZwqs1FHnrnFmQd6Qyd-216">
          <mxGeometry relative="1" as="geometry">
            <mxPoint x="2026" y="1423" as="sourcePoint" />
          </mxGeometry>
        </mxCell>
        <mxCell id="xrZwqs1FHnrnFmQd6Qyd-305" style="edgeStyle=none;rounded=0;orthogonalLoop=1;jettySize=auto;html=1;entryX=0;entryY=0.5;entryDx=0;entryDy=0;exitX=1;exitY=0.5;exitDx=0;exitDy=0;" edge="1" parent="1" source="xrZwqs1FHnrnFmQd6Qyd-306" target="xrZwqs1FHnrnFmQd6Qyd-216">
          <mxGeometry relative="1" as="geometry" />
        </mxCell>
        <mxCell id="xrZwqs1FHnrnFmQd6Qyd-306" value="Kippschaufel" style="rounded=0;whiteSpace=wrap;html=1;" vertex="1" parent="1">
          <mxGeometry x="1787" y="1463.5" width="120" height="60" as="geometry" />
        </mxCell>
        <mxCell id="xrZwqs1FHnrnFmQd6Qyd-307" style="edgeStyle=none;rounded=0;orthogonalLoop=1;jettySize=auto;html=1;entryX=0;entryY=0.5;entryDx=0;entryDy=0;exitX=1;exitY=0.5;exitDx=0;exitDy=0;" edge="1" parent="1" source="xrZwqs1FHnrnFmQd6Qyd-308" target="xrZwqs1FHnrnFmQd6Qyd-216">
          <mxGeometry relative="1" as="geometry" />
        </mxCell>
        <mxCell id="xrZwqs1FHnrnFmQd6Qyd-308" value="2 Schalengreifer Heck" style="rounded=0;whiteSpace=wrap;html=1;" vertex="1" parent="1">
          <mxGeometry x="1786" y="1541.5" width="120" height="60" as="geometry" />
        </mxCell>
        <mxCell id="xrZwqs1FHnrnFmQd6Qyd-309" value="4 in 1 Klappschaufel" style="rounded=0;whiteSpace=wrap;html=1;fillColor=#fff2cc;strokeColor=#d6b656;" vertex="1" parent="1">
          <mxGeometry x="1906" y="1303" width="120" height="60" as="geometry" />
        </mxCell>
        <mxCell id="xrZwqs1FHnrnFmQd6Qyd-310" value="Tieflöffel Heck" style="rounded=0;whiteSpace=wrap;html=1;fillColor=#fff2cc;strokeColor=#d6b656;" vertex="1" parent="1">
          <mxGeometry x="2036" y="1303" width="120" height="60" as="geometry" />
        </mxCell>
        <mxCell id="xrZwqs1FHnrnFmQd6Qyd-311" style="edgeStyle=none;rounded=0;orthogonalLoop=1;jettySize=auto;html=1;entryX=0;entryY=0.5;entryDx=0;entryDy=0;" edge="1" parent="1" source="xrZwqs1FHnrnFmQd6Qyd-312" target="xrZwqs1FHnrnFmQd6Qyd-308">
          <mxGeometry relative="1" as="geometry" />
        </mxCell>
        <mxCell id="xrZwqs1FHnrnFmQd6Qyd-312" value="1, 2, 3, 4, 5, 6, 7, 9" style="ellipse;whiteSpace=wrap;html=1;aspect=fixed;align=center;" vertex="1" parent="1">
          <mxGeometry x="1685" y="1540" width="60" height="60" as="geometry" />
        </mxCell>
        <mxCell id="xrZwqs1FHnrnFmQd6Qyd-313" style="edgeStyle=none;rounded=0;orthogonalLoop=1;jettySize=auto;html=1;entryX=0;entryY=0.5;entryDx=0;entryDy=0;" edge="1" parent="1" source="xrZwqs1FHnrnFmQd6Qyd-314" target="xrZwqs1FHnrnFmQd6Qyd-306">
          <mxGeometry relative="1" as="geometry" />
        </mxCell>
        <mxCell id="xrZwqs1FHnrnFmQd6Qyd-314" value="1, 2, 3, 4, 5, 6, 9" style="ellipse;whiteSpace=wrap;html=1;aspect=fixed;align=center;" vertex="1" parent="1">
          <mxGeometry x="1685" y="1463.5" width="60" height="60" as="geometry" />
        </mxCell>
        <mxCell id="xrZwqs1FHnrnFmQd6Qyd-315" style="edgeStyle=none;rounded=0;orthogonalLoop=1;jettySize=auto;html=1;entryX=0;entryY=0.5;entryDx=0;entryDy=0;" edge="1" parent="1" source="xrZwqs1FHnrnFmQd6Qyd-316" target="xrZwqs1FHnrnFmQd6Qyd-303">
          <mxGeometry relative="1" as="geometry" />
        </mxCell>
        <mxCell id="xrZwqs1FHnrnFmQd6Qyd-316" value="1, 2, 3, 4, 5, 6, 7, 8, 9" style="ellipse;whiteSpace=wrap;html=1;aspect=fixed;align=center;" vertex="1" parent="1">
          <mxGeometry x="1685" y="1388.5" width="60" height="60" as="geometry" />
        </mxCell>
        <mxCell id="xrZwqs1FHnrnFmQd6Qyd-317" style="edgeStyle=none;rounded=0;orthogonalLoop=1;jettySize=auto;html=1;entryX=0.5;entryY=0;entryDx=0;entryDy=0;" edge="1" parent="1" source="xrZwqs1FHnrnFmQd6Qyd-318" target="xrZwqs1FHnrnFmQd6Qyd-309">
          <mxGeometry relative="1" as="geometry" />
        </mxCell>
        <mxCell id="xrZwqs1FHnrnFmQd6Qyd-318" value="1, 2, 3, 4, 5, 6, 9" style="ellipse;whiteSpace=wrap;html=1;aspect=fixed;align=center;" vertex="1" parent="1">
          <mxGeometry x="1936" y="1200" width="60" height="60" as="geometry" />
        </mxCell>
        <mxCell id="xrZwqs1FHnrnFmQd6Qyd-319" style="edgeStyle=none;rounded=0;orthogonalLoop=1;jettySize=auto;html=1;" edge="1" parent="1">
          <mxGeometry relative="1" as="geometry">
            <mxPoint x="2096" y="1260" as="sourcePoint" />
            <mxPoint x="2095" y="1303" as="targetPoint" />
          </mxGeometry>
        </mxCell>
        <mxCell id="xrZwqs1FHnrnFmQd6Qyd-320" value="1, 2, 3, 4, 5, 6, 9" style="ellipse;whiteSpace=wrap;html=1;aspect=fixed;align=center;" vertex="1" parent="1">
          <mxGeometry x="2066" y="1200" width="60" height="60" as="geometry" />
        </mxCell>
        <mxCell id="xrZwqs1FHnrnFmQd6Qyd-321" style="edgeStyle=orthogonalEdgeStyle;rounded=0;orthogonalLoop=1;jettySize=auto;html=1;entryX=0.5;entryY=0;entryDx=0;entryDy=0;" edge="1" parent="1" source="xrZwqs1FHnrnFmQd6Qyd-322" target="xrZwqs1FHnrnFmQd6Qyd-266">
          <mxGeometry relative="1" as="geometry" />
        </mxCell>
        <mxCell id="xrZwqs1FHnrnFmQd6Qyd-322" value="Rammbären und Zubehör&lt;br&gt;&lt;b&gt;J.1&lt;/b&gt;" style="rounded=0;whiteSpace=wrap;html=1;fillColor=#dae8fc;strokeColor=#6c8ebf;" vertex="1" parent="1">
          <mxGeometry x="1126" y="810" width="120" height="60" as="geometry" />
        </mxCell>
        <mxCell id="xrZwqs1FHnrnFmQd6Qyd-323" style="rounded=0;orthogonalLoop=1;jettySize=auto;html=1;entryX=0.5;entryY=0;entryDx=0;entryDy=0;" edge="1" parent="1" source="xrZwqs1FHnrnFmQd6Qyd-324" target="xrZwqs1FHnrnFmQd6Qyd-322">
          <mxGeometry relative="1" as="geometry" />
        </mxCell>
        <mxCell id="xrZwqs1FHnrnFmQd6Qyd-324" value="1, 5, 6, 9" style="ellipse;whiteSpace=wrap;html=1;aspect=fixed;align=center;" vertex="1" parent="1">
          <mxGeometry x="1156" y="710" width="60" height="60" as="geometry" />
        </mxCell>
        <mxCell id="xrZwqs1FHnrnFmQd6Qyd-325" style="edgeStyle=none;rounded=0;orthogonalLoop=1;jettySize=auto;html=1;exitX=0.5;exitY=0;exitDx=0;exitDy=0;" edge="1" parent="1" source="xrZwqs1FHnrnFmQd6Qyd-326">
          <mxGeometry relative="1" as="geometry">
            <mxPoint x="2260" y="940" as="targetPoint" />
            <mxPoint x="1921" y="990" as="sourcePoint" />
          </mxGeometry>
        </mxCell>
        <mxCell id="xrZwqs1FHnrnFmQd6Qyd-326" value="Lasthaken" style="rounded=0;whiteSpace=wrap;html=1;fillColor=#dae8fc;strokeColor=#6c8ebf;" vertex="1" parent="1">
          <mxGeometry x="1861" y="1020" width="120" height="60" as="geometry" />
        </mxCell>
        <mxCell id="xrZwqs1FHnrnFmQd6Qyd-327" style="edgeStyle=none;rounded=0;orthogonalLoop=1;jettySize=auto;html=1;entryX=0.5;entryY=1;entryDx=0;entryDy=0;" edge="1" parent="1" source="xrZwqs1FHnrnFmQd6Qyd-328" target="xrZwqs1FHnrnFmQd6Qyd-326">
          <mxGeometry relative="1" as="geometry" />
        </mxCell>
        <mxCell id="xrZwqs1FHnrnFmQd6Qyd-328" value="&#xa;&#xa;&lt;span style=&quot;color: rgb(0, 0, 0); font-family: helvetica; font-size: 12px; font-style: normal; font-weight: 400; letter-spacing: normal; text-align: center; text-indent: 0px; text-transform: none; word-spacing: 0px; background-color: rgb(248, 249, 250); display: inline; float: none;&quot;&gt;3, 4, 5, 7, 8, 9, 11&lt;/span&gt;&#xa;&#xa;" style="ellipse;whiteSpace=wrap;html=1;aspect=fixed;align=center;" vertex="1" parent="1">
          <mxGeometry x="1891" y="1110" width="60" height="60" as="geometry" />
        </mxCell>
        <mxCell id="xrZwqs1FHnrnFmQd6Qyd-329" value="" style="edgeStyle=none;rounded=0;orthogonalLoop=1;jettySize=auto;html=1;entryX=0.5;entryY=1;entryDx=0;entryDy=0;exitX=0.5;exitY=0;exitDx=0;exitDy=0;" edge="1" parent="1" source="xrZwqs1FHnrnFmQd6Qyd-330" target="xrZwqs1FHnrnFmQd6Qyd-232">
          <mxGeometry relative="1" as="geometry">
            <mxPoint x="2270" y="950" as="targetPoint" />
          </mxGeometry>
        </mxCell>
        <mxCell id="xrZwqs1FHnrnFmQd6Qyd-330" value="Kranarm" style="rounded=0;whiteSpace=wrap;html=1;fillColor=#dae8fc;strokeColor=#6c8ebf;" vertex="1" parent="1">
          <mxGeometry x="1995" y="1020" width="120" height="60" as="geometry" />
        </mxCell>
        <mxCell id="xrZwqs1FHnrnFmQd6Qyd-331" style="edgeStyle=none;rounded=0;orthogonalLoop=1;jettySize=auto;html=1;entryX=0.5;entryY=1;entryDx=0;entryDy=0;" edge="1" parent="1" source="xrZwqs1FHnrnFmQd6Qyd-332" target="xrZwqs1FHnrnFmQd6Qyd-330">
          <mxGeometry relative="1" as="geometry" />
        </mxCell>
        <mxCell id="xrZwqs1FHnrnFmQd6Qyd-332" value="3, 4, 5, 7, 8, 9, 11" style="ellipse;whiteSpace=wrap;html=1;aspect=fixed;align=center;" vertex="1" parent="1">
          <mxGeometry x="2025" y="1110" width="60" height="60" as="geometry" />
        </mxCell>
        <mxCell id="xrZwqs1FHnrnFmQd6Qyd-333" style="edgeStyle=none;rounded=0;orthogonalLoop=1;jettySize=auto;html=1;entryX=0.5;entryY=1;entryDx=0;entryDy=0;exitX=0.5;exitY=0;exitDx=0;exitDy=0;" edge="1" parent="1" source="xrZwqs1FHnrnFmQd6Qyd-334" target="xrZwqs1FHnrnFmQd6Qyd-232">
          <mxGeometry relative="1" as="geometry" />
        </mxCell>
        <mxCell id="xrZwqs1FHnrnFmQd6Qyd-334" value="Kippschaufel" style="rounded=0;whiteSpace=wrap;html=1;fillColor=#dae8fc;strokeColor=#6c8ebf;" vertex="1" parent="1">
          <mxGeometry x="2129" y="1020" width="120" height="60" as="geometry" />
        </mxCell>
        <mxCell id="xrZwqs1FHnrnFmQd6Qyd-335" style="edgeStyle=none;rounded=0;orthogonalLoop=1;jettySize=auto;html=1;entryX=0.5;entryY=1;entryDx=0;entryDy=0;" edge="1" parent="1" source="xrZwqs1FHnrnFmQd6Qyd-336" target="xrZwqs1FHnrnFmQd6Qyd-334">
          <mxGeometry relative="1" as="geometry" />
        </mxCell>
        <mxCell id="xrZwqs1FHnrnFmQd6Qyd-336" value="1, 2, 3, 4, 5, 6, 9" style="ellipse;whiteSpace=wrap;html=1;aspect=fixed;align=center;" vertex="1" parent="1">
          <mxGeometry x="2160" y="1110" width="60" height="60" as="geometry" />
        </mxCell>
        <mxCell id="xrZwqs1FHnrnFmQd6Qyd-337" style="edgeStyle=none;rounded=0;orthogonalLoop=1;jettySize=auto;html=1;entryX=0.5;entryY=1;entryDx=0;entryDy=0;exitX=0.5;exitY=0;exitDx=0;exitDy=0;" edge="1" parent="1" source="xrZwqs1FHnrnFmQd6Qyd-338" target="xrZwqs1FHnrnFmQd6Qyd-232">
          <mxGeometry relative="1" as="geometry" />
        </mxCell>
        <mxCell id="xrZwqs1FHnrnFmQd6Qyd-338" value="Klappschaufel" style="rounded=0;whiteSpace=wrap;html=1;fillColor=#dae8fc;strokeColor=#6c8ebf;" vertex="1" parent="1">
          <mxGeometry x="2263" y="1020" width="120" height="60" as="geometry" />
        </mxCell>
        <mxCell id="xrZwqs1FHnrnFmQd6Qyd-339" style="edgeStyle=none;rounded=0;orthogonalLoop=1;jettySize=auto;html=1;entryX=0.5;entryY=1;entryDx=0;entryDy=0;" edge="1" parent="1" source="xrZwqs1FHnrnFmQd6Qyd-340" target="xrZwqs1FHnrnFmQd6Qyd-338">
          <mxGeometry relative="1" as="geometry" />
        </mxCell>
        <mxCell id="xrZwqs1FHnrnFmQd6Qyd-340" value="1, 2, 3, 4, 5, 6, 9" style="ellipse;whiteSpace=wrap;html=1;aspect=fixed;align=center;" vertex="1" parent="1">
          <mxGeometry x="2293" y="1110" width="60" height="60" as="geometry" />
        </mxCell>
        <mxCell id="xrZwqs1FHnrnFmQd6Qyd-341" style="edgeStyle=none;rounded=0;orthogonalLoop=1;jettySize=auto;html=1;entryX=0.5;entryY=1;entryDx=0;entryDy=0;exitX=0.5;exitY=0;exitDx=0;exitDy=0;" edge="1" parent="1" source="xrZwqs1FHnrnFmQd6Qyd-342" target="xrZwqs1FHnrnFmQd6Qyd-232">
          <mxGeometry relative="1" as="geometry">
            <mxPoint x="2420" y="990" as="targetPoint" />
          </mxGeometry>
        </mxCell>
        <mxCell id="xrZwqs1FHnrnFmQd6Qyd-342" value="Betonkübel" style="rounded=0;whiteSpace=wrap;html=1;fillColor=#dae8fc;strokeColor=#6c8ebf;" vertex="1" parent="1">
          <mxGeometry x="2399" y="1020" width="120" height="60" as="geometry" />
        </mxCell>
        <mxCell id="xrZwqs1FHnrnFmQd6Qyd-343" style="edgeStyle=none;rounded=0;orthogonalLoop=1;jettySize=auto;html=1;entryX=0.5;entryY=1;entryDx=0;entryDy=0;" edge="1" parent="1" source="xrZwqs1FHnrnFmQd6Qyd-344" target="xrZwqs1FHnrnFmQd6Qyd-342">
          <mxGeometry relative="1" as="geometry" />
        </mxCell>
        <mxCell id="xrZwqs1FHnrnFmQd6Qyd-344" value="2, 3, 4, 5, 9, 11, 12" style="ellipse;whiteSpace=wrap;html=1;aspect=fixed;align=center;" vertex="1" parent="1">
          <mxGeometry x="2430" y="1110" width="60" height="60" as="geometry" />
        </mxCell>
        <mxCell id="xrZwqs1FHnrnFmQd6Qyd-345" style="edgeStyle=none;rounded=0;orthogonalLoop=1;jettySize=auto;html=1;entryX=0.5;entryY=1;entryDx=0;entryDy=0;exitX=0.5;exitY=0;exitDx=0;exitDy=0;" edge="1" parent="1" source="xrZwqs1FHnrnFmQd6Qyd-346" target="xrZwqs1FHnrnFmQd6Qyd-232">
          <mxGeometry relative="1" as="geometry" />
        </mxCell>
        <mxCell id="xrZwqs1FHnrnFmQd6Qyd-346" value="Seilwinde" style="rounded=0;whiteSpace=wrap;html=1;fillColor=#dae8fc;strokeColor=#6c8ebf;" vertex="1" parent="1">
          <mxGeometry x="2533" y="1020" width="120" height="60" as="geometry" />
        </mxCell>
        <mxCell id="xrZwqs1FHnrnFmQd6Qyd-347" style="edgeStyle=none;rounded=0;orthogonalLoop=1;jettySize=auto;html=1;entryX=0.5;entryY=1;entryDx=0;entryDy=0;" edge="1" parent="1" source="xrZwqs1FHnrnFmQd6Qyd-348" target="xrZwqs1FHnrnFmQd6Qyd-346">
          <mxGeometry relative="1" as="geometry" />
        </mxCell>
        <mxCell id="xrZwqs1FHnrnFmQd6Qyd-348" value="3, 5, 9, 11" style="ellipse;whiteSpace=wrap;html=1;aspect=fixed;align=center;" vertex="1" parent="1">
          <mxGeometry x="2563" y="1110" width="60" height="60" as="geometry" />
        </mxCell>
        <mxCell id="xrZwqs1FHnrnFmQd6Qyd-349" style="edgeStyle=none;rounded=0;orthogonalLoop=1;jettySize=auto;html=1;entryX=0;entryY=1;entryDx=0;entryDy=0;" edge="1" parent="1" source="xrZwqs1FHnrnFmQd6Qyd-350" target="xrZwqs1FHnrnFmQd6Qyd-3">
          <mxGeometry relative="1" as="geometry" />
        </mxCell>
        <mxCell id="xrZwqs1FHnrnFmQd6Qyd-350" value="Transportfahrzeuge&lt;br&gt;&lt;b&gt;P&lt;/b&gt;" style="shape=hexagon;perimeter=hexagonPerimeter2;whiteSpace=wrap;html=1;fixedSize=1;" vertex="1" parent="1">
          <mxGeometry x="1020" y="1540" width="200" height="95" as="geometry" />
        </mxCell>
        <mxCell id="xrZwqs1FHnrnFmQd6Qyd-351" style="edgeStyle=none;rounded=0;orthogonalLoop=1;jettySize=auto;html=1;entryX=0;entryY=0.25;entryDx=0;entryDy=0;exitX=1;exitY=0.5;exitDx=0;exitDy=0;" edge="1" parent="1" source="xrZwqs1FHnrnFmQd6Qyd-352" target="xrZwqs1FHnrnFmQd6Qyd-350">
          <mxGeometry relative="1" as="geometry" />
        </mxCell>
        <mxCell id="xrZwqs1FHnrnFmQd6Qyd-352" value="Lastkraftwagen&lt;br&gt;&lt;b&gt;P.2&lt;/b&gt;" style="rounded=1;whiteSpace=wrap;html=1;fillColor=#fff2cc;strokeColor=#d6b656;" vertex="1" parent="1">
          <mxGeometry x="600" y="1410" width="120" height="60" as="geometry" />
        </mxCell>
        <mxCell id="xrZwqs1FHnrnFmQd6Qyd-353" style="edgeStyle=none;rounded=0;orthogonalLoop=1;jettySize=auto;html=1;entryX=0;entryY=0.75;entryDx=0;entryDy=0;" edge="1" parent="1" source="xrZwqs1FHnrnFmQd6Qyd-354" target="xrZwqs1FHnrnFmQd6Qyd-350">
          <mxGeometry relative="1" as="geometry" />
        </mxCell>
        <mxCell id="xrZwqs1FHnrnFmQd6Qyd-354" value="Sattel-Zugmaschine&lt;br&gt;&lt;b&gt;P.3&lt;/b&gt;" style="rounded=1;whiteSpace=wrap;html=1;fillColor=#fff2cc;strokeColor=#d6b656;" vertex="1" parent="1">
          <mxGeometry x="860" y="1765" width="120" height="60" as="geometry" />
        </mxCell>
        <mxCell id="xrZwqs1FHnrnFmQd6Qyd-355" style="edgeStyle=none;rounded=0;orthogonalLoop=1;jettySize=auto;html=1;entryX=0.5;entryY=0;entryDx=0;entryDy=0;exitX=0.5;exitY=1;exitDx=0;exitDy=0;" edge="1" parent="1" source="xrZwqs1FHnrnFmQd6Qyd-356" target="xrZwqs1FHnrnFmQd6Qyd-352">
          <mxGeometry relative="1" as="geometry" />
        </mxCell>
        <mxCell id="xrZwqs1FHnrnFmQd6Qyd-356" value="Hydraulischer Ladekran&lt;br&gt;&lt;b&gt;P.2.20&lt;/b&gt;" style="rounded=0;whiteSpace=wrap;html=1;fillColor=#dae8fc;strokeColor=#6c8ebf;" vertex="1" parent="1">
          <mxGeometry x="830" y="1140" width="120" height="60" as="geometry" />
        </mxCell>
        <mxCell id="xrZwqs1FHnrnFmQd6Qyd-357" style="edgeStyle=none;rounded=0;orthogonalLoop=1;jettySize=auto;html=1;entryX=0;entryY=0.5;entryDx=0;entryDy=0;" edge="1" parent="1" source="xrZwqs1FHnrnFmQd6Qyd-358" target="xrZwqs1FHnrnFmQd6Qyd-366">
          <mxGeometry relative="1" as="geometry" />
        </mxCell>
        <mxCell id="xrZwqs1FHnrnFmQd6Qyd-358" value="2, 3, 4, 5" style="ellipse;whiteSpace=wrap;html=1;aspect=fixed;align=center;" vertex="1" parent="1">
          <mxGeometry x="110" y="1215.5" width="60" height="60" as="geometry" />
        </mxCell>
        <mxCell id="xrZwqs1FHnrnFmQd6Qyd-359" style="edgeStyle=none;rounded=0;orthogonalLoop=1;jettySize=auto;html=1;entryX=0.5;entryY=1;entryDx=0;entryDy=0;" edge="1" parent="1" source="xrZwqs1FHnrnFmQd6Qyd-360" target="xrZwqs1FHnrnFmQd6Qyd-354">
          <mxGeometry relative="1" as="geometry" />
        </mxCell>
        <mxCell id="xrZwqs1FHnrnFmQd6Qyd-360" value="Seilwinde" style="rounded=0;whiteSpace=wrap;html=1;fillColor=#dae8fc;strokeColor=#6c8ebf;" vertex="1" parent="1">
          <mxGeometry x="860" y="1890" width="120" height="60" as="geometry" />
        </mxCell>
        <mxCell id="xrZwqs1FHnrnFmQd6Qyd-361" style="edgeStyle=none;rounded=0;orthogonalLoop=1;jettySize=auto;html=1;entryX=0.5;entryY=0;entryDx=0;entryDy=0;" edge="1" parent="1" source="xrZwqs1FHnrnFmQd6Qyd-362" target="xrZwqs1FHnrnFmQd6Qyd-352">
          <mxGeometry relative="1" as="geometry" />
        </mxCell>
        <mxCell id="xrZwqs1FHnrnFmQd6Qyd-362" value="Seilwinde" style="rounded=0;whiteSpace=wrap;html=1;fillColor=#dae8fc;strokeColor=#6c8ebf;" vertex="1" parent="1">
          <mxGeometry x="685" y="1140" width="120" height="60" as="geometry" />
        </mxCell>
        <mxCell id="xrZwqs1FHnrnFmQd6Qyd-363" style="edgeStyle=none;rounded=0;orthogonalLoop=1;jettySize=auto;html=1;entryX=0;entryY=0.5;entryDx=0;entryDy=0;exitX=1;exitY=0.5;exitDx=0;exitDy=0;" edge="1" parent="1" source="xrZwqs1FHnrnFmQd6Qyd-364" target="xrZwqs1FHnrnFmQd6Qyd-352">
          <mxGeometry relative="1" as="geometry" />
        </mxCell>
        <mxCell id="xrZwqs1FHnrnFmQd6Qyd-364" value="Absetzeinrichtung" style="rounded=0;whiteSpace=wrap;html=1;fillColor=#dae8fc;strokeColor=#6c8ebf;" vertex="1" parent="1">
          <mxGeometry x="260" y="1295.5" width="120" height="60" as="geometry" />
        </mxCell>
        <mxCell id="xrZwqs1FHnrnFmQd6Qyd-365" style="edgeStyle=none;rounded=0;orthogonalLoop=1;jettySize=auto;html=1;entryX=0;entryY=0.5;entryDx=0;entryDy=0;exitX=1;exitY=0.5;exitDx=0;exitDy=0;" edge="1" parent="1" source="xrZwqs1FHnrnFmQd6Qyd-366" target="xrZwqs1FHnrnFmQd6Qyd-352">
          <mxGeometry relative="1" as="geometry" />
        </mxCell>
        <mxCell id="xrZwqs1FHnrnFmQd6Qyd-366" value="Dreiseiten-kippeinrichtung" style="rounded=0;whiteSpace=wrap;html=1;fillColor=#dae8fc;strokeColor=#6c8ebf;" vertex="1" parent="1">
          <mxGeometry x="260" y="1215.5" width="120" height="60" as="geometry" />
        </mxCell>
        <mxCell id="xrZwqs1FHnrnFmQd6Qyd-367" style="edgeStyle=none;rounded=0;orthogonalLoop=1;jettySize=auto;html=1;exitX=0.5;exitY=1;exitDx=0;exitDy=0;entryX=0.5;entryY=0;entryDx=0;entryDy=0;" edge="1" parent="1" source="xrZwqs1FHnrnFmQd6Qyd-368" target="xrZwqs1FHnrnFmQd6Qyd-352">
          <mxGeometry relative="1" as="geometry">
            <mxPoint x="660" y="1400" as="targetPoint" />
          </mxGeometry>
        </mxCell>
        <mxCell id="xrZwqs1FHnrnFmQd6Qyd-368" value="Zweiseiten-kippeinrichtung" style="rounded=0;whiteSpace=wrap;html=1;fillColor=#dae8fc;strokeColor=#6c8ebf;" vertex="1" parent="1">
          <mxGeometry x="540" y="1140" width="120" height="60" as="geometry" />
        </mxCell>
        <mxCell id="xrZwqs1FHnrnFmQd6Qyd-369" style="edgeStyle=none;rounded=0;orthogonalLoop=1;jettySize=auto;html=1;entryX=0;entryY=0.5;entryDx=0;entryDy=0;exitX=1;exitY=0.5;exitDx=0;exitDy=0;" edge="1" parent="1" source="xrZwqs1FHnrnFmQd6Qyd-370" target="xrZwqs1FHnrnFmQd6Qyd-352">
          <mxGeometry relative="1" as="geometry">
            <mxPoint x="390" y="1631" as="sourcePoint" />
          </mxGeometry>
        </mxCell>
        <mxCell id="xrZwqs1FHnrnFmQd6Qyd-370" value="Hakenlift" style="rounded=0;whiteSpace=wrap;html=1;fillColor=#dae8fc;strokeColor=#6c8ebf;" vertex="1" parent="1">
          <mxGeometry x="260" y="1370.5" width="120" height="60" as="geometry" />
        </mxCell>
        <mxCell id="xrZwqs1FHnrnFmQd6Qyd-371" style="edgeStyle=none;rounded=0;orthogonalLoop=1;jettySize=auto;html=1;entryX=0.5;entryY=0;entryDx=0;entryDy=0;exitX=0.5;exitY=1;exitDx=0;exitDy=0;" edge="1" parent="1" source="xrZwqs1FHnrnFmQd6Qyd-372" target="xrZwqs1FHnrnFmQd6Qyd-352">
          <mxGeometry relative="1" as="geometry" />
        </mxCell>
        <mxCell id="xrZwqs1FHnrnFmQd6Qyd-372" value="Silotransport-einrichtung" style="rounded=0;whiteSpace=wrap;html=1;fillColor=#dae8fc;strokeColor=#6c8ebf;" vertex="1" parent="1">
          <mxGeometry x="400" y="1140" width="120" height="60" as="geometry" />
        </mxCell>
        <mxCell id="xrZwqs1FHnrnFmQd6Qyd-373" style="edgeStyle=none;rounded=0;orthogonalLoop=1;jettySize=auto;html=1;entryX=0;entryY=0.5;entryDx=0;entryDy=0;exitX=1;exitY=0.5;exitDx=0;exitDy=0;" edge="1" parent="1" source="xrZwqs1FHnrnFmQd6Qyd-374" target="xrZwqs1FHnrnFmQd6Qyd-352">
          <mxGeometry relative="1" as="geometry" />
        </mxCell>
        <mxCell id="xrZwqs1FHnrnFmQd6Qyd-374" value="Asphaltmulde" style="rounded=0;whiteSpace=wrap;html=1;fillColor=#dae8fc;strokeColor=#6c8ebf;" vertex="1" parent="1">
          <mxGeometry x="260" y="1448" width="120" height="60" as="geometry" />
        </mxCell>
        <mxCell id="xrZwqs1FHnrnFmQd6Qyd-375" style="edgeStyle=none;rounded=0;orthogonalLoop=1;jettySize=auto;html=1;entryX=0.5;entryY=1;entryDx=0;entryDy=0;" edge="1" parent="1" source="xrZwqs1FHnrnFmQd6Qyd-376" target="xrZwqs1FHnrnFmQd6Qyd-360">
          <mxGeometry relative="1" as="geometry" />
        </mxCell>
        <mxCell id="xrZwqs1FHnrnFmQd6Qyd-376" value="3, 5, 9, 11" style="ellipse;whiteSpace=wrap;html=1;aspect=fixed;align=center;" vertex="1" parent="1">
          <mxGeometry x="890" y="1995" width="60" height="60" as="geometry" />
        </mxCell>
        <mxCell id="xrZwqs1FHnrnFmQd6Qyd-377" style="edgeStyle=none;rounded=0;orthogonalLoop=1;jettySize=auto;html=1;entryX=0.5;entryY=0;entryDx=0;entryDy=0;" edge="1" parent="1" source="xrZwqs1FHnrnFmQd6Qyd-378" target="xrZwqs1FHnrnFmQd6Qyd-372">
          <mxGeometry relative="1" as="geometry" />
        </mxCell>
        <mxCell id="xrZwqs1FHnrnFmQd6Qyd-378" value="2, 3, 5, 9" style="ellipse;whiteSpace=wrap;html=1;aspect=fixed;align=center;" vertex="1" parent="1">
          <mxGeometry x="430" y="1027.5" width="60" height="60" as="geometry" />
        </mxCell>
        <mxCell id="xrZwqs1FHnrnFmQd6Qyd-379" style="edgeStyle=none;rounded=0;orthogonalLoop=1;jettySize=auto;html=1;entryX=0.5;entryY=0;entryDx=0;entryDy=0;" edge="1" parent="1" source="xrZwqs1FHnrnFmQd6Qyd-380" target="xrZwqs1FHnrnFmQd6Qyd-368">
          <mxGeometry relative="1" as="geometry" />
        </mxCell>
        <mxCell id="xrZwqs1FHnrnFmQd6Qyd-380" value="2, 3, 4, 5" style="ellipse;whiteSpace=wrap;html=1;aspect=fixed;align=center;" vertex="1" parent="1">
          <mxGeometry x="570" y="1027.5" width="60" height="60" as="geometry" />
        </mxCell>
        <mxCell id="xrZwqs1FHnrnFmQd6Qyd-381" style="edgeStyle=none;rounded=0;orthogonalLoop=1;jettySize=auto;html=1;entryX=0.5;entryY=0;entryDx=0;entryDy=0;" edge="1" parent="1" source="xrZwqs1FHnrnFmQd6Qyd-382" target="xrZwqs1FHnrnFmQd6Qyd-362">
          <mxGeometry relative="1" as="geometry" />
        </mxCell>
        <mxCell id="xrZwqs1FHnrnFmQd6Qyd-382" value="&#xa;&#xa;&lt;span style=&quot;color: rgb(0, 0, 0); font-family: helvetica; font-size: 12px; font-style: normal; font-weight: 400; letter-spacing: normal; text-align: center; text-indent: 0px; text-transform: none; word-spacing: 0px; background-color: rgb(248, 249, 250); display: inline; float: none;&quot;&gt;3, 5, 9, 11&lt;/span&gt;&#xa;&#xa;" style="ellipse;whiteSpace=wrap;html=1;aspect=fixed;align=center;" vertex="1" parent="1">
          <mxGeometry x="715" y="1027.5" width="60" height="60" as="geometry" />
        </mxCell>
        <mxCell id="xrZwqs1FHnrnFmQd6Qyd-383" style="edgeStyle=none;rounded=0;orthogonalLoop=1;jettySize=auto;html=1;entryX=0.5;entryY=0;entryDx=0;entryDy=0;" edge="1" parent="1" source="xrZwqs1FHnrnFmQd6Qyd-384" target="xrZwqs1FHnrnFmQd6Qyd-356">
          <mxGeometry relative="1" as="geometry" />
        </mxCell>
        <mxCell id="xrZwqs1FHnrnFmQd6Qyd-384" value="3, 4, 5, 7, 8, 9, 11" style="ellipse;whiteSpace=wrap;html=1;aspect=fixed;align=center;" vertex="1" parent="1">
          <mxGeometry x="860" y="1027.5" width="60" height="60" as="geometry" />
        </mxCell>
        <mxCell id="xrZwqs1FHnrnFmQd6Qyd-385" style="edgeStyle=none;rounded=0;orthogonalLoop=1;jettySize=auto;html=1;entryX=0;entryY=0.5;entryDx=0;entryDy=0;" edge="1" parent="1" source="xrZwqs1FHnrnFmQd6Qyd-386" target="xrZwqs1FHnrnFmQd6Qyd-374">
          <mxGeometry relative="1" as="geometry" />
        </mxCell>
        <mxCell id="xrZwqs1FHnrnFmQd6Qyd-386" value="2, 3, 4, 5, 13" style="ellipse;whiteSpace=wrap;html=1;aspect=fixed;align=center;" vertex="1" parent="1">
          <mxGeometry x="110" y="1448" width="60" height="60" as="geometry" />
        </mxCell>
        <mxCell id="xrZwqs1FHnrnFmQd6Qyd-387" style="edgeStyle=none;rounded=0;orthogonalLoop=1;jettySize=auto;html=1;entryX=0;entryY=0.5;entryDx=0;entryDy=0;" edge="1" parent="1" source="xrZwqs1FHnrnFmQd6Qyd-388" target="xrZwqs1FHnrnFmQd6Qyd-364">
          <mxGeometry relative="1" as="geometry" />
        </mxCell>
        <mxCell id="xrZwqs1FHnrnFmQd6Qyd-388" value="3, 5, 9" style="ellipse;whiteSpace=wrap;html=1;aspect=fixed;align=center;" vertex="1" parent="1">
          <mxGeometry x="110" y="1295.5" width="60" height="60" as="geometry" />
        </mxCell>
        <mxCell id="xrZwqs1FHnrnFmQd6Qyd-389" style="edgeStyle=none;rounded=0;orthogonalLoop=1;jettySize=auto;html=1;entryX=0;entryY=0.5;entryDx=0;entryDy=0;" edge="1" parent="1" source="xrZwqs1FHnrnFmQd6Qyd-390" target="xrZwqs1FHnrnFmQd6Qyd-370">
          <mxGeometry relative="1" as="geometry" />
        </mxCell>
        <mxCell id="xrZwqs1FHnrnFmQd6Qyd-390" value="3, 5, 9" style="ellipse;whiteSpace=wrap;html=1;aspect=fixed;align=center;" vertex="1" parent="1">
          <mxGeometry x="110" y="1370" width="60" height="60" as="geometry" />
        </mxCell>
        <mxCell id="xrZwqs1FHnrnFmQd6Qyd-391" value="&lt;blockquote style=&quot;margin: 0 0 0 40px ; border: none ; padding: 0px&quot;&gt;&lt;font style=&quot;font-size: 24px&quot;&gt;&lt;u&gt;Szenarien&lt;/u&gt;&lt;/font&gt;&lt;/blockquote&gt;&lt;blockquote style=&quot;margin: 0 0 0 40px ; border: none ; padding: 0px&quot;&gt;&lt;br&gt;&lt;/blockquote&gt;&lt;blockquote style=&quot;text-align: left ; margin: 0px 0px 0px 40px ; border: none ; padding: 0px ; font-size: 20px&quot;&gt;Bauen 4.0 Szenario als Beispiel&lt;/blockquote&gt;&lt;blockquote style=&quot;text-align: left ; margin: 0px 0px 0px 40px ; border: none ; padding: 0px ; font-size: 20px&quot;&gt;- Radlader: Erdbewegung/Verladen (Y-Zyklus)&lt;/blockquote&gt;&lt;blockquote style=&quot;text-align: left ; margin: 0px 0px 0px 40px ; border: none ; padding: 0px ; font-size: 20px&quot;&gt;- Bagger: Aushub eines Loches&lt;/blockquote&gt;&lt;blockquote style=&quot;text-align: left ; margin: 0px 0px 0px 40px ; border: none ; padding: 0px ; font-size: 20px&quot;&gt;- Kran: Einbau einer vorgegossenen Betrontreppe&lt;/blockquote&gt;" style="whiteSpace=wrap;html=1;aspect=fixed;" vertex="1" parent="1">
          <mxGeometry x="60" y="20" width="370" height="370" as="geometry" />
        </mxCell>
        <mxCell id="xrZwqs1FHnrnFmQd6Qyd-392" value="1, 2, 3, 4, 5, 6, 9" style="ellipse;whiteSpace=wrap;html=1;aspect=fixed;align=center;" vertex="1" parent="1">
          <mxGeometry x="3210" y="2170" width="60" height="60" as="geometry" />
        </mxCell>
        <mxCell id="xrZwqs1FHnrnFmQd6Qyd-393" value="1, 2, 3, 4, 5, 6, 9" style="ellipse;whiteSpace=wrap;html=1;aspect=fixed;align=center;" vertex="1" parent="1">
          <mxGeometry x="3210" y="2320" width="60" height="60" as="geometry" />
        </mxCell>
        <mxCell id="xrZwqs1FHnrnFmQd6Qyd-394" value="Heckbagger mit Tieflöffel" style="rounded=0;whiteSpace=wrap;html=1;fillColor=#dae8fc;strokeColor=#6c8ebf;" vertex="1" parent="1">
          <mxGeometry x="3041" y="2170" width="120" height="60" as="geometry" />
        </mxCell>
        <mxCell id="xrZwqs1FHnrnFmQd6Qyd-395" value="4 in 1 Schaufel" style="rounded=0;whiteSpace=wrap;html=1;fillColor=#dae8fc;strokeColor=#6c8ebf;" vertex="1" parent="1">
          <mxGeometry x="3041" y="2245" width="120" height="60" as="geometry" />
        </mxCell>
        <mxCell id="xrZwqs1FHnrnFmQd6Qyd-396" style="edgeStyle=orthogonalEdgeStyle;rounded=0;orthogonalLoop=1;jettySize=auto;html=1;entryX=1;entryY=0.5;entryDx=0;entryDy=0;" edge="1" parent="1" source="xrZwqs1FHnrnFmQd6Qyd-397" target="xrZwqs1FHnrnFmQd6Qyd-216">
          <mxGeometry relative="1" as="geometry" />
        </mxCell>
        <mxCell id="xrZwqs1FHnrnFmQd6Qyd-397" value="1, 2, 3, 4, 5, 6, 9" style="ellipse;whiteSpace=wrap;html=1;aspect=fixed;align=center;" vertex="1" parent="1">
          <mxGeometry x="2115" y="1515" width="60" height="60" as="geometry" />
        </mxCell>
        <mxCell id="xrZwqs1FHnrnFmQd6Qyd-398" value="2 Schalengreifer Heck" style="rounded=0;whiteSpace=wrap;html=1;fillColor=#dae8fc;strokeColor=#6c8ebf;" vertex="1" parent="1">
          <mxGeometry x="1786" y="1541.5" width="120" height="60" as="geometry" />
        </mxCell>
        <mxCell id="xrZwqs1FHnrnFmQd6Qyd-399" value="Kippschaufel" style="rounded=0;whiteSpace=wrap;html=1;fillColor=#dae8fc;strokeColor=#6c8ebf;" vertex="1" parent="1">
          <mxGeometry x="1787" y="1463.5" width="120" height="60" as="geometry" />
        </mxCell>
        <mxCell id="xrZwqs1FHnrnFmQd6Qyd-400" value="Tieflöffel Heck" style="rounded=0;whiteSpace=wrap;html=1;fillColor=#fff2cc;strokeColor=#d6b656;" vertex="1" parent="1">
          <mxGeometry x="2036" y="1303" width="120" height="60" as="geometry" />
        </mxCell>
        <mxCell id="xrZwqs1FHnrnFmQd6Qyd-401" value="4 in 1 Klappschaufel" style="rounded=0;whiteSpace=wrap;html=1;fillColor=#fff2cc;strokeColor=#d6b656;" vertex="1" parent="1">
          <mxGeometry x="1906" y="1303" width="120" height="60" as="geometry" />
        </mxCell>
        <mxCell id="xrZwqs1FHnrnFmQd6Qyd-402" value="Staplereinrichtung&lt;span style=&quot;color: rgba(0 , 0 , 0 , 0) ; font-family: monospace ; font-size: 0px&quot;&gt;%3CmxGraphModel%3E%3Croot%3E%3CmxCell%20id%3D%220%22%2F%3E%3CmxCell%20id%3D%221%22%20parent%3D%220%22%2F%3E%3CmxCell%20id%3D%222%22%20value%3D%224%20in%201%20Klappschaufel%22%20style%3D%22rounded%3D0%3BwhiteSpace%3Dwrap%3Bhtml%3D1%3B%22%20vertex%3D%221%22%20parent%3D%221%22%3E%3CmxGeometry%20x%3D%221911%22%20y%3D%221380%22%20width%3D%22120%22%20height%3D%2260%22%20as%3D%22geometry%22%2F%3E%3C%2FmxCell%3E%3C%2Froot%3E%3C%2FmxGraphModel%3E&lt;/span&gt;" style="rounded=0;whiteSpace=wrap;html=1;" vertex="1" parent="1">
          <mxGeometry x="1786" y="1388.5" width="120" height="60" as="geometry" />
        </mxCell>
        <mxCell id="xrZwqs1FHnrnFmQd6Qyd-403" value="Tieflöffel Heck" style="rounded=0;whiteSpace=wrap;html=1;fillColor=#dae8fc;strokeColor=#6c8ebf;" vertex="1" parent="1">
          <mxGeometry x="2036" y="1303" width="120" height="60" as="geometry" />
        </mxCell>
        <mxCell id="xrZwqs1FHnrnFmQd6Qyd-404" value="4 in 1 Klappschaufel" style="rounded=0;whiteSpace=wrap;html=1;fillColor=#dae8fc;strokeColor=#6c8ebf;" vertex="1" parent="1">
          <mxGeometry x="1906" y="1303" width="120" height="60" as="geometry" />
        </mxCell>
        <mxCell id="xrZwqs1FHnrnFmQd6Qyd-405" value="Staplereinrichtung&lt;span style=&quot;color: rgba(0 , 0 , 0 , 0) ; font-family: monospace ; font-size: 0px&quot;&gt;%3CmxGraphModel%3E%3Croot%3E%3CmxCell%20id%3D%220%22%2F%3E%3CmxCell%20id%3D%221%22%20parent%3D%220%22%2F%3E%3CmxCell%20id%3D%222%22%20value%3D%224%20in%201%20Klappschaufel%22%20style%3D%22rounded%3D0%3BwhiteSpace%3Dwrap%3Bhtml%3D1%3B%22%20vertex%3D%221%22%20parent%3D%221%22%3E%3CmxGeometry%20x%3D%221911%22%20y%3D%221380%22%20width%3D%22120%22%20height%3D%2260%22%20as%3D%22geometry%22%2F%3E%3C%2FmxCell%3E%3C%2Froot%3E%3C%2FmxGraphModel%3E&lt;/span&gt;" style="rounded=0;whiteSpace=wrap;html=1;fillColor=#dae8fc;strokeColor=#6c8ebf;" vertex="1" parent="1">
          <mxGeometry x="1786" y="1388.5" width="120" height="60" as="geometry" />
        </mxCell>
        <mxCell id="xrZwqs1FHnrnFmQd6Qyd-406" style="edgeStyle=orthogonalEdgeStyle;rounded=0;orthogonalLoop=1;jettySize=auto;html=1;entryX=1;entryY=0.5;entryDx=0;entryDy=0;" edge="1" parent="1" source="xrZwqs1FHnrnFmQd6Qyd-407" target="xrZwqs1FHnrnFmQd6Qyd-354">
          <mxGeometry relative="1" as="geometry" />
        </mxCell>
        <mxCell id="xrZwqs1FHnrnFmQd6Qyd-407" value="5" style="ellipse;whiteSpace=wrap;html=1;aspect=fixed;align=center;" vertex="1" parent="1">
          <mxGeometry x="1040" y="1755" width="80" height="80" as="geometry" />
        </mxCell>
        <mxCell id="xrZwqs1FHnrnFmQd6Qyd-408" style="edgeStyle=orthogonalEdgeStyle;rounded=0;orthogonalLoop=1;jettySize=auto;html=1;entryX=0.5;entryY=1;entryDx=0;entryDy=0;" edge="1" parent="1" source="xrZwqs1FHnrnFmQd6Qyd-409" target="xrZwqs1FHnrnFmQd6Qyd-352">
          <mxGeometry relative="1" as="geometry" />
        </mxCell>
        <mxCell id="xrZwqs1FHnrnFmQd6Qyd-409" value="5" style="ellipse;whiteSpace=wrap;html=1;aspect=fixed;align=center;" vertex="1" parent="1">
          <mxGeometry x="620" y="1530" width="80" height="80" as="geometry" />
        </mxCell>
        <mxCell id="xrZwqs1FHnrnFmQd6Qyd-410" value="" style="rounded=1;whiteSpace=wrap;html=1;align=center;fillColor=#fff2cc;strokeColor=#d6b656;" vertex="1" parent="1">
          <mxGeometry x="2401" y="2610" width="460" height="250" as="geometry" />
        </mxCell>
        <mxCell id="xrZwqs1FHnrnFmQd6Qyd-411" value="Minibagger&lt;br&gt;(Ketten, &amp;lt; 36 kW)&lt;br&gt;&lt;b&gt;D.1.02&lt;/b&gt;" style="rounded=1;whiteSpace=wrap;html=1;fillColor=#fff2cc;strokeColor=#d6b656;" vertex="1" parent="1">
          <mxGeometry x="2711" y="2640" width="120" height="60" as="geometry" />
        </mxCell>
        <mxCell id="xrZwqs1FHnrnFmQd6Qyd-412" value="Hydraulikbagger mit Raupenfahrwerk&lt;br&gt;(&amp;gt; 36kW)&lt;br&gt;&lt;b&gt;D.1.03 - D.1.04&lt;/b&gt;" style="rounded=1;whiteSpace=wrap;html=1;fillColor=#fff2cc;strokeColor=#d6b656;" vertex="1" parent="1">
          <mxGeometry x="2571" y="2640" width="120" height="60" as="geometry" />
        </mxCell>
        <mxCell id="xrZwqs1FHnrnFmQd6Qyd-413" value="Hydraulikbagger auf Rädern&lt;br&gt;&lt;b&gt;D.1.05 - D.1.06&lt;/b&gt;" style="rounded=1;whiteSpace=wrap;html=1;fillColor=#fff2cc;strokeColor=#d6b656;" vertex="1" parent="1">
          <mxGeometry x="2431" y="2640" width="120" height="60" as="geometry" />
        </mxCell>
        <mxCell id="xrZwqs1FHnrnFmQd6Qyd-414" style="edgeStyle=none;rounded=0;orthogonalLoop=1;jettySize=auto;html=1;entryX=0.5;entryY=1;entryDx=0;entryDy=0;" edge="1" parent="1" source="xrZwqs1FHnrnFmQd6Qyd-415" target="xrZwqs1FHnrnFmQd6Qyd-411">
          <mxGeometry relative="1" as="geometry" />
        </mxCell>
        <mxCell id="xrZwqs1FHnrnFmQd6Qyd-415" value="1, 2, 5, 9" style="ellipse;whiteSpace=wrap;html=1;aspect=fixed;align=center;" vertex="1" parent="1">
          <mxGeometry x="2731" y="2750" width="80" height="80" as="geometry" />
        </mxCell>
        <mxCell id="xrZwqs1FHnrnFmQd6Qyd-416" style="edgeStyle=none;rounded=0;orthogonalLoop=1;jettySize=auto;html=1;entryX=0.5;entryY=1;entryDx=0;entryDy=0;" edge="1" parent="1" source="xrZwqs1FHnrnFmQd6Qyd-417" target="xrZwqs1FHnrnFmQd6Qyd-412">
          <mxGeometry relative="1" as="geometry" />
        </mxCell>
        <mxCell id="xrZwqs1FHnrnFmQd6Qyd-417" value="1, 2, 5, 9" style="ellipse;whiteSpace=wrap;html=1;aspect=fixed;align=center;" vertex="1" parent="1">
          <mxGeometry x="2591" y="2750" width="80" height="80" as="geometry" />
        </mxCell>
        <mxCell id="xrZwqs1FHnrnFmQd6Qyd-418" style="edgeStyle=none;rounded=0;orthogonalLoop=1;jettySize=auto;html=1;fontSize=17;entryX=0.5;entryY=1;entryDx=0;entryDy=0;exitX=0.5;exitY=0;exitDx=0;exitDy=0;" edge="1" parent="1" source="xrZwqs1FHnrnFmQd6Qyd-419" target="xrZwqs1FHnrnFmQd6Qyd-410">
          <mxGeometry relative="1" as="geometry">
            <mxPoint x="2411" y="2860" as="targetPoint" />
          </mxGeometry>
        </mxCell>
        <mxCell id="xrZwqs1FHnrnFmQd6Qyd-419" value="Brecherlöffel&lt;br&gt;&lt;b&gt;D.1.88&lt;/b&gt;" style="rounded=0;whiteSpace=wrap;html=1;fontSize=17;align=center;fillColor=#dae8fc;strokeColor=#6c8ebf;" vertex="1" parent="1">
          <mxGeometry x="1991" y="3090" width="120" height="60" as="geometry" />
        </mxCell>
        <mxCell id="xrZwqs1FHnrnFmQd6Qyd-420" style="edgeStyle=none;rounded=0;orthogonalLoop=1;jettySize=auto;html=1;fontSize=17;entryX=0.5;entryY=1;entryDx=0;entryDy=0;exitX=0.5;exitY=0;exitDx=0;exitDy=0;" edge="1" parent="1" source="xrZwqs1FHnrnFmQd6Qyd-421" target="xrZwqs1FHnrnFmQd6Qyd-410">
          <mxGeometry relative="1" as="geometry">
            <mxPoint x="2411" y="2850" as="targetPoint" />
          </mxGeometry>
        </mxCell>
        <mxCell id="xrZwqs1FHnrnFmQd6Qyd-421" value="Lasthaken&lt;br&gt;&lt;b&gt;D.1.80&lt;/b&gt;" style="rounded=0;whiteSpace=wrap;html=1;fontSize=17;align=center;fillColor=#dae8fc;strokeColor=#6c8ebf;" vertex="1" parent="1">
          <mxGeometry x="2271" y="3090" width="120" height="60" as="geometry" />
        </mxCell>
        <mxCell id="xrZwqs1FHnrnFmQd6Qyd-422" style="edgeStyle=none;rounded=0;orthogonalLoop=1;jettySize=auto;html=1;fontSize=17;exitX=0.5;exitY=0;exitDx=0;exitDy=0;" edge="1" parent="1" source="xrZwqs1FHnrnFmQd6Qyd-423">
          <mxGeometry relative="1" as="geometry">
            <mxPoint x="2631" y="2860" as="targetPoint" />
          </mxGeometry>
        </mxCell>
        <mxCell id="xrZwqs1FHnrnFmQd6Qyd-423" value="Greifzange&lt;br&gt;&lt;b&gt;D.1.82&lt;/b&gt;" style="rounded=0;whiteSpace=wrap;html=1;fontSize=17;align=center;fillColor=#dae8fc;strokeColor=#6c8ebf;" vertex="1" parent="1">
          <mxGeometry x="2131" y="3090" width="120" height="60" as="geometry" />
        </mxCell>
        <mxCell id="xrZwqs1FHnrnFmQd6Qyd-424" style="edgeStyle=none;rounded=0;orthogonalLoop=1;jettySize=auto;html=1;entryX=0.5;entryY=1;entryDx=0;entryDy=0;fontSize=17;exitX=0.5;exitY=0;exitDx=0;exitDy=0;" edge="1" parent="1" source="xrZwqs1FHnrnFmQd6Qyd-425" target="xrZwqs1FHnrnFmQd6Qyd-410">
          <mxGeometry relative="1" as="geometry" />
        </mxCell>
        <mxCell id="xrZwqs1FHnrnFmQd6Qyd-425" value="Betonknacker, Betonbeißer&lt;br&gt;&lt;b&gt;D.1.85&lt;/b&gt;" style="rounded=0;whiteSpace=wrap;html=1;fontSize=17;align=center;fillColor=#dae8fc;strokeColor=#6c8ebf;" vertex="1" parent="1">
          <mxGeometry x="2411" y="3090" width="120" height="60" as="geometry" />
        </mxCell>
        <mxCell id="xrZwqs1FHnrnFmQd6Qyd-426" style="edgeStyle=none;rounded=0;orthogonalLoop=1;jettySize=auto;html=1;fontSize=17;exitX=0.5;exitY=0;exitDx=0;exitDy=0;" edge="1" parent="1" source="xrZwqs1FHnrnFmQd6Qyd-427">
          <mxGeometry relative="1" as="geometry">
            <mxPoint x="2631" y="2860" as="targetPoint" />
          </mxGeometry>
        </mxCell>
        <mxCell id="xrZwqs1FHnrnFmQd6Qyd-427" value="Kombi-abbruchschere&lt;br&gt;&lt;b&gt;D.1.87&lt;/b&gt;" style="rounded=0;whiteSpace=wrap;html=1;fontSize=17;align=center;fillColor=#dae8fc;strokeColor=#6c8ebf;" vertex="1" parent="1">
          <mxGeometry x="2551" y="3090" width="120" height="60" as="geometry" />
        </mxCell>
        <mxCell id="xrZwqs1FHnrnFmQd6Qyd-428" style="edgeStyle=none;rounded=0;orthogonalLoop=1;jettySize=auto;html=1;fontSize=17;entryX=0.5;entryY=1;entryDx=0;entryDy=0;exitX=0.5;exitY=0;exitDx=0;exitDy=0;" edge="1" parent="1" source="xrZwqs1FHnrnFmQd6Qyd-429" target="xrZwqs1FHnrnFmQd6Qyd-410">
          <mxGeometry relative="1" as="geometry">
            <mxPoint x="2631" y="2870" as="targetPoint" />
          </mxGeometry>
        </mxCell>
        <mxCell id="xrZwqs1FHnrnFmQd6Qyd-429" value="Schrottschere&lt;br&gt;&lt;b&gt;D.1.86&lt;/b&gt;" style="rounded=0;whiteSpace=wrap;html=1;fontSize=17;align=center;fillColor=#dae8fc;strokeColor=#6c8ebf;" vertex="1" parent="1">
          <mxGeometry x="2691" y="3090" width="120" height="60" as="geometry" />
        </mxCell>
        <mxCell id="xrZwqs1FHnrnFmQd6Qyd-430" style="edgeStyle=none;rounded=0;orthogonalLoop=1;jettySize=auto;html=1;entryX=0.5;entryY=1;entryDx=0;entryDy=0;fontSize=17;exitX=0.5;exitY=0;exitDx=0;exitDy=0;" edge="1" parent="1" source="xrZwqs1FHnrnFmQd6Qyd-431" target="xrZwqs1FHnrnFmQd6Qyd-410">
          <mxGeometry relative="1" as="geometry" />
        </mxCell>
        <mxCell id="xrZwqs1FHnrnFmQd6Qyd-431" value="Aufreißzahn&lt;br&gt;&lt;b&gt;D.1.83&lt;/b&gt;" style="rounded=0;whiteSpace=wrap;html=1;fontSize=17;align=center;fillColor=#dae8fc;strokeColor=#6c8ebf;" vertex="1" parent="1">
          <mxGeometry x="2831" y="3090" width="120" height="60" as="geometry" />
        </mxCell>
        <mxCell id="xrZwqs1FHnrnFmQd6Qyd-432" style="edgeStyle=none;rounded=0;orthogonalLoop=1;jettySize=auto;html=1;entryX=1;entryY=0.75;entryDx=0;entryDy=0;fontSize=17;exitX=0.5;exitY=0;exitDx=0;exitDy=0;" edge="1" parent="1" source="xrZwqs1FHnrnFmQd6Qyd-433" target="xrZwqs1FHnrnFmQd6Qyd-410">
          <mxGeometry relative="1" as="geometry" />
        </mxCell>
        <mxCell id="xrZwqs1FHnrnFmQd6Qyd-433" value="Spezialgreifer/&lt;br&gt;Mehrschalen-greifer&lt;br&gt;&lt;b&gt;D.1.64&lt;/b&gt;" style="rounded=0;whiteSpace=wrap;html=1;fontSize=17;align=center;fillColor=#dae8fc;strokeColor=#6c8ebf;" vertex="1" parent="1">
          <mxGeometry x="2971" y="3090" width="120" height="90" as="geometry" />
        </mxCell>
        <mxCell id="xrZwqs1FHnrnFmQd6Qyd-434" style="edgeStyle=none;rounded=0;orthogonalLoop=1;jettySize=auto;html=1;entryX=1;entryY=0.75;entryDx=0;entryDy=0;fontSize=17;exitX=0;exitY=0;exitDx=0;exitDy=0;" edge="1" parent="1" source="xrZwqs1FHnrnFmQd6Qyd-435" target="xrZwqs1FHnrnFmQd6Qyd-410">
          <mxGeometry relative="1" as="geometry" />
        </mxCell>
        <mxCell id="xrZwqs1FHnrnFmQd6Qyd-435" value="Anbau-vibrationsplatte&lt;br&gt;&lt;b&gt;D.8.80&lt;/b&gt;" style="rounded=0;whiteSpace=wrap;html=1;fontSize=17;align=center;fillColor=#dae8fc;strokeColor=#6c8ebf;" vertex="1" parent="1">
          <mxGeometry x="3121" y="3090" width="120" height="60" as="geometry" />
        </mxCell>
        <mxCell id="xrZwqs1FHnrnFmQd6Qyd-436" style="edgeStyle=none;rounded=0;orthogonalLoop=1;jettySize=auto;html=1;fontSize=17;entryX=1;entryY=0.75;entryDx=0;entryDy=0;exitX=0;exitY=0.5;exitDx=0;exitDy=0;" edge="1" parent="1" source="xrZwqs1FHnrnFmQd6Qyd-437" target="xrZwqs1FHnrnFmQd6Qyd-410">
          <mxGeometry relative="1" as="geometry">
            <mxPoint x="2921" y="2760" as="targetPoint" />
          </mxGeometry>
        </mxCell>
        <mxCell id="xrZwqs1FHnrnFmQd6Qyd-437" value="Sortier- und abbruchgreifer&lt;br&gt;&lt;b&gt;D.1.84&lt;/b&gt;" style="rounded=0;whiteSpace=wrap;html=1;fontSize=17;align=center;fillColor=#dae8fc;strokeColor=#6c8ebf;" vertex="1" parent="1">
          <mxGeometry x="3121" y="3010" width="120" height="60" as="geometry" />
        </mxCell>
        <mxCell id="xrZwqs1FHnrnFmQd6Qyd-438" style="edgeStyle=none;rounded=0;orthogonalLoop=1;jettySize=auto;html=1;entryX=1;entryY=0.5;entryDx=0;entryDy=0;fontSize=17;exitX=0;exitY=0.5;exitDx=0;exitDy=0;" edge="1" parent="1" source="xrZwqs1FHnrnFmQd6Qyd-439" target="xrZwqs1FHnrnFmQd6Qyd-410">
          <mxGeometry relative="1" as="geometry" />
        </mxCell>
        <mxCell id="xrZwqs1FHnrnFmQd6Qyd-439" value="Ladeschaufel&lt;br&gt;&lt;b&gt;D.1.66&lt;/b&gt;" style="rounded=0;whiteSpace=wrap;html=1;fontSize=17;align=center;fillColor=#dae8fc;strokeColor=#6c8ebf;" vertex="1" parent="1">
          <mxGeometry x="3121" y="2930" width="120" height="60" as="geometry" />
        </mxCell>
        <mxCell id="xrZwqs1FHnrnFmQd6Qyd-440" style="edgeStyle=none;rounded=0;orthogonalLoop=1;jettySize=auto;html=1;entryX=1;entryY=0.5;entryDx=0;entryDy=0;fontSize=17;exitX=0;exitY=0.5;exitDx=0;exitDy=0;" edge="1" parent="1" source="xrZwqs1FHnrnFmQd6Qyd-441" target="xrZwqs1FHnrnFmQd6Qyd-410">
          <mxGeometry relative="1" as="geometry" />
        </mxCell>
        <mxCell id="xrZwqs1FHnrnFmQd6Qyd-441" value="Abbruch-ausrüstung" style="rounded=0;whiteSpace=wrap;html=1;fontSize=17;align=center;fillColor=#dae8fc;strokeColor=#6c8ebf;" vertex="1" parent="1">
          <mxGeometry x="3121" y="2850" width="120" height="60" as="geometry" />
        </mxCell>
        <mxCell id="xrZwqs1FHnrnFmQd6Qyd-442" style="edgeStyle=none;rounded=0;orthogonalLoop=1;jettySize=auto;html=1;entryX=1;entryY=0.5;entryDx=0;entryDy=0;fontSize=17;exitX=0;exitY=0.5;exitDx=0;exitDy=0;" edge="1" parent="1" source="xrZwqs1FHnrnFmQd6Qyd-443" target="xrZwqs1FHnrnFmQd6Qyd-410">
          <mxGeometry relative="1" as="geometry" />
        </mxCell>
        <mxCell id="xrZwqs1FHnrnFmQd6Qyd-443" value="Klappschaufel&lt;br&gt;&lt;b&gt;D.1.65&lt;/b&gt;" style="rounded=0;whiteSpace=wrap;html=1;fontSize=17;align=center;fillColor=#dae8fc;strokeColor=#6c8ebf;" vertex="1" parent="1">
          <mxGeometry x="3121" y="2770" width="120" height="60" as="geometry" />
        </mxCell>
        <mxCell id="xrZwqs1FHnrnFmQd6Qyd-444" style="edgeStyle=none;rounded=0;orthogonalLoop=1;jettySize=auto;html=1;entryX=1;entryY=0.5;entryDx=0;entryDy=0;fontSize=17;exitX=0;exitY=0.5;exitDx=0;exitDy=0;" edge="1" parent="1" source="xrZwqs1FHnrnFmQd6Qyd-445" target="xrZwqs1FHnrnFmQd6Qyd-410">
          <mxGeometry relative="1" as="geometry" />
        </mxCell>
        <mxCell id="xrZwqs1FHnrnFmQd6Qyd-445" value="Grabgreifer&lt;br&gt;&lt;b&gt;D.1.63&lt;/b&gt;" style="rounded=0;whiteSpace=wrap;html=1;fontSize=17;align=center;fillColor=#dae8fc;strokeColor=#6c8ebf;" vertex="1" parent="1">
          <mxGeometry x="3121" y="2690" width="120" height="60" as="geometry" />
        </mxCell>
        <mxCell id="xrZwqs1FHnrnFmQd6Qyd-446" style="edgeStyle=none;rounded=0;orthogonalLoop=1;jettySize=auto;html=1;entryX=1;entryY=0.25;entryDx=0;entryDy=0;fontSize=17;exitX=0;exitY=0.5;exitDx=0;exitDy=0;" edge="1" parent="1" source="xrZwqs1FHnrnFmQd6Qyd-447" target="xrZwqs1FHnrnFmQd6Qyd-410">
          <mxGeometry relative="1" as="geometry" />
        </mxCell>
        <mxCell id="xrZwqs1FHnrnFmQd6Qyd-447" value="Profillöffel&lt;br&gt;&lt;b&gt;D.1.62&lt;/b&gt;" style="rounded=0;whiteSpace=wrap;html=1;fontSize=17;align=center;fillColor=#dae8fc;strokeColor=#6c8ebf;" vertex="1" parent="1">
          <mxGeometry x="3121" y="2610" width="120" height="60" as="geometry" />
        </mxCell>
        <mxCell id="xrZwqs1FHnrnFmQd6Qyd-448" style="edgeStyle=none;rounded=0;orthogonalLoop=1;jettySize=auto;html=1;entryX=1;entryY=0.25;entryDx=0;entryDy=0;fontSize=17;exitX=0;exitY=0.5;exitDx=0;exitDy=0;" edge="1" parent="1" source="xrZwqs1FHnrnFmQd6Qyd-449" target="xrZwqs1FHnrnFmQd6Qyd-410">
          <mxGeometry relative="1" as="geometry" />
        </mxCell>
        <mxCell id="xrZwqs1FHnrnFmQd6Qyd-449" value="Grabenräum-löffel&lt;br&gt;&lt;b&gt;D.1.61&lt;/b&gt;" style="rounded=0;whiteSpace=wrap;html=1;fontSize=17;align=center;fillColor=#dae8fc;strokeColor=#6c8ebf;" vertex="1" parent="1">
          <mxGeometry x="3121" y="2530" width="120" height="60" as="geometry" />
        </mxCell>
        <mxCell id="xrZwqs1FHnrnFmQd6Qyd-450" style="edgeStyle=none;rounded=0;orthogonalLoop=1;jettySize=auto;html=1;entryX=1;entryY=0.25;entryDx=0;entryDy=0;fontSize=17;exitX=0;exitY=0.5;exitDx=0;exitDy=0;" edge="1" parent="1" source="xrZwqs1FHnrnFmQd6Qyd-451" target="xrZwqs1FHnrnFmQd6Qyd-410">
          <mxGeometry relative="1" as="geometry" />
        </mxCell>
        <mxCell id="xrZwqs1FHnrnFmQd6Qyd-451" value="Tieflöffel&lt;br&gt;&lt;b&gt;D.1.60&lt;/b&gt;" style="rounded=0;whiteSpace=wrap;html=1;fontSize=17;align=center;fillColor=#dae8fc;strokeColor=#6c8ebf;" vertex="1" parent="1">
          <mxGeometry x="3121" y="2450" width="120" height="60" as="geometry" />
        </mxCell>
        <mxCell id="xrZwqs1FHnrnFmQd6Qyd-452" style="edgeStyle=none;rounded=0;orthogonalLoop=1;jettySize=auto;html=1;entryX=1;entryY=0.5;entryDx=0;entryDy=0;fontSize=17;" edge="1" parent="1" source="xrZwqs1FHnrnFmQd6Qyd-453" target="xrZwqs1FHnrnFmQd6Qyd-451">
          <mxGeometry relative="1" as="geometry" />
        </mxCell>
        <mxCell id="xrZwqs1FHnrnFmQd6Qyd-453" value="1, 2, 3, 4, 5, 6, 9" style="ellipse;whiteSpace=wrap;html=1;aspect=fixed;align=center;" vertex="1" parent="1">
          <mxGeometry x="3331" y="2450" width="60" height="60" as="geometry" />
        </mxCell>
        <mxCell id="xrZwqs1FHnrnFmQd6Qyd-454" style="edgeStyle=none;rounded=0;orthogonalLoop=1;jettySize=auto;html=1;entryX=1;entryY=0.5;entryDx=0;entryDy=0;fontSize=17;" edge="1" parent="1" source="xrZwqs1FHnrnFmQd6Qyd-455" target="xrZwqs1FHnrnFmQd6Qyd-449">
          <mxGeometry relative="1" as="geometry" />
        </mxCell>
        <mxCell id="xrZwqs1FHnrnFmQd6Qyd-455" value="1, 2, 3, 4, 5, 6, 9" style="ellipse;whiteSpace=wrap;html=1;aspect=fixed;align=center;" vertex="1" parent="1">
          <mxGeometry x="3331" y="2530" width="60" height="60" as="geometry" />
        </mxCell>
        <mxCell id="xrZwqs1FHnrnFmQd6Qyd-456" style="edgeStyle=none;rounded=0;orthogonalLoop=1;jettySize=auto;html=1;entryX=1;entryY=0.5;entryDx=0;entryDy=0;fontSize=17;" edge="1" parent="1" source="xrZwqs1FHnrnFmQd6Qyd-457" target="xrZwqs1FHnrnFmQd6Qyd-447">
          <mxGeometry relative="1" as="geometry" />
        </mxCell>
        <mxCell id="xrZwqs1FHnrnFmQd6Qyd-457" value="1, 2, 3, 4, 5, 6, 9" style="ellipse;whiteSpace=wrap;html=1;aspect=fixed;align=center;" vertex="1" parent="1">
          <mxGeometry x="3331" y="2610" width="60" height="60" as="geometry" />
        </mxCell>
        <mxCell id="xrZwqs1FHnrnFmQd6Qyd-458" style="edgeStyle=none;rounded=0;orthogonalLoop=1;jettySize=auto;html=1;entryX=0.5;entryY=1;entryDx=0;entryDy=0;fontSize=17;" edge="1" parent="1" source="xrZwqs1FHnrnFmQd6Qyd-459" target="xrZwqs1FHnrnFmQd6Qyd-419">
          <mxGeometry relative="1" as="geometry" />
        </mxCell>
        <mxCell id="xrZwqs1FHnrnFmQd6Qyd-459" value="2, 3, 4, 5" style="ellipse;whiteSpace=wrap;html=1;aspect=fixed;align=center;" vertex="1" parent="1">
          <mxGeometry x="2021" y="3200" width="60" height="60" as="geometry" />
        </mxCell>
        <mxCell id="xrZwqs1FHnrnFmQd6Qyd-460" style="edgeStyle=none;rounded=0;orthogonalLoop=1;jettySize=auto;html=1;entryX=0.5;entryY=1;entryDx=0;entryDy=0;fontSize=17;" edge="1" parent="1" source="xrZwqs1FHnrnFmQd6Qyd-461" target="xrZwqs1FHnrnFmQd6Qyd-423">
          <mxGeometry relative="1" as="geometry" />
        </mxCell>
        <mxCell id="xrZwqs1FHnrnFmQd6Qyd-461" value="3, 4, 5, 7" style="ellipse;whiteSpace=wrap;html=1;aspect=fixed;align=center;" vertex="1" parent="1">
          <mxGeometry x="2161" y="3200" width="60" height="60" as="geometry" />
        </mxCell>
        <mxCell id="xrZwqs1FHnrnFmQd6Qyd-462" style="edgeStyle=none;rounded=0;orthogonalLoop=1;jettySize=auto;html=1;entryX=0.5;entryY=1;entryDx=0;entryDy=0;fontSize=17;" edge="1" parent="1" source="xrZwqs1FHnrnFmQd6Qyd-463" target="xrZwqs1FHnrnFmQd6Qyd-421">
          <mxGeometry relative="1" as="geometry" />
        </mxCell>
        <mxCell id="xrZwqs1FHnrnFmQd6Qyd-463" value="3, 4, 5, 7, 11" style="ellipse;whiteSpace=wrap;html=1;aspect=fixed;align=center;" vertex="1" parent="1">
          <mxGeometry x="2301" y="3200" width="60" height="60" as="geometry" />
        </mxCell>
        <mxCell id="xrZwqs1FHnrnFmQd6Qyd-464" style="edgeStyle=none;rounded=0;orthogonalLoop=1;jettySize=auto;html=1;entryX=0.5;entryY=1;entryDx=0;entryDy=0;fontSize=17;" edge="1" parent="1" source="xrZwqs1FHnrnFmQd6Qyd-465" target="xrZwqs1FHnrnFmQd6Qyd-425">
          <mxGeometry relative="1" as="geometry" />
        </mxCell>
        <mxCell id="xrZwqs1FHnrnFmQd6Qyd-465" value="5, 12" style="ellipse;whiteSpace=wrap;html=1;aspect=fixed;align=center;" vertex="1" parent="1">
          <mxGeometry x="2441" y="3200" width="60" height="60" as="geometry" />
        </mxCell>
        <mxCell id="xrZwqs1FHnrnFmQd6Qyd-466" style="edgeStyle=none;rounded=0;orthogonalLoop=1;jettySize=auto;html=1;entryX=0.5;entryY=1;entryDx=0;entryDy=0;fontSize=17;" edge="1" parent="1" source="xrZwqs1FHnrnFmQd6Qyd-467" target="xrZwqs1FHnrnFmQd6Qyd-427">
          <mxGeometry relative="1" as="geometry" />
        </mxCell>
        <mxCell id="xrZwqs1FHnrnFmQd6Qyd-467" value="5, 12" style="ellipse;whiteSpace=wrap;html=1;aspect=fixed;align=center;" vertex="1" parent="1">
          <mxGeometry x="2581" y="3200" width="60" height="60" as="geometry" />
        </mxCell>
        <mxCell id="xrZwqs1FHnrnFmQd6Qyd-468" style="edgeStyle=none;rounded=0;orthogonalLoop=1;jettySize=auto;html=1;entryX=1;entryY=0.5;entryDx=0;entryDy=0;fontSize=17;" edge="1" parent="1" source="xrZwqs1FHnrnFmQd6Qyd-469" target="xrZwqs1FHnrnFmQd6Qyd-445">
          <mxGeometry relative="1" as="geometry" />
        </mxCell>
        <mxCell id="xrZwqs1FHnrnFmQd6Qyd-469" value="1, 2, 3, 4, 5, 6, 9" style="ellipse;whiteSpace=wrap;html=1;aspect=fixed;align=center;" vertex="1" parent="1">
          <mxGeometry x="3331" y="2690" width="60" height="60" as="geometry" />
        </mxCell>
        <mxCell id="xrZwqs1FHnrnFmQd6Qyd-470" style="edgeStyle=none;rounded=0;orthogonalLoop=1;jettySize=auto;html=1;entryX=1;entryY=0.5;entryDx=0;entryDy=0;fontSize=17;" edge="1" parent="1" source="xrZwqs1FHnrnFmQd6Qyd-471" target="xrZwqs1FHnrnFmQd6Qyd-443">
          <mxGeometry relative="1" as="geometry" />
        </mxCell>
        <mxCell id="xrZwqs1FHnrnFmQd6Qyd-471" value="1, 2, 3, 4, 5, 6, 9" style="ellipse;whiteSpace=wrap;html=1;aspect=fixed;align=center;" vertex="1" parent="1">
          <mxGeometry x="3331" y="2770" width="60" height="60" as="geometry" />
        </mxCell>
        <mxCell id="xrZwqs1FHnrnFmQd6Qyd-472" style="edgeStyle=none;rounded=0;orthogonalLoop=1;jettySize=auto;html=1;entryX=1;entryY=0.5;entryDx=0;entryDy=0;fontSize=17;" edge="1" parent="1" source="xrZwqs1FHnrnFmQd6Qyd-473" target="xrZwqs1FHnrnFmQd6Qyd-441">
          <mxGeometry relative="1" as="geometry" />
        </mxCell>
        <mxCell id="xrZwqs1FHnrnFmQd6Qyd-473" value="1, 2, 3, 4, 5, 6, 9" style="ellipse;whiteSpace=wrap;html=1;aspect=fixed;align=center;" vertex="1" parent="1">
          <mxGeometry x="3331" y="2850" width="60" height="60" as="geometry" />
        </mxCell>
        <mxCell id="xrZwqs1FHnrnFmQd6Qyd-474" style="edgeStyle=none;rounded=0;orthogonalLoop=1;jettySize=auto;html=1;entryX=1;entryY=0.5;entryDx=0;entryDy=0;fontSize=17;" edge="1" parent="1" source="xrZwqs1FHnrnFmQd6Qyd-475" target="xrZwqs1FHnrnFmQd6Qyd-439">
          <mxGeometry relative="1" as="geometry" />
        </mxCell>
        <mxCell id="xrZwqs1FHnrnFmQd6Qyd-475" value="1, 2, 3, 4, 5, 6, 9" style="ellipse;whiteSpace=wrap;html=1;aspect=fixed;align=center;" vertex="1" parent="1">
          <mxGeometry x="3331" y="2930" width="60" height="60" as="geometry" />
        </mxCell>
        <mxCell id="xrZwqs1FHnrnFmQd6Qyd-476" style="edgeStyle=none;rounded=0;orthogonalLoop=1;jettySize=auto;html=1;entryX=1;entryY=0.5;entryDx=0;entryDy=0;fontSize=17;" edge="1" parent="1" source="xrZwqs1FHnrnFmQd6Qyd-477" target="xrZwqs1FHnrnFmQd6Qyd-437">
          <mxGeometry relative="1" as="geometry" />
        </mxCell>
        <mxCell id="xrZwqs1FHnrnFmQd6Qyd-477" value="&lt;span&gt;3, 4, 5, 7, 12&lt;/span&gt;" style="ellipse;whiteSpace=wrap;html=1;aspect=fixed;align=center;" vertex="1" parent="1">
          <mxGeometry x="3331" y="3010" width="60" height="60" as="geometry" />
        </mxCell>
        <mxCell id="xrZwqs1FHnrnFmQd6Qyd-478" style="edgeStyle=none;rounded=0;orthogonalLoop=1;jettySize=auto;html=1;entryX=0.5;entryY=1;entryDx=0;entryDy=0;fontSize=17;" edge="1" parent="1" source="xrZwqs1FHnrnFmQd6Qyd-479" target="xrZwqs1FHnrnFmQd6Qyd-435">
          <mxGeometry relative="1" as="geometry" />
        </mxCell>
        <mxCell id="xrZwqs1FHnrnFmQd6Qyd-479" value="5, 6, 9, 10" style="ellipse;whiteSpace=wrap;html=1;aspect=fixed;align=center;" vertex="1" parent="1">
          <mxGeometry x="3151" y="3200" width="60" height="60" as="geometry" />
        </mxCell>
        <mxCell id="xrZwqs1FHnrnFmQd6Qyd-480" style="edgeStyle=none;rounded=0;orthogonalLoop=1;jettySize=auto;html=1;fontSize=17;" edge="1" parent="1" source="xrZwqs1FHnrnFmQd6Qyd-481" target="xrZwqs1FHnrnFmQd6Qyd-433">
          <mxGeometry relative="1" as="geometry" />
        </mxCell>
        <mxCell id="xrZwqs1FHnrnFmQd6Qyd-481" value="2, 3, 4, 5, 7" style="ellipse;whiteSpace=wrap;html=1;aspect=fixed;align=center;" vertex="1" parent="1">
          <mxGeometry x="3001" y="3200" width="60" height="60" as="geometry" />
        </mxCell>
        <mxCell id="xrZwqs1FHnrnFmQd6Qyd-482" style="edgeStyle=none;rounded=0;orthogonalLoop=1;jettySize=auto;html=1;entryX=0.5;entryY=1;entryDx=0;entryDy=0;fontSize=17;" edge="1" parent="1" source="xrZwqs1FHnrnFmQd6Qyd-483" target="xrZwqs1FHnrnFmQd6Qyd-431">
          <mxGeometry relative="1" as="geometry" />
        </mxCell>
        <mxCell id="xrZwqs1FHnrnFmQd6Qyd-483" value="5, 9" style="ellipse;whiteSpace=wrap;html=1;aspect=fixed;align=center;" vertex="1" parent="1">
          <mxGeometry x="2861" y="3200" width="60" height="60" as="geometry" />
        </mxCell>
        <mxCell id="xrZwqs1FHnrnFmQd6Qyd-484" style="edgeStyle=none;rounded=0;orthogonalLoop=1;jettySize=auto;html=1;entryX=0.5;entryY=1;entryDx=0;entryDy=0;fontSize=17;" edge="1" parent="1" source="xrZwqs1FHnrnFmQd6Qyd-485" target="xrZwqs1FHnrnFmQd6Qyd-429">
          <mxGeometry relative="1" as="geometry" />
        </mxCell>
        <mxCell id="xrZwqs1FHnrnFmQd6Qyd-485" value="5, 12" style="ellipse;whiteSpace=wrap;html=1;aspect=fixed;align=center;" vertex="1" parent="1">
          <mxGeometry x="2721" y="3200" width="60" height="60" as="geometry" />
        </mxCell>
        <mxCell id="xrZwqs1FHnrnFmQd6Qyd-486" value="1, 2, 5, 6, 9" style="ellipse;whiteSpace=wrap;html=1;aspect=fixed;align=center;" vertex="1" parent="1">
          <mxGeometry x="2031" y="2605" width="80" height="80" as="geometry" />
        </mxCell>
        <mxCell id="xrZwqs1FHnrnFmQd6Qyd-487" style="edgeStyle=none;rounded=0;orthogonalLoop=1;jettySize=auto;html=1;entryX=0.5;entryY=1;entryDx=0;entryDy=0;" edge="1" parent="1" source="xrZwqs1FHnrnFmQd6Qyd-488">
          <mxGeometry relative="1" as="geometry">
            <mxPoint x="2021" y="2835" as="targetPoint" />
          </mxGeometry>
        </mxCell>
        <mxCell id="xrZwqs1FHnrnFmQd6Qyd-488" value="1, 2, 5, 6, 9" style="ellipse;whiteSpace=wrap;html=1;aspect=fixed;align=center;" vertex="1" parent="1">
          <mxGeometry x="1991" y="2880" width="60" height="60" as="geometry" />
        </mxCell>
      </root>
    </mxGraphModel>
  </diagram>
</mxfile>
